<?xml version="1.0" encoding="utf-8"?>
<!-- Generator: Adobe Illustrator 16.0.0, SVG Export Plug-In . SVG Version: 6.00 Build 0)  -->
<!DOCTYPE svg PUBLIC "-//W3C//DTD SVG 1.1//EN" "http://www.w3.org/Graphics/SVG/1.1/DTD/svg11.dtd">
<svg version="1.1" id="Layer_1" xmlns="http://www.w3.org/2000/svg" xmlns:xlink="http://www.w3.org/1999/xlink" x="0px" y="0px"
	 width="720px" height="720px" viewBox="0 0 720 720" enable-background="new 0 0 720 720" xml:space="preserve">
<g>
	<path fill-rule="evenodd" clip-rule="evenodd" fill="#1E5D7E" d="M221.304,429.999V317.317h20.949v48.738l35.477-48.738h24.58
		l-42.488,55.439l42.488,57.242h-24.58l-35.477-49.414v49.414H221.304L221.304,429.999z M635.833,402.596h22.751
		c-3.125,8.673-7.772,15.485-13.909,20.469c-3.801,3.097-8.221,5.52-13.262,7.294c-5.012,1.773-10.023,2.646-15.036,2.646
		c-8.473,0-16.611-2.477-24.41-7.433c-6.814-4.363-11.994-10.108-15.569-17.259c-3.294-6.449-4.956-13.376-4.956-20.752
		c0-13.149,4.926-24.157,14.753-33.026c8.644-7.827,18.668-11.742,30.099-11.742c11.826,0,22.104,4.082,30.832,12.249
		c2.928,2.729,5.208,5.461,6.842,8.137c1.661,2.674,3.211,6.165,4.617,10.529h-22.751c-2.534-4.42-5.321-7.575-8.362-9.487
		c-3.067-1.889-6.813-2.844-11.261-2.844c-6.11,0-11.432,1.969-15.993,5.94c-5.66,4.897-8.504,11.769-8.504,20.581
		c0,7.771,2.562,14.218,7.658,19.345c4.676,4.787,10.588,7.179,17.738,7.179C624.739,414.421,630.99,410.478,635.833,402.596
		L635.833,402.596z M521.898,342.792c13.264,0,24.356,4.984,33.339,14.951c7.573,8.362,11.375,18.387,11.375,30.07
		c0,13.938-5.152,25.313-15.43,34.127c-8.56,7.376-18.499,11.063-29.763,11.063c-7.15,0-14.021-1.774-20.609-5.294
		c-7.207-3.801-12.924-9.092-17.147-15.851c-4.617-7.376-6.927-15.627-6.927-24.693c0-12.727,5.014-23.65,15.008-32.717
		C500.023,346.902,510.103,343.018,521.898,342.792L521.898,342.792z M521.843,361.376c-7.264,0-13.514,3.069-18.723,9.179
		c-4.083,4.729-6.11,10.418-6.11,17.006c0,8.925,3.042,15.965,9.15,21.088c4.562,3.857,9.771,5.772,15.6,5.772
		c7.546,0,13.656-2.898,18.385-8.672c4.141-5.012,6.195-10.896,6.195-17.598c0-8.391-3.013-15.261-9.066-20.666
		C532.824,363.516,527.672,361.487,521.843,361.376L521.843,361.376z M382.747,430.133V317.451h20.271v35.956
		c6.814-7.068,15.598-10.615,26.382-10.615c7.855,0,15.346,2.225,22.412,6.702c6.675,4.223,11.741,10.221,15.262,17.991
		c3.125,6.784,4.7,13.626,4.7,20.582c0,5.294-0.899,10.56-2.73,15.853c-1.803,5.292-4.336,9.938-7.572,13.966
		c-7.969,10.078-18.5,15.118-31.62,15.118c-5.772,0-10.924-1.014-15.429-3.068c-4.507-2.056-8.869-5.35-13.093-9.939v10.137H382.747
		L382.747,430.133z M426.839,361.376c-7.04,0-12.979,2.504-17.824,7.517c-4.897,5.068-7.349,11.264-7.349,18.585
		c0,8.698,3.041,15.683,9.153,20.918c4.672,4.027,10.163,6.025,16.412,6.025c7.012,0,12.813-2.505,17.429-7.518
		c4.562-4.955,6.843-11.348,6.843-19.174c0-7.434-2.197-13.544-6.589-18.33C440.072,364.164,434.046,361.487,426.839,361.376
		L426.839,361.376z M352.186,345.663v43.221c0,8.362-1.462,14.696-4.419,19.032s-7.292,6.505-12.979,6.505
		c-5.914,0-10.503-2.533-13.769-7.573c-2.421-3.803-3.632-9.772-3.632-17.964v-43.221h-20.272v49.583
		c0,6.928,0.788,12.531,2.393,16.867c1.606,4.308,4.308,8.221,8.108,11.74c6.759,6.11,14.868,9.15,24.271,9.15
		c4.873,0,8.896-0.816,12.107-2.477c3.238-1.634,6.533-4.561,9.883-8.729v8.335h18.583v-84.47H352.186z"/>
	<path fill-rule="evenodd" clip-rule="evenodd" fill="#1E5D7E" d="M63.927,311.792h121.714h2.512v2.513v121.712v2.513h-2.512H63.927
		h-2.512v-2.513V314.305v-2.513H63.927L63.927,311.792z M183.128,316.815H66.44v116.688h116.688V316.815z"/>
	<path fill-rule="evenodd" clip-rule="evenodd" fill="#02AFF1" d="M124.784,347.245c-7.708,0-14.688,3.123-19.74,8.175
		s-8.176,12.03-8.176,19.74c0,7.709,3.125,14.688,8.176,19.739c5.052,5.052,12.031,8.177,19.74,8.177s14.688-3.125,19.74-8.177
		c5.052-5.051,8.176-12.03,8.176-19.739c0-7.71-3.125-14.688-8.176-19.74C139.473,350.368,132.493,347.245,124.784,347.245
		L124.784,347.245z M101.492,351.867c5.96-5.96,14.197-9.647,23.292-9.647c9.096,0,17.332,3.688,23.292,9.647
		c5.96,5.963,9.647,14.198,9.647,23.293c0,9.096-3.687,17.331-9.647,23.292c-5.961,5.961-14.196,9.648-23.292,9.648
		c-9.096,0-17.332-3.688-23.292-9.648s-9.648-14.196-9.648-23.292C91.844,366.065,95.531,357.828,101.492,351.867L101.492,351.867z
		 M170.278,329.666v90.989H79.29v-90.989H170.278z"/>
</g>
<g display="none">
	<path display="inline" fill-rule="evenodd" clip-rule="evenodd" fill="#1E5D7E" d="M218.518,415.941V300.995h21.37v49.72
		l36.189-49.72h25.074l-43.341,56.555l43.341,58.392h-25.074l-36.189-50.408v50.408H218.518L218.518,415.941z M641.376,387.986
		h23.207c-3.188,8.848-7.927,15.797-14.188,20.881c-3.877,3.16-8.386,5.631-13.527,7.439c-5.113,1.811-10.226,2.699-15.339,2.699
		c-8.644,0-16.943-2.525-24.901-7.582c-6.95-4.451-12.235-10.311-15.882-17.605c-3.36-6.58-5.056-13.643-5.056-21.17
		c0-13.412,5.025-24.642,15.05-33.69c8.817-7.984,19.043-11.978,30.703-11.978c12.063,0,22.547,4.166,31.451,12.496
		c2.986,2.784,5.313,5.57,6.979,8.301c1.694,2.726,3.275,6.289,4.71,10.739h-23.207c-2.586-4.508-5.429-7.726-8.53-9.679
		c-3.13-1.925-6.951-2.899-11.488-2.899c-6.232,0-11.661,2.01-16.314,6.059c-5.773,4.998-8.675,12.006-8.675,20.997
		c0,7.926,2.615,14.504,7.813,19.732c4.769,4.883,10.801,7.324,18.095,7.324C630.059,400.051,636.437,396.029,641.376,387.986
		L641.376,387.986z M525.152,326.981c13.529,0,24.845,5.085,34.008,15.251c7.726,8.531,11.603,18.756,11.603,30.676
		c0,14.219-5.255,25.82-15.739,34.811c-8.731,7.525-18.87,11.287-30.36,11.287c-7.294,0-14.303-1.809-21.023-5.4
		c-7.352-3.877-13.182-9.275-17.492-16.168c-4.71-7.525-7.063-15.941-7.063-25.191c0-12.982,5.112-24.125,15.308-33.374
		C502.836,331.174,513.119,327.211,525.152,326.981L525.152,326.981z M525.095,345.939c-7.409,0-13.786,3.13-19.1,9.363
		c-4.163,4.823-6.232,10.625-6.232,17.346c0,9.105,3.103,16.285,9.334,21.512c4.653,3.936,9.968,5.891,15.913,5.891
		c7.697,0,13.931-2.959,18.755-8.846c4.223-5.115,6.319-11.117,6.319-17.953c0-8.559-3.073-15.567-9.248-21.081
		C536.297,348.121,531.041,346.053,525.095,345.939L525.095,345.939z M383.204,416.078V301.132h20.679v36.677
		c6.951-7.208,15.911-10.828,26.912-10.828c8.014,0,15.653,2.271,22.862,6.837c6.809,4.307,11.978,10.426,15.568,18.354
		c3.188,6.921,4.796,13.901,4.796,20.995c0,5.4-0.919,10.771-2.787,16.172c-1.838,5.398-4.423,10.139-7.724,14.246
		c-8.13,10.279-18.872,15.422-32.256,15.422c-5.888,0-11.144-1.035-15.739-3.131c-4.597-2.096-9.047-5.457-13.355-10.137v10.34
		H383.204L383.204,416.078z M428.182,345.939c-7.182,0-13.24,2.554-18.182,7.667c-4.996,5.171-7.497,11.49-7.497,18.958
		c0,8.875,3.103,15.998,9.337,21.338c4.767,4.107,10.368,6.148,16.742,6.148c7.154,0,13.069-2.557,17.781-7.67
		c4.651-5.053,6.979-11.576,6.979-19.559c0-7.582-2.242-13.816-6.721-18.699C441.681,348.783,435.533,346.053,428.182,345.939
		L428.182,345.939z M352.029,329.91v44.088c0,8.531-1.492,14.994-4.509,19.418c-3.016,4.422-7.438,6.635-13.24,6.635
		c-6.033,0-10.714-2.586-14.046-7.727c-2.469-3.877-3.705-9.967-3.705-18.326V329.91h-20.68v50.581
		c0,7.066,0.804,12.781,2.441,17.205c1.638,4.395,4.394,8.385,8.272,11.977c6.894,6.232,15.166,9.334,24.758,9.334
		c4.97,0,9.076-0.832,12.351-2.525c3.304-1.668,6.664-4.654,10.082-8.906v8.504h18.957V329.91H352.029z"/>
	<path display="inline" fill-rule="evenodd" clip-rule="evenodd" fill="#02AFF1" d="M57.979,295.358h124.158h2.563v2.563v124.157
		v2.564h-2.563H57.979h-2.563v-2.564V297.921v-2.563H57.979L57.979,295.358z M179.575,300.484H60.542v119.032h119.033V300.484z"/>
	<path display="inline" fill-rule="evenodd" clip-rule="evenodd" fill="#72BFB5" d="M120.058,331.523
		c-7.863,0-14.983,3.188-20.136,8.342c-5.153,5.151-8.34,12.271-8.34,20.136c0,7.863,3.187,14.984,8.34,20.136
		c5.153,5.154,12.273,8.34,20.136,8.34c7.864,0,14.984-3.186,20.137-8.34c5.152-5.152,8.34-12.273,8.34-20.136
		c0-7.864-3.188-14.984-8.34-20.136C135.042,334.711,127.922,331.523,120.058,331.523L120.058,331.523z M96.298,336.241
		c6.081-6.082,14.482-9.842,23.76-9.842c9.279,0,17.68,3.76,23.76,9.842c6.082,6.08,9.843,14.481,9.843,23.76
		c0,9.279-3.761,17.679-9.843,23.761c-6.08,6.08-14.481,9.842-23.76,9.842c-9.278,0-17.679-3.762-23.76-9.842
		c-6.08-6.08-9.842-14.482-9.842-23.761C86.456,350.722,90.218,342.321,96.298,336.241L96.298,336.241z M166.467,313.591v92.817
		H73.65v-92.817H166.467z"/>
</g>
<g display="none">
	<path display="inline" fill-rule="evenodd" clip-rule="evenodd" fill="#1E5D7E" d="M214.337,399.178V280.836h22.001v51.188
		l37.258-51.188h25.815l-44.622,58.226l44.622,60.116h-25.815l-37.258-51.896v51.896H214.337L214.337,399.178z M649.69,370.398
		h23.893c-3.282,9.107-8.161,16.264-14.607,21.498c-3.992,3.25-8.634,5.795-13.927,7.658c-5.265,1.863-10.528,2.779-15.793,2.779
		c-8.898,0-17.444-2.602-25.637-7.807c-7.156-4.582-12.597-10.615-16.352-18.125c-3.46-6.773-5.205-14.047-5.205-21.794
		c0-13.811,5.174-25.371,15.494-34.686c9.078-8.221,19.606-12.332,31.611-12.332c12.42,0,23.213,4.287,32.38,12.864
		c3.075,2.867,5.471,5.735,7.187,8.545c1.744,2.809,3.371,6.477,4.849,11.059H649.69c-2.662-4.642-5.59-7.953-8.782-9.964
		c-3.223-1.982-7.156-2.986-11.828-2.986c-6.417,0-12.005,2.069-16.796,6.238c-5.944,5.146-8.932,12.36-8.932,21.615
		c0,8.162,2.692,14.933,8.043,20.316c4.91,5.029,11.12,7.541,18.63,7.541C638.038,382.818,644.604,378.678,649.69,370.398
		L649.69,370.398z M530.033,307.59c13.928,0,25.578,5.235,35.012,15.702c7.954,8.782,11.946,19.311,11.946,31.581
		c0,14.638-5.411,26.583-16.204,35.841c-8.99,7.746-19.429,11.619-31.258,11.619c-7.51,0-14.726-1.863-21.646-5.561
		c-7.568-3.992-13.571-9.549-18.009-16.646c-4.849-7.746-7.272-16.412-7.272-25.935c0-13.364,5.263-24.837,15.76-34.359
		C507.057,311.907,517.644,307.828,530.033,307.59L530.033,307.59z M529.974,327.108c-7.629,0-14.193,3.223-19.664,9.64
		c-4.287,4.967-6.417,10.941-6.417,17.86c0,9.373,3.194,16.767,9.609,22.148c4.791,4.051,10.263,6.063,16.384,6.063
		c7.925,0,14.342-3.045,19.309-9.107c4.348-5.264,6.507-11.443,6.507-18.483c0-8.813-3.165-16.026-9.522-21.703
		C541.506,329.355,536.095,327.226,529.974,327.108L529.974,327.108z M383.89,399.318v-118.34h21.29v37.761
		c7.156-7.424,16.382-11.148,27.707-11.148c8.25,0,16.116,2.336,23.538,7.039c7.01,4.435,12.331,10.733,16.028,18.896
		c3.282,7.125,4.938,14.31,4.938,21.615c0,5.559-0.946,11.09-2.869,16.651c-1.893,5.557-4.554,10.436-7.952,14.664
		c-8.37,10.586-19.43,15.879-33.209,15.879c-6.062,0-11.473-1.064-16.204-3.223c-4.732-2.158-9.314-5.619-13.75-10.439v10.646
		H383.89L383.89,399.318z M430.196,327.108c-7.394,0-13.632,2.63-18.719,7.895c-5.145,5.323-7.719,11.829-7.719,19.518
		c0,9.136,3.194,16.47,9.613,21.97c4.907,4.229,10.674,6.328,17.237,6.328c7.364,0,13.455-2.633,18.306-7.896
		c4.789-5.203,7.185-11.918,7.185-20.136c0-7.808-2.308-14.224-6.92-19.251C444.095,330.036,437.766,327.226,430.196,327.108
		L430.196,327.108z M351.793,310.606v45.392c0,8.782-1.536,15.436-4.642,19.991c-3.105,4.551-7.659,6.83-13.631,6.83
		c-6.211,0-11.03-2.662-14.461-7.955c-2.542-3.992-3.813-10.262-3.813-18.866v-45.392h-21.292v52.074
		c0,7.275,0.828,13.16,2.513,17.715c1.687,4.523,4.524,8.633,8.516,12.33c7.098,6.416,15.614,9.609,25.49,9.609
		c5.118,0,9.344-0.857,12.716-2.602c3.401-1.715,6.861-4.789,10.379-9.166v8.752h19.516v-88.712H351.793z"/>
	<path display="inline" fill-rule="evenodd" clip-rule="evenodd" fill="#1E5D7E" d="M49.055,275.033h127.827h2.639v2.639v127.827
		v2.639h-2.639H49.055h-2.639v-2.639V277.671v-2.639H49.055L49.055,275.033z M174.244,280.309H51.693v122.55h122.551V280.309z"/>
	<path display="inline" fill-rule="evenodd" clip-rule="evenodd" fill="#72BFB5" d="M112.968,312.267
		c-8.096,0-15.425,3.28-20.731,8.586s-8.587,12.636-8.587,20.732c0,8.096,3.282,15.426,8.587,20.731
		c5.306,5.305,12.635,8.586,20.731,8.586c8.097,0,15.426-3.281,20.732-8.586c5.305-5.305,8.586-12.635,8.586-20.731
		c0-8.097-3.282-15.427-8.586-20.732C128.395,315.547,121.065,312.267,112.968,312.267L112.968,312.267z M88.506,317.124
		c6.261-6.262,14.91-10.134,24.462-10.134c9.553,0,18.203,3.872,24.462,10.134c6.261,6.26,10.133,14.909,10.133,24.462
		c0,9.552-3.873,18.201-10.133,24.461c-6.26,6.262-14.909,10.133-24.462,10.133c-9.552,0-18.202-3.871-24.462-10.133
		c-6.26-6.26-10.132-14.91-10.132-24.461C78.374,332.033,82.246,323.383,88.506,317.124L88.506,317.124z M160.749,293.805v95.56
		H65.188v-95.56H160.749z"/>
</g>
<g display="none">
	<path display="inline" fill-rule="evenodd" clip-rule="evenodd" fill="#1E5D7E" d="M218.035,394.16V280.914h21.054v48.983
		l35.655-48.983h24.703l-42.701,55.717l42.701,57.529h-24.703l-35.655-49.662v49.662H218.035L218.035,394.16z M634.647,366.619
		h22.864c-3.141,8.718-7.81,15.563-13.979,20.572c-3.82,3.113-8.262,5.548-13.327,7.329c-5.038,1.783-10.075,2.66-15.113,2.66
		c-8.516,0-16.693-2.488-24.533-7.47c-6.848-4.387-12.055-10.159-15.647-17.347c-3.311-6.481-4.981-13.441-4.981-20.855
		c0-13.215,4.951-24.278,14.828-33.192c8.687-7.868,18.762-11.802,30.25-11.802c11.885,0,22.214,4.103,30.986,12.311
		c2.942,2.743,5.234,5.488,6.876,8.177c1.669,2.688,3.228,6.196,4.641,10.582h-22.864c-2.548-4.442-5.349-7.612-8.404-9.535
		c-3.084-1.897-6.849-2.859-11.318-2.859c-6.141,0-11.488,1.98-16.073,5.97c-5.688,4.923-8.547,11.828-8.547,20.686
		c0,7.811,2.576,14.29,7.697,19.441c4.698,4.811,10.641,7.216,17.827,7.216C623.497,378.505,629.78,374.542,634.647,366.619
		L634.647,366.619z M520.141,306.516c13.329,0,24.478,5.01,33.506,15.026c7.611,8.404,11.431,18.479,11.431,30.222
		c0,14.008-5.178,25.44-15.506,34.297c-8.603,7.415-18.593,11.12-29.912,11.12c-7.187,0-14.092-1.782-20.713-5.32
		c-7.244-3.819-12.988-9.139-17.234-15.93c-4.641-7.414-6.96-15.707-6.96-24.819c0-12.79,5.037-23.769,15.082-32.881
		C498.154,310.646,508.285,306.743,520.141,306.516L520.141,306.516z M520.084,325.192c-7.301,0-13.582,3.085-18.817,9.226
		c-4.103,4.753-6.141,10.47-6.141,17.091c0,8.97,3.057,16.044,9.196,21.195c4.584,3.877,9.82,5.801,15.678,5.801
		c7.584,0,13.725-2.914,18.478-8.716c4.161-5.037,6.227-10.95,6.227-17.687c0-8.432-3.028-15.337-9.112-20.77
		C531.12,327.343,525.942,325.305,520.084,325.192L520.084,325.192z M380.289,394.295V281.048h20.373v36.136
		c6.849-7.103,15.677-10.668,26.515-10.668c7.896,0,15.423,2.236,22.524,6.736c6.709,4.243,11.801,10.271,15.339,18.081
		c3.141,6.818,4.726,13.695,4.726,20.686c0,5.32-0.906,10.612-2.746,15.933c-1.812,5.317-4.357,9.989-7.61,14.036
		c-8.009,10.127-18.593,15.193-31.779,15.193c-5.801,0-10.979-1.02-15.506-3.085c-4.529-2.065-8.914-5.376-13.159-9.988v10.188
		H380.289L380.289,394.295z M424.602,325.192c-7.074,0-13.044,2.517-17.912,7.554c-4.923,5.094-7.387,11.321-7.387,18.679
		c0,8.743,3.057,15.762,9.199,21.023c4.695,4.047,10.215,6.057,16.495,6.057c7.048,0,12.876-2.519,17.518-7.557
		c4.583-4.979,6.876-11.403,6.876-19.269c0-7.472-2.208-13.612-6.622-18.423C437.902,327.995,431.846,325.305,424.602,325.192
		L424.602,325.192z M349.575,309.401v43.438c0,8.404-1.47,14.771-4.442,19.129s-7.329,6.537-13.044,6.537
		c-5.944,0-10.556-2.546-13.838-7.612c-2.433-3.82-3.649-9.82-3.649-18.054v-43.438h-20.375v49.833
		c0,6.962,0.792,12.593,2.405,16.952c1.614,4.329,4.329,8.261,8.15,11.798c6.792,6.141,14.941,9.197,24.393,9.197
		c4.896,0,8.941-0.819,12.168-2.488c3.255-1.644,6.566-4.585,9.933-8.774v8.377h18.676v-84.894H349.575z"/>
	<path display="inline" fill-rule="evenodd" clip-rule="evenodd" fill="#72BFB5" d="M59.868,275.36h122.325h2.525v2.524v122.325
		v2.525h-2.525H59.868h-2.525v-2.525V277.884v-2.524H59.868L59.868,275.36z M179.667,280.409H62.393v117.275h117.275V280.409z"/>
	<path display="inline" fill-rule="evenodd" clip-rule="evenodd" fill="#02AFF1" d="M121.03,310.991
		c-7.748,0-14.762,3.14-19.839,8.217c-5.077,5.077-8.217,12.091-8.217,19.839c0,7.747,3.14,14.761,8.217,19.839
		c5.077,5.077,12.091,8.217,19.839,8.217c7.748,0,14.762-3.14,19.839-8.217c5.077-5.077,8.217-12.092,8.217-19.839
		c0-7.748-3.14-14.762-8.217-19.839C135.792,314.131,128.778,310.991,121.03,310.991L121.03,310.991z M97.621,315.637
		c5.991-5.99,14.268-9.696,23.409-9.696c9.142,0,17.419,3.706,23.409,9.696c5.991,5.992,9.697,14.268,9.697,23.41
		s-3.706,17.418-9.697,23.409c-5.99,5.99-14.267,9.696-23.409,9.696c-9.142,0-17.418-3.706-23.409-9.696
		c-5.991-5.991-9.697-14.267-9.697-23.409S91.63,321.628,97.621,315.637L97.621,315.637z M166.754,293.324v91.447H75.307v-91.447
		H166.754z"/>
</g>
<g display="none">
	<path display="inline" fill-rule="evenodd" clip-rule="evenodd" fill="#1A1A1A" d="M231.059,420.931V316.174h19.476v45.312
		l32.981-45.312h22.851l-39.5,51.541l39.5,53.216h-22.851l-32.981-45.938v45.938H231.059L231.059,420.931z M616.436,395.454h21.149
		c-2.905,8.064-7.225,14.398-12.931,19.03c-3.534,2.88-7.643,5.13-12.328,6.781c-4.66,1.647-9.319,2.459-13.979,2.459
		c-7.877,0-15.441-2.304-22.693-6.911c-6.335-4.056-11.151-9.396-14.475-16.045c-3.063-5.995-4.608-12.434-4.608-19.292
		c0-12.224,4.58-22.458,13.716-30.703c8.036-7.278,17.355-10.917,27.982-10.917c10.994,0,20.548,3.795,28.663,11.388
		c2.722,2.538,4.843,5.078,6.361,7.565c1.544,2.486,2.984,5.732,4.292,9.789h-21.149c-2.357-4.108-4.948-7.041-7.774-8.82
		c-2.854-1.755-6.335-2.644-10.471-2.644c-5.68,0-10.627,1.832-14.867,5.522c-5.263,4.555-7.906,10.941-7.906,19.134
		c0,7.226,2.383,13.219,7.119,17.985c4.347,4.449,9.844,6.674,16.491,6.674C606.121,406.449,611.933,402.783,616.436,395.454
		L616.436,395.454z M510.514,339.856c12.329,0,22.643,4.634,30.993,13.899c7.041,7.774,10.574,17.094,10.574,27.957
		c0,12.957-4.789,23.531-14.344,31.726c-7.958,6.857-17.198,10.286-27.67,10.286c-6.647,0-13.034-1.65-19.159-4.921
		c-6.701-3.535-12.015-8.454-15.942-14.736c-4.292-6.858-6.438-14.528-6.438-22.958c0-11.83,4.659-21.986,13.95-30.416
		C490.176,343.678,499.546,340.066,510.514,339.856L510.514,339.856z M510.461,357.134c-6.753,0-12.563,2.854-17.406,8.534
		c-3.795,4.396-5.681,9.684-5.681,15.809c0,8.298,2.828,14.843,8.507,19.604c4.241,3.588,9.085,5.368,14.502,5.368
		c7.016,0,12.696-2.695,17.093-8.063c3.849-4.659,5.76-10.13,5.76-16.361c0-7.8-2.802-14.186-8.429-19.211
		C520.67,359.123,515.88,357.238,510.461,357.134L510.461,357.134z M381.146,421.055V316.299h18.847v33.426
		c6.335-6.57,14.501-9.869,24.526-9.869c7.304,0,14.266,2.068,20.836,6.231c6.205,3.925,10.916,9.501,14.188,16.727
		c2.905,6.307,4.371,12.667,4.371,19.133c0,4.922-0.838,9.817-2.54,14.739c-1.676,4.919-4.031,9.238-7.039,12.982
		c-7.409,9.369-17.199,14.056-29.396,14.056c-5.366,0-10.156-0.941-14.345-2.854c-4.189-1.911-8.245-4.972-12.172-9.239v9.423
		H381.146L381.146,421.055z M422.138,357.134c-6.545,0-12.066,2.328-16.569,6.987c-4.554,4.713-6.833,10.473-6.833,17.277
		c0,8.088,2.828,14.581,8.51,19.448c4.344,3.743,9.448,5.603,15.258,5.603c6.52,0,11.911-2.33,16.205-6.991
		c4.239-4.604,6.359-10.548,6.359-17.823c0-6.912-2.042-12.592-6.125-17.041C434.44,359.725,428.838,357.238,422.138,357.134
		L422.138,357.134z M352.736,342.526v40.181c0,7.773-1.36,13.664-4.109,17.695c-2.749,4.03-6.779,6.047-12.066,6.047
		c-5.499,0-9.764-2.355-12.801-7.042c-2.25-3.534-3.375-9.084-3.375-16.7v-40.181h-18.848v46.097c0,6.439,0.733,11.649,2.225,15.68
		c1.493,4.004,4.005,7.642,7.539,10.916c6.283,5.679,13.821,8.506,22.563,8.506c4.53,0,8.271-0.759,11.256-2.304
		c3.011-1.518,6.074-4.239,9.188-8.114v7.748h17.276v-78.529H352.736z"/>
	<path display="inline" fill-rule="evenodd" clip-rule="evenodd" fill="#1A1A1A" d="M84.75,311.037h113.153h2.336v2.336v113.154
		v2.334h-2.336H84.75h-2.336v-2.334V313.373v-2.336H84.75L84.75,311.037z M195.568,315.708H87.085v108.482h108.482V315.708z"/>
	<path display="inline" fill-rule="evenodd" clip-rule="evenodd" fill="#1A1A1A" d="M141.327,343.996
		c-7.167,0-13.655,2.905-18.352,7.601c-4.696,4.697-7.601,11.185-7.601,18.352c0,7.166,2.905,13.654,7.601,18.352
		c4.697,4.695,11.185,7.601,18.352,7.601c7.167,0,13.655-2.905,18.352-7.601c4.696-4.695,7.601-11.186,7.601-18.352
		c0-7.167-2.905-13.656-7.601-18.352C154.982,346.901,148.494,343.996,141.327,343.996L141.327,343.996z M119.672,348.295
		c5.542-5.542,13.198-8.97,21.654-8.97c8.457,0,16.113,3.428,21.654,8.97c5.542,5.542,8.97,13.197,8.97,21.654
		c0,8.456-3.428,16.112-8.97,21.653c-5.542,5.542-13.198,8.971-21.654,8.971c-8.456,0-16.112-3.429-21.654-8.971
		c-5.542-5.541-8.969-13.197-8.969-21.653C110.703,361.492,114.131,353.836,119.672,348.295L119.672,348.295z M183.622,327.654
		v84.591h-84.59v-84.591H183.622z"/>
</g>
</svg>
