<?xml version="1.0" encoding="utf-8"?>
<!-- Generator: Adobe Illustrator 16.0.0, SVG Export Plug-In . SVG Version: 6.00 Build 0)  -->
<!DOCTYPE svg PUBLIC "-//W3C//DTD SVG 1.1//EN" "http://www.w3.org/Graphics/SVG/1.1/DTD/svg11.dtd">
<svg version="1.1" id="Layer_1" xmlns="http://www.w3.org/2000/svg" xmlns:xlink="http://www.w3.org/1999/xlink" x="0px" y="0px"
	 width="720px" height="720px" viewBox="0 0 720 720" enable-background="new 0 0 720 720" xml:space="preserve">
<g display="none">
	<path display="inline" fill-rule="evenodd" clip-rule="evenodd" fill="#1E5D7E" d="M266.807,670.479v-73.624h13.688v31.845
		l23.18-31.845h16.06l-27.761,36.223l27.761,37.401h-16.06l-23.18-32.286v32.286H266.807L266.807,670.479z M537.651,652.573h14.865
		c-2.042,5.667-5.078,10.118-9.088,13.374c-2.483,2.023-5.371,3.606-8.665,4.766c-3.274,1.159-6.549,1.729-9.824,1.729
		c-5.536,0-10.854-1.618-15.949-4.856c-4.452-2.851-7.837-6.604-10.173-11.276c-2.152-4.214-3.238-8.739-3.238-13.559
		c0-8.592,3.219-15.784,9.64-21.579c5.647-5.114,12.197-7.672,19.666-7.672c7.727,0,14.441,2.667,20.145,8.003
		c1.913,1.783,3.403,3.568,4.471,5.316c1.085,1.747,2.098,4.028,3.017,6.88h-14.865c-1.655-2.888-3.477-4.949-5.464-6.199
		c-2.004-1.233-4.451-1.857-7.357-1.857c-3.992,0-7.469,1.286-10.449,3.881c-3.698,3.2-5.557,7.689-5.557,13.447
		c0,5.078,1.674,9.29,5.004,12.64c3.055,3.128,6.918,4.69,11.59,4.69C530.403,660.3,534.487,657.724,537.651,652.573
		L537.651,652.573z M463.209,613.499c8.666,0,15.914,3.257,21.783,9.769c4.948,5.464,7.432,12.014,7.432,19.647
		c0,9.106-3.366,16.539-10.081,22.298c-5.593,4.819-12.087,7.229-19.446,7.229c-4.672,0-9.161-1.159-13.466-3.459
		c-4.709-2.483-8.444-5.94-11.204-10.356c-3.017-4.819-4.525-10.21-4.525-16.134c0-8.315,3.275-15.453,9.806-21.377
		C448.916,616.185,455.502,613.646,463.209,613.499L463.209,613.499z M463.173,625.642c-4.746,0-8.83,2.005-12.233,5.997
		c-2.668,3.09-3.992,6.807-3.992,11.111c0,5.831,1.987,10.431,5.979,13.778c2.98,2.521,6.385,3.771,10.192,3.771
		c4.931,0,8.923-1.894,12.013-5.666c2.705-3.274,4.048-7.119,4.048-11.498c0-5.482-1.969-9.971-5.924-13.503
		C470.348,627.039,466.981,625.714,463.173,625.642L463.173,625.642z M372.29,670.565v-73.624h13.245v23.493
		c4.452-4.618,10.191-6.936,17.237-6.936c5.133,0,10.026,1.453,14.644,4.379c4.361,2.759,7.672,6.678,9.972,11.755
		c2.042,4.433,3.071,8.903,3.071,13.448c0,3.459-0.588,6.899-1.784,10.357c-1.178,3.458-2.833,6.494-4.947,9.125
		c-5.207,6.585-12.088,9.878-20.66,9.878c-3.771,0-7.138-0.662-10.081-2.005c-2.944-1.343-5.795-3.495-8.555-6.494v6.623H372.29
		L372.29,670.565z M401.099,625.642c-4.6,0-8.48,1.636-11.646,4.911c-3.2,3.312-4.802,7.359-4.802,12.143
		c0,5.684,1.987,10.247,5.98,13.668c3.053,2.631,6.641,3.937,10.724,3.937c4.581,0,8.371-1.637,11.388-4.912
		c2.98-3.237,4.471-7.414,4.471-12.527c0-4.857-1.436-8.85-4.305-11.977C409.745,627.463,405.808,625.714,401.099,625.642
		L401.099,625.642z M352.322,615.375v28.239c0,5.464-0.956,9.603-2.888,12.436s-4.765,4.25-8.48,4.25
		c-3.864,0-6.862-1.655-8.997-4.948c-1.582-2.484-2.373-6.385-2.373-11.737v-28.239h-13.246v32.396
		c0,4.526,0.515,8.188,1.563,11.021c1.049,2.814,2.814,5.371,5.298,7.671c4.416,3.992,9.714,5.979,15.858,5.979
		c3.184,0,5.813-0.533,7.911-1.618c2.116-1.067,4.269-2.979,6.458-5.703v5.445h12.142v-55.19H352.322z"/>
	<path display="inline" fill-rule="evenodd" clip-rule="evenodd" fill="#1E5D7E" d="M163.979,593.244h79.525h1.641v1.642v79.524
		v1.642h-1.641h-79.525h-1.641v-1.642v-79.524v-1.642H163.979L163.979,593.244z M241.863,596.526h-76.242v76.242h76.242V596.526z"/>
	<path display="inline" fill-rule="evenodd" clip-rule="evenodd" fill="#02AFF1" d="M203.742,616.408
		c-5.037,0-9.597,2.041-12.897,5.342s-5.342,7.86-5.342,12.897s2.042,9.598,5.342,12.897c3.301,3.301,7.861,5.343,12.897,5.343
		s9.597-2.042,12.897-5.343c3.301-3.3,5.342-7.86,5.342-12.897s-2.042-9.597-5.342-12.897
		C213.339,618.449,208.779,616.408,203.742,616.408L203.742,616.408z M188.523,619.429c3.895-3.895,9.276-6.304,15.219-6.304
		c5.943,0,11.324,2.409,15.219,6.304c3.895,3.896,6.304,9.276,6.304,15.219c0,5.943-2.409,11.324-6.304,15.219
		s-9.275,6.304-15.219,6.304c-5.943,0-11.324-2.409-15.219-6.304s-6.304-9.275-6.304-15.219
		C182.22,628.705,184.629,623.323,188.523,619.429L188.523,619.429z M233.467,604.923v59.45h-59.45v-59.45H233.467z"/>
</g>
<g display="none">
	<path display="inline" fill-rule="evenodd" clip-rule="evenodd" fill="#1E5D7E" d="M266.807,571.944V498.32h13.688v31.846
		l23.18-31.846h16.06l-27.761,36.224l27.761,37.4h-16.06l-23.18-32.286v32.286H266.807L266.807,571.944z M537.652,554.039h14.864
		c-2.042,5.667-5.077,10.118-9.088,13.375c-2.483,2.023-5.371,3.606-8.664,4.765c-3.275,1.159-6.55,1.729-9.825,1.729
		c-5.536,0-10.853-1.618-15.949-4.856c-4.452-2.852-7.837-6.604-10.173-11.277c-2.152-4.214-3.238-8.738-3.238-13.559
		c0-8.591,3.219-15.784,9.64-21.579c5.647-5.114,12.197-7.672,19.666-7.672c7.727,0,14.441,2.668,20.145,8.004
		c1.913,1.783,3.403,3.567,4.471,5.316c1.085,1.746,2.098,4.028,3.017,6.879h-14.864c-1.656-2.888-3.478-4.948-5.464-6.199
		c-2.005-1.233-4.452-1.857-7.358-1.857c-3.992,0-7.469,1.287-10.449,3.881c-3.698,3.201-5.557,7.689-5.557,13.448
		c0,5.077,1.675,9.29,5.004,12.639c3.055,3.128,6.918,4.691,11.59,4.691C530.403,561.767,534.488,559.19,537.652,554.039
		L537.652,554.039z M463.21,514.965c8.665,0,15.913,3.257,21.782,9.769c4.948,5.464,7.432,12.014,7.432,19.648
		c0,9.106-3.366,16.538-10.081,22.297c-5.593,4.819-12.087,7.229-19.446,7.229c-4.672,0-9.161-1.159-13.466-3.459
		c-4.709-2.483-8.443-5.941-11.204-10.356c-3.017-4.82-4.524-10.211-4.524-16.135c0-8.315,3.274-15.453,9.805-21.377
		C448.916,517.65,455.502,515.112,463.21,514.965L463.21,514.965z M463.173,527.107c-4.746,0-8.83,2.005-12.233,5.997
		c-2.667,3.09-3.992,6.807-3.992,11.111c0,5.831,1.987,10.431,5.979,13.778c2.98,2.521,6.385,3.772,10.192,3.772
		c4.931,0,8.923-1.895,12.013-5.666c2.705-3.275,4.048-7.12,4.048-11.499c0-5.481-1.969-9.971-5.924-13.502
		C470.348,528.505,466.981,527.181,463.173,527.107L463.173,527.107z M372.29,572.032v-73.624h13.245V521.9
		c4.452-4.617,10.191-6.936,17.237-6.936c5.133,0,10.026,1.454,14.644,4.379c4.361,2.759,7.672,6.678,9.972,11.756
		c2.042,4.433,3.072,8.903,3.072,13.447c0,3.459-0.589,6.899-1.785,10.358c-1.178,3.457-2.833,6.493-4.947,9.124
		c-5.207,6.585-12.088,9.879-20.66,9.879c-3.771,0-7.138-0.663-10.081-2.006c-2.944-1.343-5.795-3.495-8.555-6.493v6.623H372.29
		L372.29,572.032z M401.099,527.107c-4.6,0-8.48,1.636-11.646,4.911c-3.2,3.312-4.802,7.359-4.802,12.143
		c0,5.685,1.987,10.247,5.98,13.668c3.053,2.631,6.641,3.938,10.724,3.938c4.582,0,8.371-1.638,11.389-4.913
		c2.979-3.236,4.47-7.414,4.47-12.526c0-4.857-1.436-8.85-4.305-11.978C409.745,528.929,405.808,527.181,401.099,527.107
		L401.099,527.107z M352.322,516.841v28.239c0,5.464-0.956,9.604-2.888,12.437s-4.765,4.25-8.48,4.25
		c-3.864,0-6.862-1.656-8.997-4.949c-1.582-2.483-2.373-6.384-2.373-11.737v-28.239h-13.246v32.397c0,4.525,0.515,8.187,1.563,11.02
		c1.049,2.814,2.814,5.371,5.298,7.671c4.416,3.992,9.714,5.979,15.858,5.979c3.184,0,5.813-0.533,7.911-1.618
		c2.116-1.068,4.269-2.98,6.458-5.704v5.446h12.142v-55.191H352.322z"/>
	<path display="inline" fill-rule="evenodd" clip-rule="evenodd" fill="#02AFF1" d="M163.98,494.71h79.525h1.642v1.642v79.524v1.642
		h-1.642H163.98h-1.642v-1.642v-79.524v-1.642H163.98L163.98,494.71z M241.863,497.993h-76.242v76.241h76.242V497.993z"/>
	<path display="inline" fill-rule="evenodd" clip-rule="evenodd" fill="#72BFB5" d="M203.742,517.874
		c-5.037,0-9.597,2.042-12.897,5.343c-3.301,3.3-5.342,7.86-5.342,12.897c0,5.036,2.042,9.597,5.342,12.897
		s7.861,5.342,12.897,5.342c5.037,0,9.597-2.041,12.898-5.342c3.3-3.301,5.342-7.861,5.342-12.897c0-5.037-2.042-9.598-5.342-12.897
		C213.339,519.916,208.779,517.874,203.742,517.874L203.742,517.874z M188.523,520.896c3.895-3.896,9.276-6.304,15.219-6.304
		c5.943,0,11.324,2.408,15.219,6.304c3.895,3.895,6.304,9.275,6.304,15.219c0,5.942-2.409,11.323-6.304,15.219
		c-3.895,3.895-9.275,6.304-15.219,6.304c-5.943,0-11.324-2.409-15.219-6.304c-3.895-3.895-6.304-9.276-6.304-15.219
		C182.22,530.171,184.629,524.79,188.523,520.896L188.523,520.896z M233.468,506.389v59.45h-59.451v-59.45H233.468z"/>
</g>
<g display="none">
	<path display="inline" fill-rule="evenodd" clip-rule="evenodd" fill="#1E5D7E" d="M266.807,473.411v-73.624h13.688v31.846
		l23.18-31.846h16.06l-27.761,36.224l27.761,37.4h-16.06l-23.18-32.286v32.286H266.807L266.807,473.411z M537.652,455.506h14.864
		c-2.042,5.667-5.077,10.118-9.088,13.375c-2.483,2.022-5.371,3.605-8.664,4.765c-3.275,1.159-6.55,1.729-9.825,1.729
		c-5.536,0-10.853-1.618-15.949-4.856c-4.452-2.851-7.837-6.604-10.173-11.276c-2.152-4.214-3.238-8.739-3.238-13.559
		c0-8.592,3.219-15.784,9.64-21.579c5.647-5.114,12.197-7.672,19.666-7.672c7.727,0,14.441,2.667,20.145,8.003
		c1.913,1.784,3.403,3.568,4.471,5.316c1.085,1.747,2.098,4.029,3.017,6.88h-14.864c-1.656-2.888-3.478-4.948-5.464-6.199
		c-2.005-1.233-4.452-1.857-7.358-1.857c-3.992,0-7.469,1.287-10.449,3.881c-3.698,3.201-5.557,7.689-5.557,13.447
		c0,5.078,1.675,9.291,5.004,12.64c3.055,3.128,6.918,4.691,11.59,4.691C530.403,463.233,534.488,460.657,537.652,455.506
		L537.652,455.506z M463.21,416.432c8.665,0,15.913,3.257,21.782,9.769c4.948,5.464,7.432,12.014,7.432,19.647
		c0,9.106-3.366,16.539-10.081,22.298c-5.593,4.819-12.087,7.229-19.446,7.229c-4.672,0-9.161-1.159-13.466-3.459
		c-4.709-2.483-8.443-5.94-11.204-10.356c-3.017-4.819-4.524-10.21-4.524-16.135c0-8.314,3.274-15.452,9.805-21.376
		C448.916,419.117,455.502,416.579,463.21,416.432L463.21,416.432z M463.173,428.574c-4.746,0-8.83,2.005-12.233,5.997
		c-2.667,3.09-3.992,6.807-3.992,11.111c0,5.831,1.987,10.431,5.979,13.778c2.98,2.521,6.385,3.772,10.192,3.772
		c4.931,0,8.923-1.895,12.013-5.666c2.705-3.275,4.048-7.12,4.048-11.499c0-5.482-1.969-9.971-5.924-13.502
		C470.348,429.972,466.981,428.647,463.173,428.574L463.173,428.574z M372.29,473.498v-73.623h13.245v23.492
		c4.452-4.618,10.191-6.936,17.237-6.936c5.133,0,10.026,1.453,14.644,4.379c4.361,2.759,7.672,6.678,9.972,11.756
		c2.042,4.433,3.072,8.902,3.072,13.447c0,3.459-0.589,6.899-1.785,10.358c-1.178,3.457-2.833,6.493-4.947,9.124
		c-5.207,6.585-12.088,9.878-20.66,9.878c-3.771,0-7.138-0.662-10.081-2.005c-2.944-1.343-5.795-3.495-8.555-6.494v6.623H372.29
		L372.29,473.498z M401.099,428.574c-4.6,0-8.48,1.636-11.646,4.911c-3.2,3.312-4.802,7.359-4.802,12.143
		c0,5.684,1.987,10.247,5.98,13.668c3.053,2.631,6.641,3.938,10.724,3.938c4.582,0,8.371-1.638,11.389-4.913
		c2.979-3.236,4.47-7.414,4.47-12.527c0-4.857-1.436-8.849-4.305-11.977C409.745,430.396,405.808,428.647,401.099,428.574
		L401.099,428.574z M352.322,418.308v28.239c0,5.464-0.956,9.604-2.888,12.437c-1.932,2.832-4.765,4.25-8.48,4.25
		c-3.864,0-6.862-1.656-8.997-4.949c-1.582-2.483-2.373-6.385-2.373-11.737v-28.239h-13.246v32.396
		c0,4.526,0.515,8.188,1.563,11.021c1.049,2.814,2.814,5.371,5.298,7.671c4.416,3.992,9.714,5.979,15.858,5.979
		c3.184,0,5.813-0.533,7.911-1.618c2.116-1.067,4.269-2.979,6.458-5.703v5.445h12.142v-55.19H352.322z"/>
	<path display="inline" fill-rule="evenodd" clip-rule="evenodd" fill="#1E5D7E" d="M163.98,396.177h79.525h1.642v1.642v79.524
		v1.642h-1.642H163.98h-1.642v-1.642v-79.524v-1.642H163.98L163.98,396.177z M241.863,399.459h-76.242v76.242h76.242V399.459z"/>
	<path display="inline" fill-rule="evenodd" clip-rule="evenodd" fill="#72BFB5" d="M203.742,419.341
		c-5.037,0-9.597,2.041-12.897,5.342s-5.342,7.861-5.342,12.898c0,5.036,2.042,9.597,5.342,12.897
		c3.301,3.3,7.861,5.342,12.897,5.342c5.037,0,9.597-2.042,12.898-5.342c3.3-3.301,5.342-7.861,5.342-12.897
		c0-5.037-2.042-9.598-5.342-12.898C213.339,421.382,208.779,419.341,203.742,419.341L203.742,419.341z M188.523,422.362
		c3.895-3.896,9.276-6.305,15.219-6.305c5.943,0,11.324,2.409,15.219,6.305c3.895,3.895,6.304,9.275,6.304,15.219
		c0,5.942-2.409,11.323-6.304,15.218c-3.895,3.896-9.275,6.305-15.219,6.305c-5.943,0-11.324-2.409-15.219-6.305
		c-3.895-3.895-6.304-9.275-6.304-15.218C182.22,431.638,184.629,426.257,188.523,422.362L188.523,422.362z M233.468,407.855v59.45
		h-59.451v-59.45H233.468z"/>
</g>
<g display="none">
	<path display="inline" fill-rule="evenodd" clip-rule="evenodd" fill="#1E5D7E" d="M266.807,374.877v-73.623h13.688v31.845
		l23.18-31.845h16.06l-27.761,36.223l27.761,37.4h-16.06l-23.18-32.286v32.286H266.807L266.807,374.877z M537.652,356.972h14.864
		c-2.042,5.667-5.077,10.118-9.088,13.375c-2.483,2.023-5.371,3.606-8.664,4.765c-3.275,1.159-6.55,1.729-9.825,1.729
		c-5.536,0-10.853-1.618-15.949-4.856c-4.452-2.852-7.837-6.604-10.173-11.277c-2.152-4.213-3.238-8.738-3.238-13.558
		c0-8.591,3.219-15.784,9.64-21.579c5.647-5.115,12.197-7.672,19.666-7.672c7.727,0,14.441,2.667,20.145,8.003
		c1.913,1.783,3.403,3.568,4.471,5.316c1.085,1.747,2.098,4.028,3.017,6.879h-14.864c-1.656-2.888-3.478-4.949-5.464-6.199
		c-2.005-1.233-4.452-1.858-7.358-1.858c-3.992,0-7.469,1.287-10.449,3.881c-3.698,3.201-5.557,7.689-5.557,13.448
		c0,5.078,1.675,9.29,5.004,12.639c3.055,3.127,6.918,4.691,11.59,4.691C530.403,364.699,534.488,362.123,537.652,356.972
		L537.652,356.972z M463.21,317.898c8.665,0,15.913,3.257,21.782,9.769c4.948,5.463,7.432,12.014,7.432,19.648
		c0,9.106-3.366,16.539-10.081,22.297c-5.593,4.82-12.087,7.229-19.446,7.229c-4.672,0-9.161-1.159-13.466-3.459
		c-4.709-2.483-8.443-5.941-11.204-10.356c-3.017-4.82-4.524-10.211-4.524-16.135c0-8.315,3.274-15.453,9.805-21.376
		C448.916,320.583,455.502,318.045,463.21,317.898L463.21,317.898z M463.173,330.04c-4.746,0-8.83,2.005-12.233,5.998
		c-2.667,3.09-3.992,6.807-3.992,11.111c0,5.832,1.987,10.431,5.979,13.779c2.98,2.521,6.385,3.771,10.192,3.771
		c4.931,0,8.923-1.895,12.013-5.666c2.705-3.275,4.048-7.119,4.048-11.499c0-5.482-1.969-9.971-5.924-13.502
		C470.348,331.438,466.981,330.113,463.173,330.04L463.173,330.04z M372.29,374.965v-73.624h13.245v23.493
		c4.452-4.618,10.191-6.936,17.237-6.936c5.133,0,10.026,1.454,14.644,4.379c4.361,2.758,7.672,6.677,9.972,11.755
		c2.042,4.433,3.072,8.903,3.072,13.448c0,3.459-0.589,6.899-1.785,10.358c-1.178,3.457-2.833,6.494-4.947,9.125
		c-5.207,6.584-12.088,9.878-20.66,9.878c-3.771,0-7.138-0.663-10.081-2.006c-2.944-1.343-5.795-3.495-8.555-6.493v6.623H372.29
		L372.29,374.965z M401.099,330.04c-4.6,0-8.48,1.636-11.646,4.911c-3.2,3.312-4.802,7.36-4.802,12.143
		c0,5.684,1.987,10.247,5.98,13.667c3.053,2.631,6.641,3.938,10.724,3.938c4.582,0,8.371-1.638,11.389-4.913
		c2.979-3.237,4.47-7.414,4.47-12.527c0-4.857-1.436-8.85-4.305-11.977C409.745,331.862,405.808,330.113,401.099,330.04
		L401.099,330.04z M352.322,319.774v28.239c0,5.464-0.956,9.603-2.888,12.436s-4.765,4.25-8.48,4.25
		c-3.864,0-6.862-1.655-8.997-4.949c-1.582-2.484-2.373-6.384-2.373-11.737v-28.239h-13.246v32.397
		c0,4.526,0.515,8.187,1.563,11.021c1.049,2.814,2.814,5.37,5.298,7.67c4.416,3.992,9.714,5.979,15.858,5.979
		c3.184,0,5.813-0.533,7.911-1.618c2.116-1.068,4.269-2.98,6.458-5.704v5.446h12.142v-55.191H352.322z"/>
	<path display="inline" fill-rule="evenodd" clip-rule="evenodd" fill="#72BFB5" d="M163.98,297.643h79.525h1.642v1.641v79.525
		v1.642h-1.642H163.98h-1.642v-1.642v-79.525v-1.641H163.98L163.98,297.643z M241.863,300.926h-76.242v76.242h76.242V300.926z"/>
	<path display="inline" fill-rule="evenodd" clip-rule="evenodd" fill="#02AFF1" d="M203.742,320.807
		c-5.037,0-9.597,2.042-12.897,5.342c-3.301,3.3-5.342,7.86-5.342,12.897c0,5.037,2.042,9.597,5.342,12.897
		s7.861,5.342,12.897,5.342c5.037,0,9.597-2.041,12.898-5.342c3.3-3.3,5.342-7.861,5.342-12.897c0-5.037-2.042-9.597-5.342-12.897
		C213.339,322.849,208.779,320.807,203.742,320.807L203.742,320.807z M188.523,323.828c3.895-3.895,9.276-6.304,15.219-6.304
		c5.943,0,11.324,2.409,15.219,6.304c3.895,3.895,6.304,9.275,6.304,15.219s-2.409,11.324-6.304,15.219
		c-3.895,3.895-9.275,6.304-15.219,6.304c-5.943,0-11.324-2.409-15.219-6.304c-3.895-3.895-6.304-9.275-6.304-15.219
		S184.629,327.723,188.523,323.828L188.523,323.828z M233.468,309.322v59.451h-59.451v-59.451H233.468z"/>
</g>
<g>
	<path fill-rule="evenodd" clip-rule="evenodd" fill="#1A1A1A" d="M231.059,420.931V316.174h19.476v45.312l32.981-45.312h22.851
		l-39.5,51.541l39.5,53.216h-22.851l-32.981-45.938v45.938H231.059L231.059,420.931z M616.436,395.454h21.149
		c-2.905,8.064-7.225,14.398-12.931,19.03c-3.534,2.88-7.643,5.13-12.328,6.781c-4.66,1.647-9.319,2.459-13.979,2.459
		c-7.877,0-15.441-2.304-22.693-6.911c-6.335-4.056-11.151-9.396-14.475-16.045c-3.063-5.995-4.608-12.434-4.608-19.292
		c0-12.224,4.58-22.458,13.716-30.703c8.036-7.278,17.355-10.917,27.982-10.917c10.994,0,20.548,3.795,28.663,11.388
		c2.722,2.538,4.843,5.078,6.361,7.565c1.544,2.486,2.984,5.732,4.292,9.789h-21.149c-2.357-4.108-4.948-7.041-7.774-8.82
		c-2.854-1.755-6.335-2.644-10.471-2.644c-5.68,0-10.627,1.832-14.867,5.522c-5.263,4.555-7.906,10.941-7.906,19.134
		c0,7.226,2.383,13.219,7.119,17.985c4.347,4.449,9.844,6.674,16.491,6.674C606.121,406.449,611.933,402.783,616.436,395.454
		L616.436,395.454z M510.514,339.856c12.329,0,22.643,4.634,30.993,13.899c7.041,7.774,10.574,17.094,10.574,27.957
		c0,12.957-4.789,23.531-14.344,31.726c-7.958,6.857-17.198,10.286-27.67,10.286c-6.647,0-13.034-1.65-19.159-4.921
		c-6.701-3.535-12.015-8.454-15.942-14.736c-4.292-6.858-6.438-14.528-6.438-22.958c0-11.83,4.659-21.986,13.95-30.416
		C490.176,343.678,499.546,340.066,510.514,339.856L510.514,339.856z M510.461,357.134c-6.753,0-12.563,2.854-17.406,8.534
		c-3.795,4.396-5.681,9.684-5.681,15.809c0,8.298,2.828,14.843,8.507,19.604c4.241,3.588,9.085,5.368,14.502,5.368
		c7.016,0,12.696-2.695,17.093-8.063c3.849-4.659,5.76-10.13,5.76-16.361c0-7.8-2.802-14.186-8.429-19.211
		C520.67,359.123,515.88,357.238,510.461,357.134L510.461,357.134z M381.146,421.055V316.299h18.847v33.426
		c6.335-6.57,14.501-9.869,24.526-9.869c7.304,0,14.266,2.068,20.836,6.231c6.205,3.925,10.916,9.501,14.188,16.727
		c2.905,6.307,4.371,12.667,4.371,19.133c0,4.922-0.838,9.817-2.54,14.739c-1.676,4.919-4.031,9.238-7.039,12.982
		c-7.409,9.369-17.199,14.056-29.396,14.056c-5.366,0-10.156-0.941-14.345-2.854c-4.189-1.911-8.245-4.972-12.172-9.239v9.423
		H381.146L381.146,421.055z M422.138,357.134c-6.545,0-12.066,2.328-16.569,6.987c-4.554,4.713-6.833,10.473-6.833,17.277
		c0,8.088,2.828,14.581,8.51,19.448c4.344,3.743,9.448,5.603,15.258,5.603c6.52,0,11.911-2.33,16.205-6.991
		c4.239-4.604,6.359-10.548,6.359-17.823c0-6.912-2.042-12.592-6.125-17.041C434.44,359.725,428.838,357.238,422.138,357.134
		L422.138,357.134z M352.736,342.526v40.181c0,7.773-1.36,13.664-4.109,17.695c-2.749,4.03-6.779,6.047-12.066,6.047
		c-5.499,0-9.764-2.355-12.801-7.042c-2.25-3.534-3.375-9.084-3.375-16.7v-40.181h-18.848v46.097c0,6.439,0.733,11.649,2.225,15.68
		c1.493,4.004,4.005,7.642,7.539,10.916c6.283,5.679,13.821,8.506,22.563,8.506c4.53,0,8.271-0.759,11.256-2.304
		c3.011-1.518,6.074-4.239,9.188-8.114v7.748h17.276v-78.529H352.736z"/>
	<path fill-rule="evenodd" clip-rule="evenodd" fill="#1A1A1A" d="M84.75,311.037h113.153h2.336v2.336v113.154v2.334h-2.336H84.75
		h-2.336v-2.334V313.373v-2.336H84.75L84.75,311.037z M195.568,315.708H87.085v108.482h108.482V315.708z"/>
	<path fill-rule="evenodd" clip-rule="evenodd" fill="#1A1A1A" d="M141.327,343.996c-7.167,0-13.655,2.905-18.352,7.601
		c-4.696,4.697-7.601,11.185-7.601,18.352c0,7.166,2.905,13.654,7.601,18.352c4.697,4.695,11.185,7.601,18.352,7.601
		c7.167,0,13.655-2.905,18.352-7.601c4.696-4.695,7.601-11.186,7.601-18.352c0-7.167-2.905-13.656-7.601-18.352
		C154.982,346.901,148.494,343.996,141.327,343.996L141.327,343.996z M119.672,348.295c5.542-5.542,13.198-8.97,21.654-8.97
		c8.457,0,16.113,3.428,21.654,8.97c5.542,5.542,8.97,13.197,8.97,21.654c0,8.456-3.428,16.112-8.97,21.653
		c-5.542,5.542-13.198,8.971-21.654,8.971c-8.456,0-16.112-3.429-21.654-8.971c-5.542-5.541-8.969-13.197-8.969-21.653
		C110.703,361.492,114.131,353.836,119.672,348.295L119.672,348.295z M183.622,327.654v84.591h-84.59v-84.591H183.622z"/>
</g>
</svg>
