<?xml version="1.0" encoding="utf-8"?>
<!-- Generator: Adobe Illustrator 16.0.0, SVG Export Plug-In . SVG Version: 6.00 Build 0)  -->
<!DOCTYPE svg PUBLIC "-//W3C//DTD SVG 1.1//EN" "http://www.w3.org/Graphics/SVG/1.1/DTD/svg11.dtd">
<svg version="1.1" id="Layer_1" xmlns="http://www.w3.org/2000/svg" xmlns:xlink="http://www.w3.org/1999/xlink" x="0px" y="0px"
	 width="720px" height="720px" viewBox="0 0 720 720" enable-background="new 0 0 720 720" xml:space="preserve">
<g display="none">
	<path display="inline" fill-rule="evenodd" clip-rule="evenodd" fill="#1E5D7E" d="M266.807,670.479v-73.624h13.688v31.845
		l23.18-31.845h16.06l-27.761,36.223l27.761,37.401h-16.06l-23.18-32.286v32.286H266.807L266.807,670.479z M537.651,652.573h14.865
		c-2.042,5.667-5.078,10.118-9.088,13.374c-2.483,2.023-5.371,3.606-8.665,4.766c-3.274,1.159-6.549,1.729-9.824,1.729
		c-5.536,0-10.854-1.618-15.949-4.856c-4.452-2.851-7.837-6.604-10.173-11.276c-2.152-4.214-3.238-8.739-3.238-13.559
		c0-8.592,3.219-15.784,9.64-21.579c5.647-5.114,12.197-7.672,19.666-7.672c7.727,0,14.441,2.667,20.145,8.003
		c1.913,1.783,3.403,3.568,4.471,5.316c1.085,1.747,2.098,4.028,3.017,6.88h-14.865c-1.655-2.888-3.477-4.949-5.464-6.199
		c-2.004-1.233-4.451-1.857-7.357-1.857c-3.992,0-7.469,1.286-10.449,3.881c-3.698,3.2-5.557,7.689-5.557,13.447
		c0,5.078,1.674,9.29,5.004,12.64c3.055,3.128,6.918,4.69,11.59,4.69C530.403,660.3,534.487,657.724,537.651,652.573
		L537.651,652.573z M463.209,613.499c8.666,0,15.914,3.257,21.783,9.769c4.948,5.464,7.432,12.014,7.432,19.647
		c0,9.106-3.366,16.539-10.081,22.298c-5.593,4.819-12.087,7.229-19.446,7.229c-4.672,0-9.161-1.159-13.466-3.459
		c-4.709-2.483-8.444-5.94-11.204-10.356c-3.017-4.819-4.525-10.21-4.525-16.134c0-8.315,3.275-15.453,9.806-21.377
		C448.916,616.185,455.502,613.646,463.209,613.499L463.209,613.499z M463.173,625.642c-4.746,0-8.83,2.005-12.233,5.997
		c-2.668,3.09-3.992,6.807-3.992,11.111c0,5.831,1.987,10.431,5.979,13.778c2.98,2.521,6.385,3.771,10.192,3.771
		c4.931,0,8.923-1.894,12.013-5.666c2.705-3.274,4.048-7.119,4.048-11.498c0-5.482-1.969-9.971-5.924-13.503
		C470.348,627.039,466.981,625.714,463.173,625.642L463.173,625.642z M372.29,670.565v-73.624h13.245v23.493
		c4.452-4.618,10.191-6.936,17.237-6.936c5.133,0,10.026,1.453,14.644,4.379c4.361,2.759,7.672,6.678,9.972,11.755
		c2.042,4.433,3.071,8.903,3.071,13.448c0,3.459-0.588,6.899-1.784,10.357c-1.178,3.458-2.833,6.494-4.947,9.125
		c-5.207,6.585-12.088,9.878-20.66,9.878c-3.771,0-7.138-0.662-10.081-2.005c-2.944-1.343-5.795-3.495-8.555-6.494v6.623H372.29
		L372.29,670.565z M401.099,625.642c-4.6,0-8.48,1.636-11.646,4.911c-3.2,3.312-4.802,7.359-4.802,12.143
		c0,5.684,1.987,10.247,5.98,13.668c3.053,2.631,6.641,3.937,10.724,3.937c4.581,0,8.371-1.637,11.388-4.912
		c2.98-3.237,4.471-7.414,4.471-12.527c0-4.857-1.436-8.85-4.305-11.977C409.745,627.463,405.808,625.714,401.099,625.642
		L401.099,625.642z M352.322,615.375v28.239c0,5.464-0.956,9.603-2.888,12.436s-4.765,4.25-8.48,4.25
		c-3.864,0-6.862-1.655-8.997-4.948c-1.582-2.484-2.373-6.385-2.373-11.737v-28.239h-13.246v32.396
		c0,4.526,0.515,8.188,1.563,11.021c1.049,2.814,2.814,5.371,5.298,7.671c4.416,3.992,9.714,5.979,15.858,5.979
		c3.184,0,5.813-0.533,7.911-1.618c2.116-1.067,4.269-2.979,6.458-5.703v5.445h12.142v-55.19H352.322z"/>
	<path display="inline" fill-rule="evenodd" clip-rule="evenodd" fill="#1E5D7E" d="M163.979,593.244h79.525h1.641v1.642v79.524
		v1.642h-1.641h-79.525h-1.641v-1.642v-79.524v-1.642H163.979L163.979,593.244z M241.863,596.526h-76.242v76.242h76.242V596.526z"/>
	<path display="inline" fill-rule="evenodd" clip-rule="evenodd" fill="#02AFF1" d="M203.742,616.408
		c-5.037,0-9.597,2.041-12.897,5.342s-5.342,7.86-5.342,12.897s2.042,9.598,5.342,12.897c3.301,3.301,7.861,5.343,12.897,5.343
		s9.597-2.042,12.897-5.343c3.301-3.3,5.342-7.86,5.342-12.897s-2.042-9.597-5.342-12.897
		C213.339,618.449,208.779,616.408,203.742,616.408L203.742,616.408z M188.523,619.429c3.895-3.895,9.276-6.304,15.219-6.304
		c5.943,0,11.324,2.409,15.219,6.304c3.895,3.896,6.304,9.276,6.304,15.219c0,5.943-2.409,11.324-6.304,15.219
		s-9.275,6.304-15.219,6.304c-5.943,0-11.324-2.409-15.219-6.304s-6.304-9.275-6.304-15.219
		C182.22,628.705,184.629,623.323,188.523,619.429L188.523,619.429z M233.467,604.923v59.45h-59.45v-59.45H233.467z"/>
</g>
<g display="none">
	<path display="inline" fill-rule="evenodd" clip-rule="evenodd" fill="#1E5D7E" d="M266.807,571.944V498.32h13.688v31.846
		l23.18-31.846h16.06l-27.761,36.224l27.761,37.4h-16.06l-23.18-32.286v32.286H266.807L266.807,571.944z M537.652,554.039h14.864
		c-2.042,5.667-5.077,10.118-9.088,13.375c-2.483,2.023-5.371,3.606-8.664,4.765c-3.275,1.159-6.55,1.729-9.825,1.729
		c-5.536,0-10.853-1.618-15.949-4.856c-4.452-2.852-7.837-6.604-10.173-11.277c-2.152-4.214-3.238-8.738-3.238-13.559
		c0-8.591,3.219-15.784,9.64-21.579c5.647-5.114,12.197-7.672,19.666-7.672c7.727,0,14.441,2.668,20.145,8.004
		c1.913,1.783,3.403,3.567,4.471,5.316c1.085,1.746,2.098,4.028,3.017,6.879h-14.864c-1.656-2.888-3.478-4.948-5.464-6.199
		c-2.005-1.233-4.452-1.857-7.358-1.857c-3.992,0-7.469,1.287-10.449,3.881c-3.698,3.201-5.557,7.689-5.557,13.448
		c0,5.077,1.675,9.29,5.004,12.639c3.055,3.128,6.918,4.691,11.59,4.691C530.403,561.767,534.488,559.19,537.652,554.039
		L537.652,554.039z M463.21,514.965c8.665,0,15.913,3.257,21.782,9.769c4.948,5.464,7.432,12.014,7.432,19.648
		c0,9.106-3.366,16.538-10.081,22.297c-5.593,4.819-12.087,7.229-19.446,7.229c-4.672,0-9.161-1.159-13.466-3.459
		c-4.709-2.483-8.443-5.941-11.204-10.356c-3.017-4.82-4.524-10.211-4.524-16.135c0-8.315,3.274-15.453,9.805-21.377
		C448.916,517.65,455.502,515.112,463.21,514.965L463.21,514.965z M463.173,527.107c-4.746,0-8.83,2.005-12.233,5.997
		c-2.667,3.09-3.992,6.807-3.992,11.111c0,5.831,1.987,10.431,5.979,13.778c2.98,2.521,6.385,3.772,10.192,3.772
		c4.931,0,8.923-1.895,12.013-5.666c2.705-3.275,4.048-7.12,4.048-11.499c0-5.481-1.969-9.971-5.924-13.502
		C470.348,528.505,466.981,527.181,463.173,527.107L463.173,527.107z M372.29,572.032v-73.624h13.245V521.9
		c4.452-4.617,10.191-6.936,17.237-6.936c5.133,0,10.026,1.454,14.644,4.379c4.361,2.759,7.672,6.678,9.972,11.756
		c2.042,4.433,3.072,8.903,3.072,13.447c0,3.459-0.589,6.899-1.785,10.358c-1.178,3.457-2.833,6.493-4.947,9.124
		c-5.207,6.585-12.088,9.879-20.66,9.879c-3.771,0-7.138-0.663-10.081-2.006c-2.944-1.343-5.795-3.495-8.555-6.493v6.623H372.29
		L372.29,572.032z M401.099,527.107c-4.6,0-8.48,1.636-11.646,4.911c-3.2,3.312-4.802,7.359-4.802,12.143
		c0,5.685,1.987,10.247,5.98,13.668c3.053,2.631,6.641,3.938,10.724,3.938c4.582,0,8.371-1.638,11.389-4.913
		c2.979-3.236,4.47-7.414,4.47-12.526c0-4.857-1.436-8.85-4.305-11.978C409.745,528.929,405.808,527.181,401.099,527.107
		L401.099,527.107z M352.322,516.841v28.239c0,5.464-0.956,9.604-2.888,12.437s-4.765,4.25-8.48,4.25
		c-3.864,0-6.862-1.656-8.997-4.949c-1.582-2.483-2.373-6.384-2.373-11.737v-28.239h-13.246v32.397c0,4.525,0.515,8.187,1.563,11.02
		c1.049,2.814,2.814,5.371,5.298,7.671c4.416,3.992,9.714,5.979,15.858,5.979c3.184,0,5.813-0.533,7.911-1.618
		c2.116-1.068,4.269-2.98,6.458-5.704v5.446h12.142v-55.191H352.322z"/>
	<path display="inline" fill-rule="evenodd" clip-rule="evenodd" fill="#02AFF1" d="M163.98,494.71h79.525h1.642v1.642v79.524v1.642
		h-1.642H163.98h-1.642v-1.642v-79.524v-1.642H163.98L163.98,494.71z M241.863,497.993h-76.242v76.241h76.242V497.993z"/>
	<path display="inline" fill-rule="evenodd" clip-rule="evenodd" fill="#72BFB5" d="M203.742,517.874
		c-5.037,0-9.597,2.042-12.897,5.343c-3.301,3.3-5.342,7.86-5.342,12.897c0,5.036,2.042,9.597,5.342,12.897
		s7.861,5.342,12.897,5.342c5.037,0,9.597-2.041,12.898-5.342c3.3-3.301,5.342-7.861,5.342-12.897c0-5.037-2.042-9.598-5.342-12.897
		C213.339,519.916,208.779,517.874,203.742,517.874L203.742,517.874z M188.523,520.896c3.895-3.896,9.276-6.304,15.219-6.304
		c5.943,0,11.324,2.408,15.219,6.304c3.895,3.895,6.304,9.275,6.304,15.219c0,5.942-2.409,11.323-6.304,15.219
		c-3.895,3.895-9.275,6.304-15.219,6.304c-5.943,0-11.324-2.409-15.219-6.304c-3.895-3.895-6.304-9.276-6.304-15.219
		C182.22,530.171,184.629,524.79,188.523,520.896L188.523,520.896z M233.468,506.389v59.45h-59.451v-59.45H233.468z"/>
</g>
<g display="none">
	<path display="inline" fill-rule="evenodd" clip-rule="evenodd" fill="#1E5D7E" d="M266.807,473.411v-73.624h13.688v31.846
		l23.18-31.846h16.06l-27.761,36.224l27.761,37.4h-16.06l-23.18-32.286v32.286H266.807L266.807,473.411z M537.652,455.506h14.864
		c-2.042,5.667-5.077,10.118-9.088,13.375c-2.483,2.022-5.371,3.605-8.664,4.765c-3.275,1.159-6.55,1.729-9.825,1.729
		c-5.536,0-10.853-1.618-15.949-4.856c-4.452-2.851-7.837-6.604-10.173-11.276c-2.152-4.214-3.238-8.739-3.238-13.559
		c0-8.592,3.219-15.784,9.64-21.579c5.647-5.114,12.197-7.672,19.666-7.672c7.727,0,14.441,2.667,20.145,8.003
		c1.913,1.784,3.403,3.568,4.471,5.316c1.085,1.747,2.098,4.029,3.017,6.88h-14.864c-1.656-2.888-3.478-4.948-5.464-6.199
		c-2.005-1.233-4.452-1.857-7.358-1.857c-3.992,0-7.469,1.287-10.449,3.881c-3.698,3.201-5.557,7.689-5.557,13.447
		c0,5.078,1.675,9.291,5.004,12.64c3.055,3.128,6.918,4.691,11.59,4.691C530.403,463.233,534.488,460.657,537.652,455.506
		L537.652,455.506z M463.21,416.432c8.665,0,15.913,3.257,21.782,9.769c4.948,5.464,7.432,12.014,7.432,19.647
		c0,9.106-3.366,16.539-10.081,22.298c-5.593,4.819-12.087,7.229-19.446,7.229c-4.672,0-9.161-1.159-13.466-3.459
		c-4.709-2.483-8.443-5.94-11.204-10.356c-3.017-4.819-4.524-10.21-4.524-16.135c0-8.314,3.274-15.452,9.805-21.376
		C448.916,419.117,455.502,416.579,463.21,416.432L463.21,416.432z M463.173,428.574c-4.746,0-8.83,2.005-12.233,5.997
		c-2.667,3.09-3.992,6.807-3.992,11.111c0,5.831,1.987,10.431,5.979,13.778c2.98,2.521,6.385,3.772,10.192,3.772
		c4.931,0,8.923-1.895,12.013-5.666c2.705-3.275,4.048-7.12,4.048-11.499c0-5.482-1.969-9.971-5.924-13.502
		C470.348,429.972,466.981,428.647,463.173,428.574L463.173,428.574z M372.29,473.498v-73.623h13.245v23.492
		c4.452-4.618,10.191-6.936,17.237-6.936c5.133,0,10.026,1.453,14.644,4.379c4.361,2.759,7.672,6.678,9.972,11.756
		c2.042,4.433,3.072,8.902,3.072,13.447c0,3.459-0.589,6.899-1.785,10.358c-1.178,3.457-2.833,6.493-4.947,9.124
		c-5.207,6.585-12.088,9.878-20.66,9.878c-3.771,0-7.138-0.662-10.081-2.005c-2.944-1.343-5.795-3.495-8.555-6.494v6.623H372.29
		L372.29,473.498z M401.099,428.574c-4.6,0-8.48,1.636-11.646,4.911c-3.2,3.312-4.802,7.359-4.802,12.143
		c0,5.684,1.987,10.247,5.98,13.668c3.053,2.631,6.641,3.938,10.724,3.938c4.582,0,8.371-1.638,11.389-4.913
		c2.979-3.236,4.47-7.414,4.47-12.527c0-4.857-1.436-8.849-4.305-11.977C409.745,430.396,405.808,428.647,401.099,428.574
		L401.099,428.574z M352.322,418.308v28.239c0,5.464-0.956,9.604-2.888,12.437c-1.932,2.832-4.765,4.25-8.48,4.25
		c-3.864,0-6.862-1.656-8.997-4.949c-1.582-2.483-2.373-6.385-2.373-11.737v-28.239h-13.246v32.396
		c0,4.526,0.515,8.188,1.563,11.021c1.049,2.814,2.814,5.371,5.298,7.671c4.416,3.992,9.714,5.979,15.858,5.979
		c3.184,0,5.813-0.533,7.911-1.618c2.116-1.067,4.269-2.979,6.458-5.703v5.445h12.142v-55.19H352.322z"/>
	<path display="inline" fill-rule="evenodd" clip-rule="evenodd" fill="#1E5D7E" d="M163.98,396.177h79.525h1.642v1.642v79.524
		v1.642h-1.642H163.98h-1.642v-1.642v-79.524v-1.642H163.98L163.98,396.177z M241.863,399.459h-76.242v76.242h76.242V399.459z"/>
	<path display="inline" fill-rule="evenodd" clip-rule="evenodd" fill="#72BFB5" d="M203.742,419.341
		c-5.037,0-9.597,2.041-12.897,5.342s-5.342,7.861-5.342,12.898c0,5.036,2.042,9.597,5.342,12.897
		c3.301,3.3,7.861,5.342,12.897,5.342c5.037,0,9.597-2.042,12.898-5.342c3.3-3.301,5.342-7.861,5.342-12.897
		c0-5.037-2.042-9.598-5.342-12.898C213.339,421.382,208.779,419.341,203.742,419.341L203.742,419.341z M188.523,422.362
		c3.895-3.896,9.276-6.305,15.219-6.305c5.943,0,11.324,2.409,15.219,6.305c3.895,3.895,6.304,9.275,6.304,15.219
		c0,5.942-2.409,11.323-6.304,15.218c-3.895,3.896-9.275,6.305-15.219,6.305c-5.943,0-11.324-2.409-15.219-6.305
		c-3.895-3.895-6.304-9.275-6.304-15.218C182.22,431.638,184.629,426.257,188.523,422.362L188.523,422.362z M233.468,407.855v59.45
		h-59.451v-59.45H233.468z"/>
</g>
<g>
	<path fill-rule="evenodd" clip-rule="evenodd" fill="#1E5D7E" d="M218.035,394.16V280.914h21.054v48.983l35.655-48.983h24.703
		l-42.701,55.717l42.701,57.529h-24.703l-35.655-49.662v49.662H218.035L218.035,394.16z M634.647,366.619h22.864
		c-3.141,8.718-7.81,15.563-13.979,20.572c-3.82,3.113-8.262,5.548-13.327,7.329c-5.038,1.783-10.075,2.66-15.113,2.66
		c-8.516,0-16.693-2.488-24.533-7.47c-6.848-4.387-12.055-10.159-15.647-17.347c-3.311-6.481-4.981-13.441-4.981-20.855
		c0-13.215,4.951-24.278,14.828-33.192c8.687-7.868,18.762-11.802,30.25-11.802c11.885,0,22.214,4.103,30.986,12.311
		c2.942,2.743,5.234,5.488,6.876,8.177c1.669,2.688,3.228,6.196,4.641,10.582h-22.864c-2.548-4.442-5.349-7.612-8.404-9.535
		c-3.084-1.897-6.849-2.859-11.318-2.859c-6.141,0-11.488,1.98-16.073,5.97c-5.688,4.923-8.547,11.828-8.547,20.686
		c0,7.811,2.576,14.29,7.697,19.441c4.698,4.811,10.641,7.216,17.827,7.216C623.497,378.505,629.78,374.542,634.647,366.619
		L634.647,366.619z M520.141,306.516c13.329,0,24.478,5.01,33.506,15.026c7.611,8.404,11.431,18.479,11.431,30.222
		c0,14.008-5.178,25.44-15.506,34.297c-8.603,7.415-18.593,11.12-29.912,11.12c-7.187,0-14.092-1.782-20.713-5.32
		c-7.244-3.819-12.988-9.139-17.234-15.93c-4.641-7.414-6.96-15.707-6.96-24.819c0-12.79,5.037-23.769,15.082-32.881
		C498.154,310.646,508.285,306.743,520.141,306.516L520.141,306.516z M520.084,325.192c-7.301,0-13.582,3.085-18.817,9.226
		c-4.103,4.753-6.141,10.47-6.141,17.091c0,8.97,3.057,16.044,9.196,21.195c4.584,3.877,9.82,5.801,15.678,5.801
		c7.584,0,13.725-2.914,18.478-8.716c4.161-5.037,6.227-10.95,6.227-17.687c0-8.432-3.028-15.337-9.112-20.77
		C531.12,327.343,525.942,325.305,520.084,325.192L520.084,325.192z M380.289,394.295V281.048h20.373v36.136
		c6.849-7.103,15.677-10.668,26.515-10.668c7.896,0,15.423,2.236,22.524,6.736c6.709,4.243,11.801,10.271,15.339,18.081
		c3.141,6.818,4.726,13.695,4.726,20.686c0,5.32-0.906,10.612-2.746,15.933c-1.812,5.317-4.357,9.989-7.61,14.036
		c-8.009,10.127-18.593,15.193-31.779,15.193c-5.801,0-10.979-1.02-15.506-3.085c-4.529-2.065-8.914-5.376-13.159-9.988v10.188
		H380.289L380.289,394.295z M424.602,325.192c-7.074,0-13.044,2.517-17.912,7.554c-4.923,5.094-7.387,11.321-7.387,18.679
		c0,8.743,3.057,15.762,9.199,21.023c4.695,4.047,10.215,6.057,16.495,6.057c7.048,0,12.876-2.519,17.518-7.557
		c4.583-4.979,6.876-11.403,6.876-19.269c0-7.472-2.208-13.612-6.622-18.423C437.902,327.995,431.846,325.305,424.602,325.192
		L424.602,325.192z M349.575,309.401v43.438c0,8.404-1.47,14.771-4.442,19.129s-7.329,6.537-13.044,6.537
		c-5.944,0-10.556-2.546-13.838-7.612c-2.433-3.82-3.649-9.82-3.649-18.054v-43.438h-20.375v49.833
		c0,6.962,0.792,12.593,2.405,16.952c1.614,4.329,4.329,8.261,8.15,11.798c6.792,6.141,14.941,9.197,24.393,9.197
		c4.896,0,8.941-0.819,12.168-2.488c3.255-1.644,6.566-4.585,9.933-8.774v8.377h18.676v-84.894H349.575z"/>
	<path fill-rule="evenodd" clip-rule="evenodd" fill="#72BFB5" d="M59.868,275.36h122.325h2.525v2.524v122.325v2.525h-2.525H59.868
		h-2.525v-2.525V277.884v-2.524H59.868L59.868,275.36z M179.667,280.409H62.393v117.275h117.275V280.409z"/>
	<path fill-rule="evenodd" clip-rule="evenodd" fill="#02AFF1" d="M121.03,310.991c-7.748,0-14.762,3.14-19.839,8.217
		c-5.077,5.077-8.217,12.091-8.217,19.839c0,7.747,3.14,14.761,8.217,19.839c5.077,5.077,12.091,8.217,19.839,8.217
		c7.748,0,14.762-3.14,19.839-8.217c5.077-5.077,8.217-12.092,8.217-19.839c0-7.748-3.14-14.762-8.217-19.839
		C135.792,314.131,128.778,310.991,121.03,310.991L121.03,310.991z M97.621,315.637c5.991-5.99,14.268-9.696,23.409-9.696
		c9.142,0,17.419,3.706,23.409,9.696c5.991,5.992,9.697,14.268,9.697,23.41s-3.706,17.418-9.697,23.409
		c-5.99,5.99-14.267,9.696-23.409,9.696c-9.142,0-17.418-3.706-23.409-9.696c-5.991-5.991-9.697-14.267-9.697-23.409
		S91.63,321.628,97.621,315.637L97.621,315.637z M166.754,293.324v91.447H75.307v-91.447H166.754z"/>
</g>
<g display="none">
	<path display="inline" fill-rule="evenodd" clip-rule="evenodd" fill="#1A1A1A" d="M231.059,420.931V316.174h19.476v45.312
		l32.981-45.312h22.851l-39.5,51.541l39.5,53.216h-22.851l-32.981-45.938v45.938H231.059L231.059,420.931z M616.436,395.454h21.149
		c-2.905,8.064-7.225,14.398-12.931,19.03c-3.534,2.88-7.643,5.13-12.328,6.781c-4.66,1.647-9.319,2.459-13.979,2.459
		c-7.877,0-15.441-2.304-22.693-6.911c-6.335-4.056-11.151-9.396-14.475-16.045c-3.063-5.995-4.608-12.434-4.608-19.292
		c0-12.224,4.58-22.458,13.716-30.703c8.036-7.278,17.355-10.917,27.982-10.917c10.994,0,20.548,3.795,28.663,11.388
		c2.722,2.538,4.843,5.078,6.361,7.565c1.544,2.486,2.984,5.732,4.292,9.789h-21.149c-2.357-4.108-4.948-7.041-7.774-8.82
		c-2.854-1.755-6.335-2.644-10.471-2.644c-5.68,0-10.627,1.832-14.867,5.522c-5.263,4.555-7.906,10.941-7.906,19.134
		c0,7.226,2.383,13.219,7.119,17.985c4.347,4.449,9.844,6.674,16.491,6.674C606.121,406.449,611.933,402.783,616.436,395.454
		L616.436,395.454z M510.514,339.856c12.329,0,22.643,4.634,30.993,13.899c7.041,7.774,10.574,17.094,10.574,27.957
		c0,12.957-4.789,23.531-14.344,31.726c-7.958,6.857-17.198,10.286-27.67,10.286c-6.647,0-13.034-1.65-19.159-4.921
		c-6.701-3.535-12.015-8.454-15.942-14.736c-4.292-6.858-6.438-14.528-6.438-22.958c0-11.83,4.659-21.986,13.95-30.416
		C490.176,343.678,499.546,340.066,510.514,339.856L510.514,339.856z M510.461,357.134c-6.753,0-12.563,2.854-17.406,8.534
		c-3.795,4.396-5.681,9.684-5.681,15.809c0,8.298,2.828,14.843,8.507,19.604c4.241,3.588,9.085,5.368,14.502,5.368
		c7.016,0,12.696-2.695,17.093-8.063c3.849-4.659,5.76-10.13,5.76-16.361c0-7.8-2.802-14.186-8.429-19.211
		C520.67,359.123,515.88,357.238,510.461,357.134L510.461,357.134z M381.146,421.055V316.299h18.847v33.426
		c6.335-6.57,14.501-9.869,24.526-9.869c7.304,0,14.266,2.068,20.836,6.231c6.205,3.925,10.916,9.501,14.188,16.727
		c2.905,6.307,4.371,12.667,4.371,19.133c0,4.922-0.838,9.817-2.54,14.739c-1.676,4.919-4.031,9.238-7.039,12.982
		c-7.409,9.369-17.199,14.056-29.396,14.056c-5.366,0-10.156-0.941-14.345-2.854c-4.189-1.911-8.245-4.972-12.172-9.239v9.423
		H381.146L381.146,421.055z M422.138,357.134c-6.545,0-12.066,2.328-16.569,6.987c-4.554,4.713-6.833,10.473-6.833,17.277
		c0,8.088,2.828,14.581,8.51,19.448c4.344,3.743,9.448,5.603,15.258,5.603c6.52,0,11.911-2.33,16.205-6.991
		c4.239-4.604,6.359-10.548,6.359-17.823c0-6.912-2.042-12.592-6.125-17.041C434.44,359.725,428.838,357.238,422.138,357.134
		L422.138,357.134z M352.736,342.526v40.181c0,7.773-1.36,13.664-4.109,17.695c-2.749,4.03-6.779,6.047-12.066,6.047
		c-5.499,0-9.764-2.355-12.801-7.042c-2.25-3.534-3.375-9.084-3.375-16.7v-40.181h-18.848v46.097c0,6.439,0.733,11.649,2.225,15.68
		c1.493,4.004,4.005,7.642,7.539,10.916c6.283,5.679,13.821,8.506,22.563,8.506c4.53,0,8.271-0.759,11.256-2.304
		c3.011-1.518,6.074-4.239,9.188-8.114v7.748h17.276v-78.529H352.736z"/>
	<path display="inline" fill-rule="evenodd" clip-rule="evenodd" fill="#1A1A1A" d="M84.75,311.037h113.153h2.336v2.336v113.154
		v2.334h-2.336H84.75h-2.336v-2.334V313.373v-2.336H84.75L84.75,311.037z M195.568,315.708H87.085v108.482h108.482V315.708z"/>
	<path display="inline" fill-rule="evenodd" clip-rule="evenodd" fill="#1A1A1A" d="M141.327,343.996
		c-7.167,0-13.655,2.905-18.352,7.601c-4.696,4.697-7.601,11.185-7.601,18.352c0,7.166,2.905,13.654,7.601,18.352
		c4.697,4.695,11.185,7.601,18.352,7.601c7.167,0,13.655-2.905,18.352-7.601c4.696-4.695,7.601-11.186,7.601-18.352
		c0-7.167-2.905-13.656-7.601-18.352C154.982,346.901,148.494,343.996,141.327,343.996L141.327,343.996z M119.672,348.295
		c5.542-5.542,13.198-8.97,21.654-8.97c8.457,0,16.113,3.428,21.654,8.97c5.542,5.542,8.97,13.197,8.97,21.654
		c0,8.456-3.428,16.112-8.97,21.653c-5.542,5.542-13.198,8.971-21.654,8.971c-8.456,0-16.112-3.429-21.654-8.971
		c-5.542-5.541-8.969-13.197-8.969-21.653C110.703,361.492,114.131,353.836,119.672,348.295L119.672,348.295z M183.622,327.654
		v84.591h-84.59v-84.591H183.622z"/>
</g>
</svg>
