<?xml version="1.0" encoding="utf-8"?>
<!-- Generator: Adobe Illustrator 16.0.0, SVG Export Plug-In . SVG Version: 6.00 Build 0)  -->
<!DOCTYPE svg PUBLIC "-//W3C//DTD SVG 1.1//EN" "http://www.w3.org/Graphics/SVG/1.1/DTD/svg11.dtd">
<svg version="1.1" id="Layer_1" xmlns="http://www.w3.org/2000/svg" xmlns:xlink="http://www.w3.org/1999/xlink" x="0px" y="0px"
	 width="720px" height="720px" viewBox="0 0 720 720" enable-background="new 0 0 720 720" xml:space="preserve">
<g display="none">
	<path display="inline" fill-rule="evenodd" clip-rule="evenodd" fill="#1E5D7E" d="M266.807,670.479v-73.624h13.688v31.845
		l23.18-31.845h16.06l-27.761,36.223l27.761,37.401h-16.06l-23.18-32.286v32.286H266.807L266.807,670.479z M537.651,652.573h14.865
		c-2.042,5.667-5.078,10.118-9.088,13.374c-2.483,2.023-5.371,3.606-8.665,4.766c-3.274,1.159-6.549,1.729-9.824,1.729
		c-5.536,0-10.854-1.618-15.949-4.856c-4.452-2.851-7.837-6.604-10.173-11.276c-2.152-4.214-3.238-8.739-3.238-13.559
		c0-8.592,3.219-15.784,9.64-21.579c5.647-5.114,12.197-7.672,19.666-7.672c7.727,0,14.441,2.667,20.145,8.003
		c1.913,1.783,3.403,3.568,4.471,5.316c1.085,1.747,2.098,4.028,3.017,6.88h-14.865c-1.655-2.888-3.477-4.949-5.464-6.199
		c-2.004-1.233-4.451-1.857-7.357-1.857c-3.992,0-7.469,1.286-10.449,3.881c-3.698,3.2-5.557,7.689-5.557,13.447
		c0,5.078,1.674,9.29,5.004,12.64c3.055,3.128,6.918,4.69,11.59,4.69C530.403,660.3,534.487,657.724,537.651,652.573
		L537.651,652.573z M463.209,613.499c8.666,0,15.914,3.257,21.783,9.769c4.948,5.464,7.432,12.014,7.432,19.647
		c0,9.106-3.366,16.539-10.081,22.298c-5.593,4.819-12.087,7.229-19.446,7.229c-4.672,0-9.161-1.159-13.466-3.459
		c-4.709-2.483-8.444-5.94-11.204-10.356c-3.017-4.819-4.525-10.21-4.525-16.134c0-8.315,3.275-15.453,9.806-21.377
		C448.916,616.185,455.502,613.646,463.209,613.499L463.209,613.499z M463.173,625.642c-4.746,0-8.83,2.005-12.233,5.997
		c-2.668,3.09-3.992,6.807-3.992,11.111c0,5.831,1.987,10.431,5.979,13.778c2.98,2.521,6.385,3.771,10.192,3.771
		c4.931,0,8.923-1.894,12.013-5.666c2.705-3.274,4.048-7.119,4.048-11.498c0-5.482-1.969-9.971-5.924-13.503
		C470.348,627.039,466.981,625.714,463.173,625.642L463.173,625.642z M372.29,670.565v-73.624h13.245v23.493
		c4.452-4.618,10.191-6.936,17.237-6.936c5.133,0,10.026,1.453,14.644,4.379c4.361,2.759,7.672,6.678,9.972,11.755
		c2.042,4.433,3.071,8.903,3.071,13.448c0,3.459-0.588,6.899-1.784,10.357c-1.178,3.458-2.833,6.494-4.947,9.125
		c-5.207,6.585-12.088,9.878-20.66,9.878c-3.771,0-7.138-0.662-10.081-2.005c-2.944-1.343-5.795-3.495-8.555-6.494v6.623H372.29
		L372.29,670.565z M401.099,625.642c-4.6,0-8.48,1.636-11.646,4.911c-3.2,3.312-4.802,7.359-4.802,12.143
		c0,5.684,1.987,10.247,5.98,13.668c3.053,2.631,6.641,3.937,10.724,3.937c4.581,0,8.371-1.637,11.388-4.912
		c2.98-3.237,4.471-7.414,4.471-12.527c0-4.857-1.436-8.85-4.305-11.977C409.745,627.463,405.808,625.714,401.099,625.642
		L401.099,625.642z M352.322,615.375v28.239c0,5.464-0.956,9.603-2.888,12.436s-4.765,4.25-8.48,4.25
		c-3.864,0-6.862-1.655-8.997-4.948c-1.582-2.484-2.373-6.385-2.373-11.737v-28.239h-13.246v32.396
		c0,4.526,0.515,8.188,1.563,11.021c1.049,2.814,2.814,5.371,5.298,7.671c4.416,3.992,9.714,5.979,15.858,5.979
		c3.184,0,5.813-0.533,7.911-1.618c2.116-1.067,4.269-2.979,6.458-5.703v5.445h12.142v-55.19H352.322z"/>
	<path display="inline" fill-rule="evenodd" clip-rule="evenodd" fill="#1E5D7E" d="M163.979,593.244h79.525h1.641v1.642v79.524
		v1.642h-1.641h-79.525h-1.641v-1.642v-79.524v-1.642H163.979L163.979,593.244z M241.863,596.526h-76.242v76.242h76.242V596.526z"/>
	<path display="inline" fill-rule="evenodd" clip-rule="evenodd" fill="#02AFF1" d="M203.742,616.408
		c-5.037,0-9.597,2.041-12.897,5.342s-5.342,7.86-5.342,12.897s2.042,9.598,5.342,12.897c3.301,3.301,7.861,5.343,12.897,5.343
		s9.597-2.042,12.897-5.343c3.301-3.3,5.342-7.86,5.342-12.897s-2.042-9.597-5.342-12.897
		C213.339,618.449,208.779,616.408,203.742,616.408L203.742,616.408z M188.523,619.429c3.895-3.895,9.276-6.304,15.219-6.304
		c5.943,0,11.324,2.409,15.219,6.304c3.895,3.896,6.304,9.276,6.304,15.219c0,5.943-2.409,11.324-6.304,15.219
		s-9.275,6.304-15.219,6.304c-5.943,0-11.324-2.409-15.219-6.304s-6.304-9.275-6.304-15.219
		C182.22,628.705,184.629,623.323,188.523,619.429L188.523,619.429z M233.467,604.923v59.45h-59.45v-59.45H233.467z"/>
</g>
<g display="none">
	<path display="inline" fill-rule="evenodd" clip-rule="evenodd" fill="#1E5D7E" d="M266.807,571.944V498.32h13.688v31.846
		l23.18-31.846h16.06l-27.761,36.224l27.761,37.4h-16.06l-23.18-32.286v32.286H266.807L266.807,571.944z M537.652,554.039h14.864
		c-2.042,5.667-5.077,10.118-9.088,13.375c-2.483,2.023-5.371,3.606-8.664,4.765c-3.275,1.159-6.55,1.729-9.825,1.729
		c-5.536,0-10.853-1.618-15.949-4.856c-4.452-2.852-7.837-6.604-10.173-11.277c-2.152-4.214-3.238-8.738-3.238-13.559
		c0-8.591,3.219-15.784,9.64-21.579c5.647-5.114,12.197-7.672,19.666-7.672c7.727,0,14.441,2.668,20.145,8.004
		c1.913,1.783,3.403,3.567,4.471,5.316c1.085,1.746,2.098,4.028,3.017,6.879h-14.864c-1.656-2.888-3.478-4.948-5.464-6.199
		c-2.005-1.233-4.452-1.857-7.358-1.857c-3.992,0-7.469,1.287-10.449,3.881c-3.698,3.201-5.557,7.689-5.557,13.448
		c0,5.077,1.675,9.29,5.004,12.639c3.055,3.128,6.918,4.691,11.59,4.691C530.403,561.767,534.488,559.19,537.652,554.039
		L537.652,554.039z M463.21,514.965c8.665,0,15.913,3.257,21.782,9.769c4.948,5.464,7.432,12.014,7.432,19.648
		c0,9.106-3.366,16.538-10.081,22.297c-5.593,4.819-12.087,7.229-19.446,7.229c-4.672,0-9.161-1.159-13.466-3.459
		c-4.709-2.483-8.443-5.941-11.204-10.356c-3.017-4.82-4.524-10.211-4.524-16.135c0-8.315,3.274-15.453,9.805-21.377
		C448.916,517.65,455.502,515.112,463.21,514.965L463.21,514.965z M463.173,527.107c-4.746,0-8.83,2.005-12.233,5.997
		c-2.667,3.09-3.992,6.807-3.992,11.111c0,5.831,1.987,10.431,5.979,13.778c2.98,2.521,6.385,3.772,10.192,3.772
		c4.931,0,8.923-1.895,12.013-5.666c2.705-3.275,4.048-7.12,4.048-11.499c0-5.481-1.969-9.971-5.924-13.502
		C470.348,528.505,466.981,527.181,463.173,527.107L463.173,527.107z M372.29,572.032v-73.624h13.245V521.9
		c4.452-4.617,10.191-6.936,17.237-6.936c5.133,0,10.026,1.454,14.644,4.379c4.361,2.759,7.672,6.678,9.972,11.756
		c2.042,4.433,3.072,8.903,3.072,13.447c0,3.459-0.589,6.899-1.785,10.358c-1.178,3.457-2.833,6.493-4.947,9.124
		c-5.207,6.585-12.088,9.879-20.66,9.879c-3.771,0-7.138-0.663-10.081-2.006c-2.944-1.343-5.795-3.495-8.555-6.493v6.623H372.29
		L372.29,572.032z M401.099,527.107c-4.6,0-8.48,1.636-11.646,4.911c-3.2,3.312-4.802,7.359-4.802,12.143
		c0,5.685,1.987,10.247,5.98,13.668c3.053,2.631,6.641,3.938,10.724,3.938c4.582,0,8.371-1.638,11.389-4.913
		c2.979-3.236,4.47-7.414,4.47-12.526c0-4.857-1.436-8.85-4.305-11.978C409.745,528.929,405.808,527.181,401.099,527.107
		L401.099,527.107z M352.322,516.841v28.239c0,5.464-0.956,9.604-2.888,12.437s-4.765,4.25-8.48,4.25
		c-3.864,0-6.862-1.656-8.997-4.949c-1.582-2.483-2.373-6.384-2.373-11.737v-28.239h-13.246v32.397c0,4.525,0.515,8.187,1.563,11.02
		c1.049,2.814,2.814,5.371,5.298,7.671c4.416,3.992,9.714,5.979,15.858,5.979c3.184,0,5.813-0.533,7.911-1.618
		c2.116-1.068,4.269-2.98,6.458-5.704v5.446h12.142v-55.191H352.322z"/>
	<path display="inline" fill-rule="evenodd" clip-rule="evenodd" fill="#02AFF1" d="M163.98,494.71h79.525h1.642v1.642v79.524v1.642
		h-1.642H163.98h-1.642v-1.642v-79.524v-1.642H163.98L163.98,494.71z M241.863,497.993h-76.242v76.241h76.242V497.993z"/>
	<path display="inline" fill-rule="evenodd" clip-rule="evenodd" fill="#72BFB5" d="M203.742,517.874
		c-5.037,0-9.597,2.042-12.897,5.343c-3.301,3.3-5.342,7.86-5.342,12.897c0,5.036,2.042,9.597,5.342,12.897
		s7.861,5.342,12.897,5.342c5.037,0,9.597-2.041,12.898-5.342c3.3-3.301,5.342-7.861,5.342-12.897c0-5.037-2.042-9.598-5.342-12.897
		C213.339,519.916,208.779,517.874,203.742,517.874L203.742,517.874z M188.523,520.896c3.895-3.896,9.276-6.304,15.219-6.304
		c5.943,0,11.324,2.408,15.219,6.304c3.895,3.895,6.304,9.275,6.304,15.219c0,5.942-2.409,11.323-6.304,15.219
		c-3.895,3.895-9.275,6.304-15.219,6.304c-5.943,0-11.324-2.409-15.219-6.304c-3.895-3.895-6.304-9.276-6.304-15.219
		C182.22,530.171,184.629,524.79,188.523,520.896L188.523,520.896z M233.468,506.389v59.45h-59.451v-59.45H233.468z"/>
</g>
<g display="none">
	<path display="inline" fill-rule="evenodd" clip-rule="evenodd" fill="#1E5D7E" d="M266.807,473.411v-73.624h13.688v31.846
		l23.18-31.846h16.06l-27.761,36.224l27.761,37.4h-16.06l-23.18-32.286v32.286H266.807L266.807,473.411z M537.652,455.506h14.864
		c-2.042,5.667-5.077,10.118-9.088,13.375c-2.483,2.022-5.371,3.605-8.664,4.765c-3.275,1.159-6.55,1.729-9.825,1.729
		c-5.536,0-10.853-1.618-15.949-4.856c-4.452-2.851-7.837-6.604-10.173-11.276c-2.152-4.214-3.238-8.739-3.238-13.559
		c0-8.592,3.219-15.784,9.64-21.579c5.647-5.114,12.197-7.672,19.666-7.672c7.727,0,14.441,2.667,20.145,8.003
		c1.913,1.784,3.403,3.568,4.471,5.316c1.085,1.747,2.098,4.029,3.017,6.88h-14.864c-1.656-2.888-3.478-4.948-5.464-6.199
		c-2.005-1.233-4.452-1.857-7.358-1.857c-3.992,0-7.469,1.287-10.449,3.881c-3.698,3.201-5.557,7.689-5.557,13.447
		c0,5.078,1.675,9.291,5.004,12.64c3.055,3.128,6.918,4.691,11.59,4.691C530.403,463.233,534.488,460.657,537.652,455.506
		L537.652,455.506z M463.21,416.432c8.665,0,15.913,3.257,21.782,9.769c4.948,5.464,7.432,12.014,7.432,19.647
		c0,9.106-3.366,16.539-10.081,22.298c-5.593,4.819-12.087,7.229-19.446,7.229c-4.672,0-9.161-1.159-13.466-3.459
		c-4.709-2.483-8.443-5.94-11.204-10.356c-3.017-4.819-4.524-10.21-4.524-16.135c0-8.314,3.274-15.452,9.805-21.376
		C448.916,419.117,455.502,416.579,463.21,416.432L463.21,416.432z M463.173,428.574c-4.746,0-8.83,2.005-12.233,5.997
		c-2.667,3.09-3.992,6.807-3.992,11.111c0,5.831,1.987,10.431,5.979,13.778c2.98,2.521,6.385,3.772,10.192,3.772
		c4.931,0,8.923-1.895,12.013-5.666c2.705-3.275,4.048-7.12,4.048-11.499c0-5.482-1.969-9.971-5.924-13.502
		C470.348,429.972,466.981,428.647,463.173,428.574L463.173,428.574z M372.29,473.498v-73.623h13.245v23.492
		c4.452-4.618,10.191-6.936,17.237-6.936c5.133,0,10.026,1.453,14.644,4.379c4.361,2.759,7.672,6.678,9.972,11.756
		c2.042,4.433,3.072,8.902,3.072,13.447c0,3.459-0.589,6.899-1.785,10.358c-1.178,3.457-2.833,6.493-4.947,9.124
		c-5.207,6.585-12.088,9.878-20.66,9.878c-3.771,0-7.138-0.662-10.081-2.005c-2.944-1.343-5.795-3.495-8.555-6.494v6.623H372.29
		L372.29,473.498z M401.099,428.574c-4.6,0-8.48,1.636-11.646,4.911c-3.2,3.312-4.802,7.359-4.802,12.143
		c0,5.684,1.987,10.247,5.98,13.668c3.053,2.631,6.641,3.938,10.724,3.938c4.582,0,8.371-1.638,11.389-4.913
		c2.979-3.236,4.47-7.414,4.47-12.527c0-4.857-1.436-8.849-4.305-11.977C409.745,430.396,405.808,428.647,401.099,428.574
		L401.099,428.574z M352.322,418.308v28.239c0,5.464-0.956,9.604-2.888,12.437c-1.932,2.832-4.765,4.25-8.48,4.25
		c-3.864,0-6.862-1.656-8.997-4.949c-1.582-2.483-2.373-6.385-2.373-11.737v-28.239h-13.246v32.396
		c0,4.526,0.515,8.188,1.563,11.021c1.049,2.814,2.814,5.371,5.298,7.671c4.416,3.992,9.714,5.979,15.858,5.979
		c3.184,0,5.813-0.533,7.911-1.618c2.116-1.067,4.269-2.979,6.458-5.703v5.445h12.142v-55.19H352.322z"/>
	<path display="inline" fill-rule="evenodd" clip-rule="evenodd" fill="#1E5D7E" d="M163.98,396.177h79.525h1.642v1.642v79.524
		v1.642h-1.642H163.98h-1.642v-1.642v-79.524v-1.642H163.98L163.98,396.177z M241.863,399.459h-76.242v76.242h76.242V399.459z"/>
	<path display="inline" fill-rule="evenodd" clip-rule="evenodd" fill="#72BFB5" d="M203.742,419.341
		c-5.037,0-9.597,2.041-12.897,5.342s-5.342,7.861-5.342,12.898c0,5.036,2.042,9.597,5.342,12.897
		c3.301,3.3,7.861,5.342,12.897,5.342c5.037,0,9.597-2.042,12.898-5.342c3.3-3.301,5.342-7.861,5.342-12.897
		c0-5.037-2.042-9.598-5.342-12.898C213.339,421.382,208.779,419.341,203.742,419.341L203.742,419.341z M188.523,422.362
		c3.895-3.896,9.276-6.305,15.219-6.305c5.943,0,11.324,2.409,15.219,6.305c3.895,3.895,6.304,9.275,6.304,15.219
		c0,5.942-2.409,11.323-6.304,15.218c-3.895,3.896-9.275,6.305-15.219,6.305c-5.943,0-11.324-2.409-15.219-6.305
		c-3.895-3.895-6.304-9.275-6.304-15.218C182.22,431.638,184.629,426.257,188.523,422.362L188.523,422.362z M233.468,407.855v59.45
		h-59.451v-59.45H233.468z"/>
</g>
<g display="none">
	<path display="inline" fill-rule="evenodd" clip-rule="evenodd" fill="#1E5D7E" d="M266.807,374.877v-73.623h13.688v31.845
		l23.18-31.845h16.06l-27.761,36.223l27.761,37.4h-16.06l-23.18-32.286v32.286H266.807L266.807,374.877z M537.652,356.972h14.864
		c-2.042,5.667-5.077,10.118-9.088,13.375c-2.483,2.023-5.371,3.606-8.664,4.765c-3.275,1.159-6.55,1.729-9.825,1.729
		c-5.536,0-10.853-1.618-15.949-4.856c-4.452-2.852-7.837-6.604-10.173-11.277c-2.152-4.213-3.238-8.738-3.238-13.558
		c0-8.591,3.219-15.784,9.64-21.579c5.647-5.115,12.197-7.672,19.666-7.672c7.727,0,14.441,2.667,20.145,8.003
		c1.913,1.783,3.403,3.568,4.471,5.316c1.085,1.747,2.098,4.028,3.017,6.879h-14.864c-1.656-2.888-3.478-4.949-5.464-6.199
		c-2.005-1.233-4.452-1.858-7.358-1.858c-3.992,0-7.469,1.287-10.449,3.881c-3.698,3.201-5.557,7.689-5.557,13.448
		c0,5.078,1.675,9.29,5.004,12.639c3.055,3.127,6.918,4.691,11.59,4.691C530.403,364.699,534.488,362.123,537.652,356.972
		L537.652,356.972z M463.21,317.898c8.665,0,15.913,3.257,21.782,9.769c4.948,5.463,7.432,12.014,7.432,19.648
		c0,9.106-3.366,16.539-10.081,22.297c-5.593,4.82-12.087,7.229-19.446,7.229c-4.672,0-9.161-1.159-13.466-3.459
		c-4.709-2.483-8.443-5.941-11.204-10.356c-3.017-4.82-4.524-10.211-4.524-16.135c0-8.315,3.274-15.453,9.805-21.376
		C448.916,320.583,455.502,318.045,463.21,317.898L463.21,317.898z M463.173,330.04c-4.746,0-8.83,2.005-12.233,5.998
		c-2.667,3.09-3.992,6.807-3.992,11.111c0,5.832,1.987,10.431,5.979,13.779c2.98,2.521,6.385,3.771,10.192,3.771
		c4.931,0,8.923-1.895,12.013-5.666c2.705-3.275,4.048-7.119,4.048-11.499c0-5.482-1.969-9.971-5.924-13.502
		C470.348,331.438,466.981,330.113,463.173,330.04L463.173,330.04z M372.29,374.965v-73.624h13.245v23.493
		c4.452-4.618,10.191-6.936,17.237-6.936c5.133,0,10.026,1.454,14.644,4.379c4.361,2.758,7.672,6.677,9.972,11.755
		c2.042,4.433,3.072,8.903,3.072,13.448c0,3.459-0.589,6.899-1.785,10.358c-1.178,3.457-2.833,6.494-4.947,9.125
		c-5.207,6.584-12.088,9.878-20.66,9.878c-3.771,0-7.138-0.663-10.081-2.006c-2.944-1.343-5.795-3.495-8.555-6.493v6.623H372.29
		L372.29,374.965z M401.099,330.04c-4.6,0-8.48,1.636-11.646,4.911c-3.2,3.312-4.802,7.36-4.802,12.143
		c0,5.684,1.987,10.247,5.98,13.667c3.053,2.631,6.641,3.938,10.724,3.938c4.582,0,8.371-1.638,11.389-4.913
		c2.979-3.237,4.47-7.414,4.47-12.527c0-4.857-1.436-8.85-4.305-11.977C409.745,331.862,405.808,330.113,401.099,330.04
		L401.099,330.04z M352.322,319.774v28.239c0,5.464-0.956,9.603-2.888,12.436s-4.765,4.25-8.48,4.25
		c-3.864,0-6.862-1.655-8.997-4.949c-1.582-2.484-2.373-6.384-2.373-11.737v-28.239h-13.246v32.397
		c0,4.526,0.515,8.187,1.563,11.021c1.049,2.814,2.814,5.37,5.298,7.67c4.416,3.992,9.714,5.979,15.858,5.979
		c3.184,0,5.813-0.533,7.911-1.618c2.116-1.068,4.269-2.98,6.458-5.704v5.446h12.142v-55.191H352.322z"/>
	<path display="inline" fill-rule="evenodd" clip-rule="evenodd" fill="#72BFB5" d="M163.98,297.643h79.525h1.642v1.641v79.525
		v1.642h-1.642H163.98h-1.642v-1.642v-79.525v-1.641H163.98L163.98,297.643z M241.863,300.926h-76.242v76.242h76.242V300.926z"/>
	<path display="inline" fill-rule="evenodd" clip-rule="evenodd" fill="#02AFF1" d="M203.742,320.807
		c-5.037,0-9.597,2.042-12.897,5.342c-3.301,3.3-5.342,7.86-5.342,12.897c0,5.037,2.042,9.597,5.342,12.897
		s7.861,5.342,12.897,5.342c5.037,0,9.597-2.041,12.898-5.342c3.3-3.3,5.342-7.861,5.342-12.897c0-5.037-2.042-9.597-5.342-12.897
		C213.339,322.849,208.779,320.807,203.742,320.807L203.742,320.807z M188.523,323.828c3.895-3.895,9.276-6.304,15.219-6.304
		c5.943,0,11.324,2.409,15.219,6.304c3.895,3.895,6.304,9.275,6.304,15.219s-2.409,11.324-6.304,15.219
		c-3.895,3.895-9.275,6.304-15.219,6.304c-5.943,0-11.324-2.409-15.219-6.304c-3.895-3.895-6.304-9.275-6.304-15.219
		S184.629,327.723,188.523,323.828L188.523,323.828z M233.468,309.322v59.451h-59.451v-59.451H233.468z"/>
</g>
<g>
	<path fill-rule="evenodd" clip-rule="evenodd" fill="#FFFFFF" d="M209.457,389.036V266.73h22.738v52.902l38.507-52.902h26.68
		l-46.117,60.175l46.117,62.131h-26.68l-38.507-53.635v53.635H209.457L209.457,389.036z M659.396,359.292h24.693
		c-3.393,9.414-8.435,16.808-15.097,22.218c-4.126,3.361-8.923,5.99-14.394,7.916c-5.441,1.926-10.881,2.872-16.322,2.872
		c-9.196,0-18.028-2.688-26.495-8.067c-7.396-4.736-13.019-10.971-16.899-18.734c-3.575-6.999-5.38-14.517-5.38-22.523
		c0-14.271,5.348-26.221,16.014-35.847c9.382-8.497,20.263-12.746,32.67-12.746c12.836,0,23.991,4.431,33.465,13.295
		c3.179,2.963,5.654,5.928,7.427,8.832c1.803,2.902,3.485,6.693,5.012,11.429h-24.693c-2.751-4.797-5.776-8.221-9.076-10.298
		c-3.331-2.049-7.396-3.086-12.225-3.086c-6.632,0-12.407,2.138-17.358,6.448c-6.144,5.317-9.23,12.773-9.23,22.34
		c0,8.436,2.782,15.433,8.313,20.997c5.074,5.195,11.492,7.793,19.253,7.793C647.354,372.129,654.14,367.849,659.396,359.292
		L659.396,359.292z M535.729,294.38c14.395,0,26.436,5.41,36.186,16.228c8.22,9.077,12.346,19.958,12.346,32.64
		c0,15.128-5.593,27.475-16.747,37.042c-9.291,8.006-20.079,12.009-32.305,12.009c-7.762,0-15.219-1.926-22.37-5.745
		c-7.823-4.127-14.026-9.869-18.612-17.205c-5.012-8.008-7.517-16.962-7.517-26.804c0-13.813,5.439-25.67,16.288-35.512
		C511.983,298.841,522.925,294.625,535.729,294.38L535.729,294.38z M535.668,314.551c-7.885,0-14.669,3.332-20.322,9.963
		c-4.431,5.132-6.633,11.307-6.633,18.458c0,9.688,3.302,17.329,9.932,22.89c4.951,4.187,10.607,6.267,16.933,6.267
		c8.19,0,14.823-3.148,19.956-9.413c4.493-5.44,6.724-11.827,6.724-19.103c0-9.106-3.271-16.563-9.841-22.43
		C547.587,316.874,541.995,314.673,535.668,314.551L535.668,314.551z M384.689,389.182V266.875h22.004v39.026
		c7.396-7.671,16.93-11.521,28.635-11.521c8.527,0,16.656,2.415,24.327,7.275c7.245,4.583,12.744,11.093,16.564,19.528
		c3.393,7.364,5.104,14.79,5.104,22.339c0,5.746-0.979,11.461-2.966,17.208c-1.956,5.742-4.706,10.787-8.219,15.158
		c-8.65,10.938-20.081,16.409-34.321,16.409c-6.266,0-11.857-1.101-16.747-3.331c-4.892-2.23-9.627-5.807-14.211-10.787v11.002
		H384.689L384.689,389.182z M432.548,314.551c-7.641,0-14.088,2.718-19.346,8.159c-5.316,5.501-7.978,12.226-7.978,20.172
		c0,9.442,3.302,17.022,9.936,22.706c5.071,4.37,11.031,6.541,17.814,6.541c7.611,0,13.906-2.721,18.919-8.162
		c4.95-5.376,7.426-12.316,7.426-20.81c0-8.069-2.385-14.701-7.151-19.896C446.912,317.577,440.37,314.673,432.548,314.551
		L432.548,314.551z M351.519,297.496v46.912c0,9.077-1.587,15.954-4.797,20.66c-3.21,4.706-7.915,7.061-14.088,7.061
		c-6.42,0-11.4-2.751-14.946-8.223c-2.627-4.125-3.941-10.605-3.941-19.498v-46.912h-22.005v53.819
		c0,7.52,0.856,13.601,2.597,18.308c1.743,4.676,4.676,8.922,8.802,12.743c7.335,6.631,16.137,9.932,26.343,9.932
		c5.289,0,9.657-0.886,13.142-2.688c3.516-1.773,7.091-4.95,10.728-9.475v9.047h20.17v-91.686H351.519z"/>
	<path fill-rule="evenodd" clip-rule="evenodd" fill="#FFFFFF" d="M38.638,260.731h132.11h2.727v2.727v132.11v2.727h-2.727H38.638
		h-2.727v-2.727v-132.11v-2.727H38.638L38.638,260.731z M168.021,266.185H41.364v126.657h126.657V266.185z"/>
	<path fill-rule="evenodd" clip-rule="evenodd" fill="#FFFFFF" d="M104.692,299.212c-8.367,0-15.942,3.392-21.426,8.875
		s-8.875,13.059-8.875,21.426c0,8.368,3.392,15.943,8.875,21.426c5.483,5.483,13.059,8.874,21.426,8.874
		c8.368,0,15.943-3.391,21.426-8.874c5.482-5.482,8.874-13.059,8.874-21.426c0-8.367-3.392-15.943-8.874-21.426
		C120.635,302.604,113.06,299.212,104.692,299.212L104.692,299.212z M79.41,304.232c6.471-6.471,15.41-10.473,25.282-10.473
		c9.873,0,18.812,4.002,25.282,10.473c6.471,6.47,10.473,15.409,10.473,25.281c0,9.873-4.002,18.812-10.473,25.282
		c-6.47,6.471-15.409,10.473-25.282,10.473c-9.873,0-18.812-4.002-25.282-10.473c-6.47-6.47-10.472-15.409-10.472-25.282
		C68.938,319.641,72.94,310.702,79.41,304.232L79.41,304.232z M154.073,280.133v98.762H55.312v-98.762H154.073z"/>
</g>
<g display="none">
	<path display="inline" fill-rule="evenodd" clip-rule="evenodd" fill="#1A1A1A" d="M266.807,177.81v-73.624h13.688v31.845
		l23.18-31.845h16.06l-27.761,36.223l27.761,37.4h-16.06l-23.18-32.286v32.286H266.807L266.807,177.81z M537.652,159.905h14.864
		c-2.042,5.667-5.077,10.118-9.088,13.375c-2.483,2.023-5.371,3.606-8.664,4.765c-3.275,1.159-6.55,1.729-9.825,1.729
		c-5.536,0-10.853-1.618-15.949-4.856c-4.452-2.851-7.837-6.604-10.173-11.277c-2.152-4.213-3.238-8.739-3.238-13.559
		c0-8.591,3.219-15.784,9.64-21.579c5.647-5.115,12.197-7.672,19.666-7.672c7.727,0,14.441,2.667,20.145,8.003
		c1.913,1.784,3.403,3.568,4.471,5.316c1.085,1.747,2.098,4.029,3.017,6.88h-14.864c-1.656-2.888-3.478-4.949-5.464-6.199
		c-2.005-1.233-4.452-1.858-7.358-1.858c-3.992,0-7.469,1.287-10.449,3.881c-3.698,3.201-5.557,7.689-5.557,13.447
		c0,5.078,1.675,9.291,5.004,12.64c3.055,3.127,6.918,4.691,11.59,4.691C530.403,167.632,534.488,165.056,537.652,159.905
		L537.652,159.905z M463.21,120.831c8.665,0,15.913,3.257,21.782,9.769c4.948,5.464,7.432,12.014,7.432,19.648
		c0,9.106-3.366,16.539-10.081,22.297c-5.593,4.82-12.087,7.229-19.446,7.229c-4.672,0-9.161-1.159-13.466-3.459
		c-4.709-2.483-8.443-5.94-11.204-10.356c-3.017-4.82-4.524-10.211-4.524-16.135c0-8.315,3.274-15.453,9.805-21.377
		C448.916,123.516,455.502,120.978,463.21,120.831L463.21,120.831z M463.173,132.973c-4.746,0-8.83,2.005-12.233,5.998
		c-2.667,3.09-3.992,6.806-3.992,11.111c0,5.832,1.987,10.431,5.979,13.779c2.98,2.521,6.385,3.772,10.192,3.772
		c4.931,0,8.923-1.895,12.013-5.666c2.705-3.275,4.048-7.12,4.048-11.499c0-5.482-1.969-9.97-5.924-13.502
		C470.348,134.371,466.981,133.046,463.173,132.973L463.173,132.973z M372.29,177.897v-73.624h13.245v23.492
		c4.452-4.618,10.191-6.936,17.237-6.936c5.133,0,10.026,1.454,14.644,4.379c4.361,2.758,7.672,6.677,9.972,11.755
		c2.042,4.433,3.072,8.903,3.072,13.447c0,3.459-0.589,6.899-1.785,10.358c-1.178,3.457-2.833,6.494-4.947,9.125
		c-5.207,6.584-12.088,9.878-20.66,9.878c-3.771,0-7.138-0.662-10.081-2.005c-2.944-1.343-5.795-3.495-8.555-6.493v6.623H372.29
		L372.29,177.897z M401.099,132.973c-4.6,0-8.48,1.636-11.646,4.911c-3.2,3.312-4.802,7.359-4.802,12.143
		c0,5.684,1.987,10.247,5.98,13.668c3.053,2.631,6.641,3.938,10.724,3.938c4.582,0,8.371-1.638,11.389-4.913
		c2.979-3.237,4.47-7.414,4.47-12.527c0-4.857-1.436-8.849-4.305-11.977C409.745,134.794,405.808,133.046,401.099,132.973
		L401.099,132.973z M352.322,122.707v28.239c0,5.464-0.956,9.604-2.888,12.437s-4.765,4.25-8.48,4.25
		c-3.864,0-6.862-1.656-8.997-4.949c-1.582-2.483-2.373-6.384-2.373-11.737v-28.239h-13.246v32.397
		c0,4.526,0.515,8.188,1.563,11.021c1.049,2.814,2.814,5.371,5.298,7.671c4.416,3.992,9.714,5.979,15.858,5.979
		c3.184,0,5.813-0.533,7.911-1.618c2.116-1.067,4.269-2.98,6.458-5.704v5.446h12.142v-55.191H352.322z"/>
	<path display="inline" fill-rule="evenodd" clip-rule="evenodd" fill="#1A1A1A" d="M163.98,100.576h79.525h1.642v1.642v79.525
		v1.642h-1.642H163.98h-1.642v-1.642v-79.525v-1.642H163.98L163.98,100.576z M241.863,103.858h-76.242v76.242h76.242V103.858z"/>
	<path display="inline" fill-rule="evenodd" clip-rule="evenodd" fill="#1A1A1A" d="M203.742,123.74
		c-5.037,0-9.597,2.042-12.897,5.342s-5.342,7.861-5.342,12.897c0,5.037,2.042,9.597,5.342,12.898
		c3.301,3.3,7.861,5.342,12.897,5.342c5.037,0,9.597-2.042,12.898-5.342c3.3-3.3,5.342-7.861,5.342-12.898
		c0-5.037-2.042-9.597-5.342-12.897C213.339,125.781,208.779,123.74,203.742,123.74L203.742,123.74z M188.523,126.761
		c3.895-3.895,9.276-6.304,15.219-6.304c5.943,0,11.324,2.409,15.219,6.304c3.895,3.895,6.304,9.275,6.304,15.218
		c0,5.943-2.409,11.324-6.304,15.219c-3.895,3.895-9.275,6.304-15.219,6.304c-5.943,0-11.324-2.409-15.219-6.304
		c-3.895-3.895-6.304-9.275-6.304-15.219C182.22,136.037,184.629,130.656,188.523,126.761L188.523,126.761z M233.468,112.254v59.451
		h-59.451v-59.451H233.468z"/>
</g>
</svg>
