<?xml version="1.0" encoding="utf-8"?>
<!-- Generator: Adobe Illustrator 16.0.0, SVG Export Plug-In . SVG Version: 6.00 Build 0)  -->
<!DOCTYPE svg PUBLIC "-//W3C//DTD SVG 1.1//EN" "http://www.w3.org/Graphics/SVG/1.1/DTD/svg11.dtd">
<svg version="1.1" id="Layer_1" xmlns="http://www.w3.org/2000/svg" xmlns:xlink="http://www.w3.org/1999/xlink" x="0px" y="0px"
	 width="1000px" height="324.5px" viewBox="0 0 1000 324.5" enable-background="new 0 0 1000 324.5" xml:space="preserve">
<g>
	<g>
		<defs>
			<path id="SVGID_1_" d="M317.375,126.036c-7.533,6.35-20.056,16.327-36.606,27.525c-25.324,17.14-60.062,37.122-100.809,51.293
				c-0.556,0.192-0.871,0.777-0.729,1.349c0.128,0.509,0.59,0.856,1.102,0.856c0.058,0,0.117-0.003,0.177-0.015
				c0.674-0.104,49.512-8.145,99.778-32.525c-6.631,59.83-57.478,106.52-119.048,106.52c-42.759,0-80.335-22.535-101.538-56.335
				c38.709-9.089,90.819-22.187,124.035-33.973c26.939-9.561,64.718-28.142,95.436-50.42c12.998-9.427,24.729-19.515,33.841-29.867
				c13.19-14.984,20.894-30.509,18.977-45.36c-6.106-47.299-72.646-50.697-73.317-50.725c-0.518-0.024-1.028,0.343-1.152,0.873
				c-0.126,0.529,0.144,1.073,0.64,1.296c24.101,10.773,35.995,21.993,36.361,34.299c0.145,4.816-1.441,9.849-4.743,15.12
				c-5.343,8.532-15.237,17.69-29.783,27.575c-9.976,6.777-22.117,13.891-36.502,21.381
				c-59.954,31.219-134.844,44.447-181.963,49.959c-18.611,2.178-32.881,3.152-40.19,3.555c1.044,23.541,7.214,45.755,17.392,65.602
				c26.547,51.767,80.438,87.299,142.508,87.299c88.27,0,160.083-71.809,160.083-160.077c0-3.562-0.16-7.085-0.388-10.588
				C320.383,142.253,319.177,134.036,317.375,126.036z"/>
		</defs>
		<linearGradient id="SVGID_2_" gradientUnits="userSpaceOnUse" x1="1.3408" y1="167.8359" x2="332.2813" y2="167.8359">
			<stop  offset="0" style="stop-color:#2C5291"/>
			<stop  offset="1" style="stop-color:#00AEEF"/>
		</linearGradient>
		<use xlink:href="#SVGID_1_"  overflow="visible" fill="url(#SVGID_2_)"/>
		<clipPath id="SVGID_3_">
			<use xlink:href="#SVGID_1_"  overflow="visible"/>
		</clipPath>
		<linearGradient id="SVGID_4_" gradientUnits="userSpaceOnUse" x1="0.959" y1="277.0669" x2="335.308" y2="92.4948">
			<stop  offset="0" style="stop-color:#777B7E"/>
			<stop  offset="0.5269" style="stop-color:#A7A9AC"/>
			<stop  offset="1" style="stop-color:#626365"/>
		</linearGradient>
		<rect x="-146.308" y="-12.776" clip-path="url(#SVGID_3_)" fill="url(#SVGID_4_)" width="658.108" height="378.98"/>
		<linearGradient id="SVGID_5_" gradientUnits="userSpaceOnUse" x1="59.7026" y1="228.2676" x2="294.6509" y2="228.2676">
			<stop  offset="0" style="stop-color:#626365"/>
			<stop  offset="0.2903" style="stop-color:#A7A9AC"/>
			<stop  offset="0.5278" style="stop-color:#A4A6A9"/>
			<stop  offset="0.6747" style="stop-color:#9C9EA1"/>
			<stop  offset="0.797" style="stop-color:#8E9092"/>
			<stop  offset="0.9052" style="stop-color:#7A7C7E"/>
			<stop  offset="1" style="stop-color:#626365"/>
		</linearGradient>
		<path clip-path="url(#SVGID_3_)" fill="url(#SVGID_5_)" d="M280.288,174.519l14.223-6.683c0,0,7.666,86.785-90.583,115.158
			c-98.249,28.371-144.226-58.291-144.226-58.291l25.085,3.564l52.715,14.636l47.3,1.134l27.068-10.97l7.811-4.8l19.799-10.708
			c0,0,7.942-6.429,9.077-7.943c1.135-1.511,7.944-10.59,9.834-12.481c1.89-1.891-1.891,1.891-1.891,1.891L280.288,174.519z"/>
		<linearGradient id="SVGID_6_" gradientUnits="userSpaceOnUse" x1="51.3018" y1="141.5376" x2="285.0451" y2="58.3283">
			<stop  offset="0" style="stop-color:#626365"/>
			<stop  offset="0.2903" style="stop-color:#A7A9AC"/>
			<stop  offset="0.5278" style="stop-color:#A4A6A9"/>
			<stop  offset="0.6747" style="stop-color:#9C9EA1"/>
			<stop  offset="0.797" style="stop-color:#8E9092"/>
			<stop  offset="0.9052" style="stop-color:#7A7C7E"/>
			<stop  offset="1" style="stop-color:#626365"/>
		</linearGradient>
		<path clip-path="url(#SVGID_3_)" fill="url(#SVGID_6_)" d="M1.463,168.408c0,0,104.693,6.162,180.716-20.565
			c76.022-26.728,189.337-105.011,75.342-132.612l-6.506,24.956l-8.271,30.625l-77.396,42.361L75.149,130.57L2.523,163.098
			l-4.351,4.738L1.463,168.408z"/>
		<linearGradient id="SVGID_7_" gradientUnits="userSpaceOnUse" x1="52.9873" y1="175.4482" x2="274.1261" y2="47.7737">
			<stop  offset="0" style="stop-color:#FFFFFF;stop-opacity:0.95"/>
			<stop  offset="0.2023" style="stop-color:#FFFFFF;stop-opacity:0.6512"/>
			<stop  offset="0.5968" style="stop-color:#FFFFFF;stop-opacity:0"/>
		</linearGradient>
		<circle opacity="0.6" clip-path="url(#SVGID_3_)" fill="url(#SVGID_7_)" cx="163.557" cy="111.611" r="127.653"/>
	</g>
	<g display="none">
		<linearGradient id="SVGID_8_" gradientUnits="userSpaceOnUse" x1="-72.1807" y1="143.2305" x2="263.6808" y2="-103.3696">
			<stop  offset="0" style="stop-color:#2C5291"/>
			<stop  offset="1" style="stop-color:#00AEEF"/>
		</linearGradient>
		<path display="inline" fill="url(#SVGID_8_)" d="M72.833,45.824c8.822-12.104,19.39-23.844,32.011-34.361
			C85.827,18.65,68.536,29.35,53.751,42.784C59.539,43.972,65.931,45.033,72.833,45.824z"/>
		<linearGradient id="SVGID_9_" gradientUnits="userSpaceOnUse" x1="-62.3008" y1="156.6904" x2="273.5661" y2="-89.9137">
			<stop  offset="0" style="stop-color:#2C5291"/>
			<stop  offset="1" style="stop-color:#00AEEF"/>
		</linearGradient>
		<path display="inline" fill="url(#SVGID_9_)" d="M40.955,107.413C46.7,91.092,55.142,72.168,67.415,53.638
			c-7.244-0.41-14.737-1.127-22.492-2.211c-14.176,15.012-25.469,32.759-33.031,52.357
			C17.346,104.825,27.444,106.467,40.955,107.413z"/>
		<linearGradient id="SVGID_10_" gradientUnits="userSpaceOnUse" x1="-63.686" y1="154.7969" x2="272.1721" y2="-91.8009">
			<stop  offset="0" style="stop-color:#2C5291"/>
			<stop  offset="1" style="stop-color:#00AEEF"/>
		</linearGradient>
		<path display="inline" fill="url(#SVGID_10_)" d="M78.971,46.44c8.998,0.773,18.751,1.044,29.07,0.517
			c2.479-14.381,6.318-28.389,12.125-40.417c-3.922,1.042-7.798,2.204-11.596,3.531C99.985,18.12,89.282,29.988,78.971,46.44z"/>
		<linearGradient id="SVGID_11_" gradientUnits="userSpaceOnUse" x1="-27.0381" y1="204.7183" x2="308.83" y2="-41.8868">
			<stop  offset="0" style="stop-color:#2C5291"/>
			<stop  offset="1" style="stop-color:#00AEEF"/>
		</linearGradient>
		<path display="inline" fill="url(#SVGID_11_)" d="M104.095,111.611c-16.399,3.083-34.416,5.221-54.054,5.95
			c-2.208,9.441-4.025,19.527-5.364,30.282c17.479-2.119,38.462-5.279,60.944-9.961
			C105.111,132.336,104.406,123.052,104.095,111.611z"/>
		<linearGradient id="SVGID_12_" gradientUnits="userSpaceOnUse" x1="-45.9854" y1="178.9102" x2="289.8792" y2="-67.6923">
			<stop  offset="0" style="stop-color:#2C5291"/>
			<stop  offset="1" style="stop-color:#00AEEF"/>
		</linearGradient>
		<path display="inline" fill="url(#SVGID_12_)" d="M103.97,105.297c-0.19-15.549,0.444-34.156,3.142-52.519
			c-10.16,1.05-21.032,1.505-32.599,1.166c-8.367,14.693-16.181,32.58-22.049,54.05C67.163,108.459,84.706,107.947,103.97,105.297z"
			/>
		<linearGradient id="SVGID_13_" gradientUnits="userSpaceOnUse" x1="-55.4155" y1="166.0732" x2="280.454" y2="-80.5328">
			<stop  offset="0" style="stop-color:#2C5291"/>
			<stop  offset="1" style="stop-color:#00AEEF"/>
		</linearGradient>
		<path display="inline" fill="url(#SVGID_13_)" d="M160.174,37.374c-6.905-13.168-15.516-25.249-26.181-33.85
			c-3.914,0.674-7.792,1.454-11.604,2.407c-2.527,8.182-5.795,21.649-7.556,40.566C129.137,45.295,144.404,42.498,160.174,37.374z"
			/>
		<linearGradient id="SVGID_14_" gradientUnits="userSpaceOnUse" x1="1.1084" y1="243.0449" x2="336.9688" y2="-3.5545">
			<stop  offset="0" style="stop-color:#2C5291"/>
			<stop  offset="1" style="stop-color:#00AEEF"/>
		</linearGradient>
		<path display="inline" fill="url(#SVGID_14_)" d="M225.271,59.299c-6.136,5.026-17.766,13.656-34.959,22.773
			c2.946,8.475,5.614,17.807,7.934,27.968c8.621-3.612,17.076-7.523,25.249-11.779c6.938-3.613,13.346-7.138,19.25-10.58
			C239.834,81.856,234.068,71.292,225.271,59.299z"/>
		<linearGradient id="SVGID_15_" gradientUnits="userSpaceOnUse" x1="-45.1226" y1="180.0801" x2="290.7328" y2="-66.5156">
			<stop  offset="0" style="stop-color:#2C5291"/>
			<stop  offset="1" style="stop-color:#00AEEF"/>
		</linearGradient>
		<path display="inline" fill="url(#SVGID_15_)" d="M37.525,117.83c-9.651,0.055-19.667-0.233-30.053-0.913
			c-3.225,11.173-5.303,22.828-6.009,34.852c5.729-0.317,15.65-0.985,28.521-2.288C30.895,143.82,33.065,132.365,37.525,117.83z"/>
		<linearGradient id="SVGID_16_" gradientUnits="userSpaceOnUse" x1="-9.0747" y1="229.1782" x2="326.7867" y2="-17.4219">
			<stop  offset="0" style="stop-color:#2C5291"/>
			<stop  offset="1" style="stop-color:#00AEEF"/>
		</linearGradient>
		<path display="inline" fill="url(#SVGID_16_)" d="M178.91,87.774c-16.973,7.993-38.167,15.861-63.632,21.543
			c0.76,8.136,1.808,16.718,3.188,25.751c21.694-4.982,44.368-11.409,66.336-19.687C183.847,109.587,181.991,99.628,178.91,87.774z"
			/>
		<linearGradient id="SVGID_17_" gradientUnits="userSpaceOnUse" x1="-51.4072" y1="171.5273" x2="284.4592" y2="-75.0765">
			<stop  offset="0" style="stop-color:#2C5291"/>
			<stop  offset="1" style="stop-color:#00AEEF"/>
		</linearGradient>
		<path display="inline" fill="url(#SVGID_17_)" d="M135.464,3.272c7.9,5.266,19.659,15.008,31.401,31.793
			c8.168-2.977,16.45-6.587,24.786-10.953c-11.817-9.281-25.684-17.354-41.686-22.516C145.069,1.94,140.232,2.497,135.464,3.272z"/>
		<linearGradient id="SVGID_18_" gradientUnits="userSpaceOnUse" x1="-23.6582" y1="209.3203" x2="312.2064" y2="-37.2822">
			<stop  offset="0" style="stop-color:#2C5291"/>
			<stop  offset="1" style="stop-color:#00AEEF"/>
		</linearGradient>
		<path display="inline" fill="url(#SVGID_18_)" d="M161.24,1.158c-1.7,0-3.382,0.071-5.068,0.125
			c12.7,3.357,28.021,9.02,43.208,18.562c3.479-2.01,6.965-4.142,10.453-6.429c0,0-3.192,2.875-9.418,7.092
			c19.734,12.638,39.117,31.911,52.082,61.27c2.62-1.651,5.126-3.287,7.5-4.897c9.888-6.719,17.574-13.096,23.194-19.177
			C253.805,23.144,210.054,1.158,161.24,1.158z"/>
		<linearGradient id="SVGID_19_" gradientUnits="userSpaceOnUse" x1="-31.3989" y1="198.7671" x2="304.4569" y2="-47.829">
			<stop  offset="0" style="stop-color:#2C5291"/>
			<stop  offset="1" style="stop-color:#00AEEF"/>
		</linearGradient>
		<path display="inline" fill="url(#SVGID_19_)" d="M114.383,51.914c-1.054,14.378-1.198,31.607,0.395,51.69
			c19.972-3.499,41.466-9.392,63.333-18.853c-3.726-13.78-9.069-29.738-16.495-44.564C148.438,45.098,132.651,49.445,114.383,51.914
			z"/>
		<linearGradient id="SVGID_20_" gradientUnits="userSpaceOnUse" x1="-23.3848" y1="209.6938" x2="312.4818" y2="-36.9101">
			<stop  offset="0" style="stop-color:#2C5291"/>
			<stop  offset="1" style="stop-color:#00AEEF"/>
		</linearGradient>
		<path display="inline" fill="url(#SVGID_20_)" d="M193.027,25.208c-6.404,3.832-14.607,8.155-24.533,12.268
			c7.386,10.984,14.673,24.804,20.905,42.085c11.832-5.777,23.715-12.65,35.467-20.808C216.793,47.823,206.22,35.814,193.027,25.208
			z"/>
	</g>
	<g>
		<linearGradient id="SVGID_21_" gradientUnits="userSpaceOnUse" x1="-72.1807" y1="143.2305" x2="263.6808" y2="-103.3696">
			<stop  offset="0" style="stop-color:#E11D07"/>
			<stop  offset="1" style="stop-color:#E84938"/>
		</linearGradient>
		<path fill="url(#SVGID_21_)" d="M72.833,45.824c8.822-12.104,19.39-23.844,32.011-34.361C85.827,18.65,68.536,29.35,53.751,42.784
			C59.539,43.972,65.931,45.033,72.833,45.824z"/>
		<linearGradient id="SVGID_22_" gradientUnits="userSpaceOnUse" x1="-62.3008" y1="156.6904" x2="273.5661" y2="-89.9137">
			<stop  offset="0" style="stop-color:#E11D07"/>
			<stop  offset="1" style="stop-color:#E84938"/>
		</linearGradient>
		<path fill="url(#SVGID_22_)" d="M40.955,107.413C46.7,91.092,55.142,72.168,67.415,53.638c-7.244-0.41-14.737-1.127-22.492-2.211
			c-14.176,15.012-25.469,32.759-33.031,52.357C17.346,104.825,27.444,106.467,40.955,107.413z"/>
		<linearGradient id="SVGID_23_" gradientUnits="userSpaceOnUse" x1="-63.686" y1="154.7969" x2="272.1721" y2="-91.8009">
			<stop  offset="0" style="stop-color:#E11D07"/>
			<stop  offset="1" style="stop-color:#E84938"/>
		</linearGradient>
		<path fill="url(#SVGID_23_)" d="M78.971,46.44c8.998,0.773,18.751,1.044,29.07,0.517c2.479-14.381,6.318-28.389,12.125-40.417
			c-3.922,1.042-7.798,2.204-11.596,3.531C99.985,18.12,89.282,29.988,78.971,46.44z"/>
		<linearGradient id="SVGID_24_" gradientUnits="userSpaceOnUse" x1="-27.0381" y1="204.7183" x2="308.83" y2="-41.8868">
			<stop  offset="0" style="stop-color:#E11D07"/>
			<stop  offset="1" style="stop-color:#E84938"/>
		</linearGradient>
		<path fill="url(#SVGID_24_)" d="M104.095,111.611c-16.399,3.083-34.416,5.221-54.054,5.95c-2.208,9.441-4.025,19.527-5.364,30.282
			c17.479-2.119,38.462-5.279,60.944-9.961C105.111,132.336,104.406,123.052,104.095,111.611z"/>
		<linearGradient id="SVGID_25_" gradientUnits="userSpaceOnUse" x1="-45.9854" y1="178.9102" x2="289.8792" y2="-67.6923">
			<stop  offset="0" style="stop-color:#E11D07"/>
			<stop  offset="1" style="stop-color:#E84938"/>
		</linearGradient>
		<path fill="url(#SVGID_25_)" d="M103.97,105.297c-0.19-15.549,0.444-34.156,3.142-52.519c-10.16,1.05-21.032,1.505-32.599,1.166
			c-8.367,14.693-16.181,32.58-22.049,54.05C67.163,108.459,84.706,107.947,103.97,105.297z"/>
		<linearGradient id="SVGID_26_" gradientUnits="userSpaceOnUse" x1="-55.4155" y1="166.0732" x2="280.454" y2="-80.5328">
			<stop  offset="0" style="stop-color:#E11D07"/>
			<stop  offset="1" style="stop-color:#E84938"/>
		</linearGradient>
		<path fill="url(#SVGID_26_)" d="M160.174,37.374c-6.905-13.168-15.516-25.249-26.181-33.85c-3.914,0.674-7.792,1.454-11.604,2.407
			c-2.527,8.182-5.795,21.649-7.556,40.566C129.137,45.295,144.404,42.498,160.174,37.374z"/>
		<linearGradient id="SVGID_27_" gradientUnits="userSpaceOnUse" x1="1.1084" y1="243.0449" x2="336.9688" y2="-3.5545">
			<stop  offset="0" style="stop-color:#E11D07"/>
			<stop  offset="1" style="stop-color:#E84938"/>
		</linearGradient>
		<path fill="url(#SVGID_27_)" d="M225.271,59.299c-6.136,5.026-17.766,13.656-34.959,22.773c2.946,8.475,5.614,17.807,7.934,27.968
			c8.621-3.612,17.076-7.523,25.249-11.779c6.938-3.613,13.346-7.138,19.25-10.58C239.834,81.856,234.068,71.292,225.271,59.299z"/>
		<linearGradient id="SVGID_28_" gradientUnits="userSpaceOnUse" x1="-45.1226" y1="180.0801" x2="290.7328" y2="-66.5156">
			<stop  offset="0" style="stop-color:#E11D07"/>
			<stop  offset="1" style="stop-color:#E84938"/>
		</linearGradient>
		<path fill="url(#SVGID_28_)" d="M37.525,117.83c-9.651,0.055-19.667-0.233-30.053-0.913c-3.225,11.173-5.303,22.828-6.009,34.852
			c5.729-0.317,15.65-0.985,28.521-2.288C30.895,143.82,33.065,132.365,37.525,117.83z"/>
		<linearGradient id="SVGID_29_" gradientUnits="userSpaceOnUse" x1="-9.0747" y1="229.1782" x2="326.7867" y2="-17.4219">
			<stop  offset="0" style="stop-color:#E11D07"/>
			<stop  offset="1" style="stop-color:#E84938"/>
		</linearGradient>
		<path fill="url(#SVGID_29_)" d="M178.91,87.774c-16.973,7.993-38.167,15.861-63.632,21.543c0.76,8.136,1.808,16.718,3.188,25.751
			c21.694-4.982,44.368-11.409,66.336-19.687C183.847,109.587,181.991,99.628,178.91,87.774z"/>
		<linearGradient id="SVGID_30_" gradientUnits="userSpaceOnUse" x1="-51.4072" y1="171.5273" x2="284.4592" y2="-75.0765">
			<stop  offset="0" style="stop-color:#E11D07"/>
			<stop  offset="1" style="stop-color:#E84938"/>
		</linearGradient>
		<path fill="url(#SVGID_30_)" d="M135.464,3.272c7.9,5.266,19.659,15.008,31.401,31.793c8.168-2.977,16.45-6.587,24.786-10.953
			c-11.817-9.281-25.684-17.354-41.686-22.516C145.069,1.94,140.232,2.497,135.464,3.272z"/>
		<linearGradient id="SVGID_31_" gradientUnits="userSpaceOnUse" x1="-23.6582" y1="209.3203" x2="312.2064" y2="-37.2822">
			<stop  offset="0" style="stop-color:#E11D07"/>
			<stop  offset="1" style="stop-color:#E84938"/>
		</linearGradient>
		<path fill="url(#SVGID_31_)" d="M161.24,1.158c-1.7,0-3.382,0.071-5.068,0.125c12.7,3.357,28.021,9.02,43.208,18.562
			c3.479-2.01,6.965-4.142,10.453-6.429c0,0-3.192,2.875-9.418,7.092c19.734,12.638,39.117,31.911,52.082,61.27
			c2.62-1.651,5.126-3.287,7.5-4.897c9.888-6.719,17.574-13.096,23.194-19.177C253.805,23.144,210.054,1.158,161.24,1.158z"/>
		<linearGradient id="SVGID_32_" gradientUnits="userSpaceOnUse" x1="-31.3989" y1="198.7671" x2="304.4569" y2="-47.829">
			<stop  offset="0" style="stop-color:#E11D07"/>
			<stop  offset="1" style="stop-color:#E84938"/>
		</linearGradient>
		<path fill="url(#SVGID_32_)" d="M114.383,51.914c-1.054,14.378-1.198,31.607,0.395,51.69c19.972-3.499,41.466-9.392,63.333-18.853
			c-3.726-13.78-9.069-29.738-16.495-44.564C148.438,45.098,132.651,49.445,114.383,51.914z"/>
		<linearGradient id="SVGID_33_" gradientUnits="userSpaceOnUse" x1="-23.3848" y1="209.6938" x2="312.4818" y2="-36.9101">
			<stop  offset="0" style="stop-color:#E11D07"/>
			<stop  offset="1" style="stop-color:#E84938"/>
		</linearGradient>
		<path fill="url(#SVGID_33_)" d="M193.027,25.208c-6.404,3.832-14.607,8.155-24.533,12.268
			c7.386,10.984,14.673,24.804,20.905,42.085c11.832-5.777,23.715-12.65,35.467-20.808C216.793,47.823,206.22,35.814,193.027,25.208
			z"/>
	</g>
	<g display="none">
		<linearGradient id="SVGID_34_" gradientUnits="userSpaceOnUse" x1="-72.1807" y1="143.2305" x2="263.6808" y2="-103.3696">
			<stop  offset="0" style="stop-color:#339574"/>
			<stop  offset="1" style="stop-color:#2ACC95"/>
		</linearGradient>
		<path display="inline" fill="url(#SVGID_34_)" d="M72.833,45.824c8.822-12.104,19.39-23.844,32.011-34.361
			C85.827,18.65,68.536,29.35,53.751,42.784C59.539,43.972,65.931,45.033,72.833,45.824z"/>
		<linearGradient id="SVGID_35_" gradientUnits="userSpaceOnUse" x1="-62.3008" y1="156.6904" x2="273.5661" y2="-89.9137">
			<stop  offset="0" style="stop-color:#339574"/>
			<stop  offset="1" style="stop-color:#2ACC95"/>
		</linearGradient>
		<path display="inline" fill="url(#SVGID_35_)" d="M40.955,107.413C46.7,91.092,55.142,72.168,67.415,53.638
			c-7.244-0.41-14.737-1.127-22.492-2.211c-14.176,15.012-25.469,32.759-33.031,52.357
			C17.346,104.825,27.444,106.467,40.955,107.413z"/>
		<linearGradient id="SVGID_36_" gradientUnits="userSpaceOnUse" x1="-63.686" y1="154.7969" x2="272.1721" y2="-91.8009">
			<stop  offset="0" style="stop-color:#339574"/>
			<stop  offset="1" style="stop-color:#2ACC95"/>
		</linearGradient>
		<path display="inline" fill="url(#SVGID_36_)" d="M78.971,46.44c8.998,0.773,18.751,1.044,29.07,0.517
			c2.479-14.381,6.318-28.389,12.125-40.417c-3.922,1.042-7.798,2.204-11.596,3.531C99.985,18.12,89.282,29.988,78.971,46.44z"/>
		<linearGradient id="SVGID_37_" gradientUnits="userSpaceOnUse" x1="-27.0381" y1="204.7183" x2="308.83" y2="-41.8868">
			<stop  offset="0" style="stop-color:#339574"/>
			<stop  offset="1" style="stop-color:#2ACC95"/>
		</linearGradient>
		<path display="inline" fill="url(#SVGID_37_)" d="M104.095,111.611c-16.399,3.083-34.416,5.221-54.054,5.95
			c-2.208,9.441-4.025,19.527-5.364,30.282c17.479-2.119,38.462-5.279,60.944-9.961
			C105.111,132.336,104.406,123.052,104.095,111.611z"/>
		<linearGradient id="SVGID_38_" gradientUnits="userSpaceOnUse" x1="-45.9854" y1="178.9102" x2="289.8792" y2="-67.6923">
			<stop  offset="0" style="stop-color:#339574"/>
			<stop  offset="1" style="stop-color:#2ACC95"/>
		</linearGradient>
		<path display="inline" fill="url(#SVGID_38_)" d="M103.97,105.297c-0.19-15.549,0.444-34.156,3.142-52.519
			c-10.16,1.05-21.032,1.505-32.599,1.166c-8.367,14.693-16.181,32.58-22.049,54.05C67.163,108.459,84.706,107.947,103.97,105.297z"
			/>
		<linearGradient id="SVGID_39_" gradientUnits="userSpaceOnUse" x1="-55.4155" y1="166.0732" x2="280.454" y2="-80.5328">
			<stop  offset="0" style="stop-color:#339574"/>
			<stop  offset="1" style="stop-color:#2ACC95"/>
		</linearGradient>
		<path display="inline" fill="url(#SVGID_39_)" d="M160.174,37.374c-6.905-13.168-15.516-25.249-26.181-33.85
			c-3.914,0.674-7.792,1.454-11.604,2.407c-2.527,8.182-5.795,21.649-7.556,40.566C129.137,45.295,144.404,42.498,160.174,37.374z"
			/>
		<linearGradient id="SVGID_40_" gradientUnits="userSpaceOnUse" x1="1.1084" y1="243.0449" x2="336.9688" y2="-3.5545">
			<stop  offset="0" style="stop-color:#339574"/>
			<stop  offset="1" style="stop-color:#2ACC95"/>
		</linearGradient>
		<path display="inline" fill="url(#SVGID_40_)" d="M225.271,59.299c-6.136,5.026-17.766,13.656-34.959,22.773
			c2.946,8.475,5.614,17.807,7.934,27.968c8.621-3.612,17.076-7.523,25.249-11.779c6.938-3.613,13.346-7.138,19.25-10.58
			C239.834,81.856,234.068,71.292,225.271,59.299z"/>
		<linearGradient id="SVGID_41_" gradientUnits="userSpaceOnUse" x1="-45.1226" y1="180.0801" x2="290.7328" y2="-66.5156">
			<stop  offset="0" style="stop-color:#339574"/>
			<stop  offset="1" style="stop-color:#2ACC95"/>
		</linearGradient>
		<path display="inline" fill="url(#SVGID_41_)" d="M37.525,117.83c-9.651,0.055-19.667-0.233-30.053-0.913
			c-3.225,11.173-5.303,22.828-6.009,34.852c5.729-0.317,15.65-0.985,28.521-2.288C30.895,143.82,33.065,132.365,37.525,117.83z"/>
		<linearGradient id="SVGID_42_" gradientUnits="userSpaceOnUse" x1="-9.0747" y1="229.1782" x2="326.7867" y2="-17.4219">
			<stop  offset="0" style="stop-color:#339574"/>
			<stop  offset="1" style="stop-color:#2ACC95"/>
		</linearGradient>
		<path display="inline" fill="url(#SVGID_42_)" d="M178.91,87.774c-16.973,7.993-38.167,15.861-63.632,21.543
			c0.76,8.136,1.808,16.718,3.188,25.751c21.694-4.982,44.368-11.409,66.336-19.687C183.847,109.587,181.991,99.628,178.91,87.774z"
			/>
		<linearGradient id="SVGID_43_" gradientUnits="userSpaceOnUse" x1="-51.4072" y1="171.5273" x2="284.4592" y2="-75.0765">
			<stop  offset="0" style="stop-color:#339574"/>
			<stop  offset="1" style="stop-color:#2ACC95"/>
		</linearGradient>
		<path display="inline" fill="url(#SVGID_43_)" d="M135.464,3.272c7.9,5.266,19.659,15.008,31.401,31.793
			c8.168-2.977,16.45-6.587,24.786-10.953c-11.817-9.281-25.684-17.354-41.686-22.516C145.069,1.94,140.232,2.497,135.464,3.272z"/>
		<linearGradient id="SVGID_44_" gradientUnits="userSpaceOnUse" x1="-23.6582" y1="209.3203" x2="312.2064" y2="-37.2822">
			<stop  offset="0" style="stop-color:#339574"/>
			<stop  offset="1" style="stop-color:#2ACC95"/>
		</linearGradient>
		<path display="inline" fill="url(#SVGID_44_)" d="M161.24,1.158c-1.7,0-3.382,0.071-5.068,0.125
			c12.7,3.357,28.021,9.02,43.208,18.562c3.479-2.01,6.965-4.142,10.453-6.429c0,0-3.192,2.875-9.418,7.092
			c19.734,12.638,39.117,31.911,52.082,61.27c2.62-1.651,5.126-3.287,7.5-4.897c9.888-6.719,17.574-13.096,23.194-19.177
			C253.805,23.144,210.054,1.158,161.24,1.158z"/>
		<linearGradient id="SVGID_45_" gradientUnits="userSpaceOnUse" x1="-31.3989" y1="198.7671" x2="304.4569" y2="-47.829">
			<stop  offset="0" style="stop-color:#339574"/>
			<stop  offset="1" style="stop-color:#2ACC95"/>
		</linearGradient>
		<path display="inline" fill="url(#SVGID_45_)" d="M114.383,51.914c-1.054,14.378-1.198,31.607,0.395,51.69
			c19.972-3.499,41.466-9.392,63.333-18.853c-3.726-13.78-9.069-29.738-16.495-44.564C148.438,45.098,132.651,49.445,114.383,51.914
			z"/>
		<linearGradient id="SVGID_46_" gradientUnits="userSpaceOnUse" x1="-23.3848" y1="209.6938" x2="312.4818" y2="-36.9101">
			<stop  offset="0" style="stop-color:#339574"/>
			<stop  offset="1" style="stop-color:#2ACC95"/>
		</linearGradient>
		<path display="inline" fill="url(#SVGID_46_)" d="M193.027,25.208c-6.404,3.832-14.607,8.155-24.533,12.268
			c7.386,10.984,14.673,24.804,20.905,42.085c11.832-5.777,23.715-12.65,35.467-20.808C216.793,47.823,206.22,35.814,193.027,25.208
			z"/>
	</g>
	<g display="none" opacity="0.4">
		<linearGradient id="SVGID_47_" gradientUnits="userSpaceOnUse" x1="-75.7202" y1="138.4326" x2="260.1691" y2="-108.188">
			<stop  offset="0" style="stop-color:#339574"/>
			<stop  offset="1" style="stop-color:#2ACC95"/>
		</linearGradient>
		<path display="inline" fill="url(#SVGID_47_)" d="M53.751,42.784c0.671,0.137,1.378,0.267,2.065,0.401
			c1.134-1.782,2.311-3.533,3.529-5.253C57.444,39.507,55.578,41.124,53.751,42.784z"/>
		<linearGradient id="SVGID_48_" gradientUnits="userSpaceOnUse" x1="-63.2573" y1="155.3882" x2="272.6057" y2="-91.2131">
			<stop  offset="0" style="stop-color:#339574"/>
			<stop  offset="1" style="stop-color:#2ACC95"/>
		</linearGradient>
		<path display="inline" fill="url(#SVGID_48_)" d="M44.923,51.427c-14.176,15.012-25.469,32.759-33.031,52.357
			c4.768,0.91,13.085,2.279,24.129,3.242c0.699-19.764,5.88-38.379,14.575-54.866C48.72,51.937,46.83,51.694,44.923,51.427z"/>
		<linearGradient id="SVGID_49_" gradientUnits="userSpaceOnUse" x1="-45.124" y1="180.0811" x2="290.7242" y2="-66.5094">
			<stop  offset="0" style="stop-color:#339574"/>
			<stop  offset="1" style="stop-color:#2ACC95"/>
		</linearGradient>
		<path display="inline" fill="url(#SVGID_49_)" d="M7.472,116.917c-3.225,11.173-5.303,22.828-6.009,34.852
			c5.729-0.317,15.65-0.985,28.521-2.288c0.826-5.134,2.695-15.043,6.362-27.686c-0.104-1.321-0.221-2.638-0.284-3.97
			C26.858,117.845,17.337,117.562,7.472,116.917z"/>
		<linearGradient id="SVGID_50_" gradientUnits="userSpaceOnUse" x1="7.7646" y1="252.1582" x2="343.6559" y2="5.5362">
			<stop  offset="0" style="stop-color:#339574"/>
			<stop  offset="1" style="stop-color:#2ACC95"/>
		</linearGradient>
		<path display="inline" fill="url(#SVGID_50_)" d="M283.191,57.703c-2.862-3.366-5.866-6.609-8.992-9.729
			c2.321,4.029,4.436,8.19,6.315,12.48C281.449,59.531,282.35,58.612,283.191,57.703z"/>
		<linearGradient id="SVGID_51_" gradientUnits="userSpaceOnUse" x1="-72.1855" y1="143.2354" x2="263.6757" y2="-103.3647">
			<stop  offset="0" style="stop-color:#339574"/>
			<stop  offset="1" style="stop-color:#2ACC95"/>
		</linearGradient>
		<path display="inline" fill="url(#SVGID_51_)" d="M104.844,11.463c-16.667,6.299-32.007,15.298-45.499,26.469
			c-1.218,1.72-2.395,3.471-3.529,5.253c5.239,1.023,10.915,1.94,17.017,2.639C81.655,33.72,92.223,21.98,104.844,11.463z"/>
		<linearGradient id="SVGID_52_" gradientUnits="userSpaceOnUse" x1="-2.1416" y1="79.9634" x2="218.9962" y2="-47.7106">
			<stop  offset="0" style="stop-color:#FFFFFF;stop-opacity:0.95"/>
			<stop  offset="0.2023" style="stop-color:#FFFFFF;stop-opacity:0.6512"/>
			<stop  offset="0.5968" style="stop-color:#FFFFFF;stop-opacity:0"/>
		</linearGradient>
		<path display="inline" opacity="0.6" fill="url(#SVGID_52_)" d="M104.844,11.463c-16.667,6.299-32.007,15.298-45.499,26.469
			c-1.218,1.72-2.395,3.471-3.529,5.253c5.239,1.023,10.915,1.94,17.017,2.639C81.655,33.72,92.223,21.98,104.844,11.463z"/>
		<linearGradient id="SVGID_53_" gradientUnits="userSpaceOnUse" x1="-61.1328" y1="158.2817" x2="274.7358" y2="-88.3237">
			<stop  offset="0" style="stop-color:#339574"/>
			<stop  offset="1" style="stop-color:#2ACC95"/>
		</linearGradient>
		<path display="inline" fill="url(#SVGID_53_)" d="M67.415,53.638c-5.462-0.309-11.068-0.794-16.819-1.479
			c-8.695,16.487-13.876,35.102-14.575,54.866c1.59,0.139,3.234,0.27,4.935,0.388C46.7,91.092,55.142,72.168,67.415,53.638z"/>
		<linearGradient id="SVGID_54_" gradientUnits="userSpaceOnUse" x1="9.7603" y1="100.5801" x2="230.8954" y2="-27.0924">
			<stop  offset="0" style="stop-color:#FFFFFF;stop-opacity:0.95"/>
			<stop  offset="0.2023" style="stop-color:#FFFFFF;stop-opacity:0.6512"/>
			<stop  offset="0.5968" style="stop-color:#FFFFFF;stop-opacity:0"/>
		</linearGradient>
		<path display="inline" opacity="0.6" fill="url(#SVGID_54_)" d="M67.415,53.638c-5.462-0.309-11.068-0.794-16.819-1.479
			c-8.695,16.487-13.876,35.102-14.575,54.866c1.59,0.139,3.234,0.27,4.935,0.388C46.7,91.092,55.142,72.168,67.415,53.638z"/>
		<linearGradient id="SVGID_55_" gradientUnits="userSpaceOnUse" x1="-63.6865" y1="154.7974" x2="272.1717" y2="-91.8004">
			<stop  offset="0" style="stop-color:#339574"/>
			<stop  offset="1" style="stop-color:#2ACC95"/>
		</linearGradient>
		<path display="inline" fill="url(#SVGID_55_)" d="M108.571,10.071c-8.586,8.048-19.289,19.917-29.6,36.369
			c8.998,0.773,18.751,1.044,29.07,0.517c2.479-14.381,6.318-28.389,12.125-40.417C116.245,7.582,112.369,8.744,108.571,10.071z"/>
		<linearGradient id="SVGID_56_" gradientUnits="userSpaceOnUse" x1="3.1914" y1="89.2017" x2="224.3309" y2="-38.4733">
			<stop  offset="0" style="stop-color:#FFFFFF;stop-opacity:0.95"/>
			<stop  offset="0.2023" style="stop-color:#FFFFFF;stop-opacity:0.6512"/>
			<stop  offset="0.5968" style="stop-color:#FFFFFF;stop-opacity:0"/>
		</linearGradient>
		<path display="inline" opacity="0.6" fill="url(#SVGID_56_)" d="M108.571,10.071c-8.586,8.048-19.289,19.917-29.6,36.369
			c8.998,0.773,18.751,1.044,29.07,0.517c2.479-14.381,6.318-28.389,12.125-40.417C116.245,7.582,112.369,8.744,108.571,10.071z"/>
		<linearGradient id="SVGID_57_" gradientUnits="userSpaceOnUse" x1="-27.0396" y1="204.7197" x2="308.8286" y2="-41.8853">
			<stop  offset="0" style="stop-color:#339574"/>
			<stop  offset="1" style="stop-color:#2ACC95"/>
		</linearGradient>
		<path display="inline" fill="url(#SVGID_57_)" d="M50.042,117.561c-2.208,9.441-4.025,19.527-5.364,30.282
			c17.479-2.119,38.462-5.279,60.944-9.961c-0.51-5.545-1.215-14.829-1.526-26.271C87.696,114.694,69.679,116.832,50.042,117.561z"
			/>
		<linearGradient id="SVGID_58_" gradientUnits="userSpaceOnUse" x1="38.5308" y1="150.4121" x2="259.6716" y2="22.7364">
			<stop  offset="0" style="stop-color:#FFFFFF;stop-opacity:0.95"/>
			<stop  offset="0.2023" style="stop-color:#FFFFFF;stop-opacity:0.6512"/>
			<stop  offset="0.5968" style="stop-color:#FFFFFF;stop-opacity:0"/>
		</linearGradient>
		<path display="inline" opacity="0.6" fill="url(#SVGID_58_)" d="M50.042,117.561c-2.208,9.441-4.025,19.527-5.364,30.282
			c17.479-2.119,38.462-5.279,60.944-9.961c-0.51-5.545-1.215-14.829-1.526-26.271C87.696,114.694,69.679,116.832,50.042,117.561z"
			/>
		<linearGradient id="SVGID_59_" gradientUnits="userSpaceOnUse" x1="-45.9854" y1="178.9102" x2="289.8792" y2="-67.6923">
			<stop  offset="0" style="stop-color:#339574"/>
			<stop  offset="1" style="stop-color:#2ACC95"/>
		</linearGradient>
		<path display="inline" fill="url(#SVGID_59_)" d="M74.513,53.944c-8.367,14.693-16.181,32.58-22.049,54.05
			c14.699,0.465,32.242-0.047,51.506-2.697c-0.19-15.549,0.444-34.156,3.142-52.519C96.952,53.829,86.08,54.284,74.513,53.944z"/>
		<linearGradient id="SVGID_60_" gradientUnits="userSpaceOnUse" x1="20.5518" y1="119.2793" x2="241.6901" y2="-8.395">
			<stop  offset="0" style="stop-color:#FFFFFF;stop-opacity:0.95"/>
			<stop  offset="0.2023" style="stop-color:#FFFFFF;stop-opacity:0.6512"/>
			<stop  offset="0.5968" style="stop-color:#FFFFFF;stop-opacity:0"/>
		</linearGradient>
		<path display="inline" opacity="0.6" fill="url(#SVGID_60_)" d="M74.513,53.944c-8.367,14.693-16.181,32.58-22.049,54.05
			c14.699,0.465,32.242-0.047,51.506-2.697c-0.19-15.549,0.444-34.156,3.142-52.519C96.952,53.829,86.08,54.284,74.513,53.944z"/>
		<linearGradient id="SVGID_61_" gradientUnits="userSpaceOnUse" x1="-55.4155" y1="166.0732" x2="280.454" y2="-80.5328">
			<stop  offset="0" style="stop-color:#339574"/>
			<stop  offset="1" style="stop-color:#2ACC95"/>
		</linearGradient>
		<path display="inline" fill="url(#SVGID_61_)" d="M160.174,37.374c-6.905-13.168-15.516-25.249-26.181-33.85
			c-3.914,0.674-7.792,1.454-11.604,2.407c-2.527,8.182-5.795,21.649-7.556,40.566C129.137,45.295,144.404,42.498,160.174,37.374z"
			/>
		<linearGradient id="SVGID_62_" gradientUnits="userSpaceOnUse" x1="8.4619" y1="98.3359" x2="229.6" y2="-29.3382">
			<stop  offset="0" style="stop-color:#FFFFFF;stop-opacity:0.95"/>
			<stop  offset="0.2023" style="stop-color:#FFFFFF;stop-opacity:0.6512"/>
			<stop  offset="0.5968" style="stop-color:#FFFFFF;stop-opacity:0"/>
		</linearGradient>
		<path display="inline" opacity="0.6" fill="url(#SVGID_62_)" d="M160.174,37.374c-6.905-13.168-15.516-25.249-26.181-33.85
			c-3.914,0.674-7.792,1.454-11.604,2.407c-2.527,8.182-5.795,21.649-7.556,40.566C129.137,45.295,144.404,42.498,160.174,37.374z"
			/>
		<linearGradient id="SVGID_63_" gradientUnits="userSpaceOnUse" x1="1.1074" y1="243.0454" x2="336.9678" y2="-3.554">
			<stop  offset="0" style="stop-color:#339574"/>
			<stop  offset="1" style="stop-color:#2ACC95"/>
		</linearGradient>
		<path display="inline" fill="url(#SVGID_63_)" d="M190.312,82.072c2.946,8.475,5.614,17.807,7.934,27.968
			c8.621-3.612,17.076-7.523,25.249-11.779c6.938-3.613,13.346-7.138,19.25-10.58c-2.91-5.825-8.676-16.389-17.473-28.382
			C219.135,64.325,207.505,72.955,190.312,82.072z"/>
		<linearGradient id="SVGID_64_" gradientUnits="userSpaceOnUse" x1="54.0918" y1="177.3667" x2="275.23" y2="49.6925">
			<stop  offset="0" style="stop-color:#FFFFFF;stop-opacity:0.95"/>
			<stop  offset="0.2023" style="stop-color:#FFFFFF;stop-opacity:0.6512"/>
			<stop  offset="0.5968" style="stop-color:#FFFFFF;stop-opacity:0"/>
		</linearGradient>
		<path display="inline" opacity="0.6" fill="url(#SVGID_64_)" d="M190.312,82.072c2.946,8.475,5.614,17.807,7.934,27.968
			c8.621-3.612,17.076-7.523,25.249-11.779c6.938-3.613,13.346-7.138,19.25-10.58c-2.91-5.825-8.676-16.389-17.473-28.382
			C219.135,64.325,207.505,72.955,190.312,82.072z"/>
		<linearGradient id="SVGID_65_" gradientUnits="userSpaceOnUse" x1="-45.3696" y1="179.7031" x2="290.4021" y2="-66.8312">
			<stop  offset="0" style="stop-color:#339574"/>
			<stop  offset="1" style="stop-color:#2ACC95"/>
		</linearGradient>
		<path display="inline" fill="url(#SVGID_65_)" d="M36.061,117.825c0.063,1.332,0.18,2.649,0.284,3.97
			c0.377-1.296,0.765-2.613,1.18-3.965C37.042,117.833,36.547,117.824,36.061,117.825z"/>
		<linearGradient id="SVGID_66_" gradientUnits="userSpaceOnUse" x1="24.6987" y1="126.4512" x2="245.8082" y2="-1.2064">
			<stop  offset="0" style="stop-color:#FFFFFF;stop-opacity:0.95"/>
			<stop  offset="0.2023" style="stop-color:#FFFFFF;stop-opacity:0.6512"/>
			<stop  offset="0.5968" style="stop-color:#FFFFFF;stop-opacity:0"/>
		</linearGradient>
		<path display="inline" opacity="0.6" fill="url(#SVGID_66_)" d="M36.061,117.825c0.063,1.332,0.18,2.649,0.284,3.97
			c0.377-1.296,0.765-2.613,1.18-3.965C37.042,117.833,36.547,117.824,36.061,117.825z"/>
		<linearGradient id="SVGID_67_" gradientUnits="userSpaceOnUse" x1="-9.0747" y1="229.1782" x2="326.7867" y2="-17.4219">
			<stop  offset="0" style="stop-color:#339574"/>
			<stop  offset="1" style="stop-color:#2ACC95"/>
		</linearGradient>
		<path display="inline" fill="url(#SVGID_67_)" d="M115.278,109.317c0.76,8.136,1.808,16.718,3.188,25.751
			c21.694-4.982,44.368-11.409,66.336-19.687c-0.956-5.795-2.812-15.754-5.893-27.608
			C161.937,95.767,140.743,103.635,115.278,109.317z"/>
		<linearGradient id="SVGID_68_" gradientUnits="userSpaceOnUse" x1="49.9287" y1="170.1504" x2="271.0682" y2="42.4754">
			<stop  offset="0" style="stop-color:#FFFFFF;stop-opacity:0.95"/>
			<stop  offset="0.2023" style="stop-color:#FFFFFF;stop-opacity:0.6512"/>
			<stop  offset="0.5968" style="stop-color:#FFFFFF;stop-opacity:0"/>
		</linearGradient>
		<path display="inline" opacity="0.6" fill="url(#SVGID_68_)" d="M115.278,109.317c0.76,8.136,1.808,16.718,3.188,25.751
			c21.694-4.982,44.368-11.409,66.336-19.687c-0.956-5.795-2.812-15.754-5.893-27.608
			C161.937,95.767,140.743,103.635,115.278,109.317z"/>
		<linearGradient id="SVGID_69_" gradientUnits="userSpaceOnUse" x1="-51.4072" y1="171.5273" x2="284.4592" y2="-75.0765">
			<stop  offset="0" style="stop-color:#339574"/>
			<stop  offset="1" style="stop-color:#2ACC95"/>
		</linearGradient>
		<path display="inline" fill="url(#SVGID_69_)" d="M166.866,35.065c8.168-2.977,16.45-6.587,24.786-10.953
			c-11.817-9.281-25.684-17.354-41.686-22.516c-4.897,0.344-9.734,0.9-14.501,1.675C143.364,8.538,155.123,18.28,166.866,35.065z"/>
		<linearGradient id="SVGID_70_" gradientUnits="userSpaceOnUse" x1="10.5811" y1="102.0137" x2="231.727" y2="-25.665">
			<stop  offset="0" style="stop-color:#FFFFFF;stop-opacity:0.95"/>
			<stop  offset="0.2023" style="stop-color:#FFFFFF;stop-opacity:0.6512"/>
			<stop  offset="0.5968" style="stop-color:#FFFFFF;stop-opacity:0"/>
		</linearGradient>
		<path display="inline" opacity="0.6" fill="url(#SVGID_70_)" d="M166.866,35.065c8.168-2.977,16.45-6.587,24.786-10.953
			c-11.817-9.281-25.684-17.354-41.686-22.516c-4.897,0.344-9.734,0.9-14.501,1.675C143.364,8.538,155.123,18.28,166.866,35.065z"/>
		<linearGradient id="SVGID_71_" gradientUnits="userSpaceOnUse" x1="-23.6616" y1="209.3228" x2="312.1953" y2="-37.2741">
			<stop  offset="0" style="stop-color:#339574"/>
			<stop  offset="1" style="stop-color:#2ACC95"/>
		</linearGradient>
		<path display="inline" fill="url(#SVGID_71_)" d="M156.172,1.282c12.7,3.357,28.021,9.02,43.208,18.562
			c3.479-2.01,6.965-4.142,10.453-6.429c0,0-3.192,2.875-9.418,7.092c19.734,12.638,39.117,31.911,52.082,61.27
			c2.62-1.651,5.126-3.287,7.5-4.897c8.409-5.714,15.21-11.178,20.517-16.425c-1.879-4.291-3.994-8.452-6.315-12.48
			C245.228,19.073,205.298,1.158,161.24,1.158C159.541,1.158,157.858,1.229,156.172,1.282z"/>
		<linearGradient id="SVGID_72_" gradientUnits="userSpaceOnUse" x1="32.834" y1="140.5449" x2="253.9728" y2="12.8704">
			<stop  offset="0" style="stop-color:#FFFFFF;stop-opacity:0.95"/>
			<stop  offset="0.2023" style="stop-color:#FFFFFF;stop-opacity:0.6512"/>
			<stop  offset="0.5968" style="stop-color:#FFFFFF;stop-opacity:0"/>
		</linearGradient>
		<path display="inline" opacity="0.6" fill="url(#SVGID_72_)" d="M156.172,1.282c12.7,3.357,28.021,9.02,43.208,18.562
			c3.479-2.01,6.965-4.142,10.453-6.429c0,0-3.192,2.875-9.418,7.092c19.734,12.638,39.117,31.911,52.082,61.27
			c2.62-1.651,5.126-3.287,7.5-4.897c8.409-5.714,15.21-11.178,20.517-16.425c-1.879-4.291-3.994-8.452-6.315-12.48
			C245.228,19.073,205.298,1.158,161.24,1.158C159.541,1.158,157.858,1.229,156.172,1.282z"/>
		<linearGradient id="SVGID_73_" gradientUnits="userSpaceOnUse" x1="-31.3989" y1="198.7671" x2="304.4569" y2="-47.829">
			<stop  offset="0" style="stop-color:#339574"/>
			<stop  offset="1" style="stop-color:#2ACC95"/>
		</linearGradient>
		<path display="inline" fill="url(#SVGID_73_)" d="M161.615,40.187c-13.177,4.911-28.964,9.259-47.232,11.728
			c-1.054,14.378-1.198,31.607,0.395,51.69c19.972-3.499,41.466-9.392,63.333-18.853C174.385,70.971,169.041,55.013,161.615,40.187z
			"/>
		<linearGradient id="SVGID_74_" gradientUnits="userSpaceOnUse" x1="29.915" y1="135.4966" x2="251.0533" y2="7.8224">
			<stop  offset="0" style="stop-color:#FFFFFF;stop-opacity:0.95"/>
			<stop  offset="0.2023" style="stop-color:#FFFFFF;stop-opacity:0.6512"/>
			<stop  offset="0.5968" style="stop-color:#FFFFFF;stop-opacity:0"/>
		</linearGradient>
		<path display="inline" opacity="0.6" fill="url(#SVGID_74_)" d="M161.615,40.187c-13.177,4.911-28.964,9.259-47.232,11.728
			c-1.054,14.378-1.198,31.607,0.395,51.69c19.972-3.499,41.466-9.392,63.333-18.853C174.385,70.971,169.041,55.013,161.615,40.187z
			"/>
		<linearGradient id="SVGID_75_" gradientUnits="userSpaceOnUse" x1="-23.3848" y1="209.6938" x2="312.4818" y2="-36.9101">
			<stop  offset="0" style="stop-color:#339574"/>
			<stop  offset="1" style="stop-color:#2ACC95"/>
		</linearGradient>
		<path display="inline" fill="url(#SVGID_75_)" d="M193.027,25.208c-6.404,3.832-14.607,8.155-24.533,12.268
			c7.386,10.984,14.673,24.804,20.905,42.085c11.832-5.777,23.715-12.65,35.467-20.808C216.793,47.823,206.22,35.814,193.027,25.208
			z"/>
		<linearGradient id="SVGID_76_" gradientUnits="userSpaceOnUse" x1="34.0039" y1="142.5747" x2="255.1462" y2="14.8981">
			<stop  offset="0" style="stop-color:#FFFFFF;stop-opacity:0.95"/>
			<stop  offset="0.2023" style="stop-color:#FFFFFF;stop-opacity:0.6512"/>
			<stop  offset="0.5968" style="stop-color:#FFFFFF;stop-opacity:0"/>
		</linearGradient>
		<path display="inline" opacity="0.6" fill="url(#SVGID_76_)" d="M193.027,25.208c-6.404,3.832-14.607,8.155-24.533,12.268
			c7.386,10.984,14.673,24.804,20.905,42.085c11.832-5.777,23.715-12.65,35.467-20.808C216.793,47.823,206.22,35.814,193.027,25.208
			z"/>
	</g>
</g>
<g>
	<g>
		<path fill="#3A3A3A" d="M353.457,84.466v24.164h33.822v52.458c0,5.235-1.191,9.182-3.54,11.73c-2.358,2.558-5.103,3.8-8.396,3.8
			c-7.155,0-14.131-3.615-20.735-10.747l-0.941-1.015l-14.604,20.194l0.663,0.684c10.411,10.745,22.779,16.193,36.76,16.193
			c11.256,0,20.619-3.514,27.829-10.448c7.223-6.941,10.886-17.499,10.886-31.372V84.466H353.457z"/>
		<g>
			<path fill="#3A3A3A" d="M506.063,120.524c-8.62-7.446-19.229-11.223-31.542-11.223c-12.33,0-23.171,4.224-32.222,12.553
				c-9.08,8.354-13.683,19.739-13.683,33.84c0,14.096,4.518,25.508,13.427,33.913c8.89,8.389,20.285,12.646,33.866,12.646
				c13.579,0,25.578-4.833,35.664-14.364l0.813-0.77l-15.3-16.577l-0.835,0.868c-5.306,5.515-12.178,8.311-20.425,8.311
				c-5.072,0-9.687-1.465-13.717-4.36c-3.632-2.608-5.866-5.792-6.798-9.708h63.806v-14.206
				C519.119,138.421,514.725,128.017,506.063,120.524z M455.922,145.901c0.818-4.118,2.908-7.357,6.36-9.878
				c3.811-2.782,8.065-4.192,12.646-4.192c4.549,0,8.455,1.34,11.607,3.982c2.854,2.396,4.641,5.787,5.32,10.088H455.922z"/>
			<path fill="#3A3A3A" d="M594.871,166.425c-6.278,7.849-13.401,11.828-21.171,11.828c-5.896,0-11.109-1.992-15.503-5.918
				c-4.354-3.897-6.564-9.466-6.564-16.557c0-7.094,2.21-12.693,6.572-16.643c4.395-3.979,9.717-5.997,15.82-5.997
				c3.85,0,7.788,0.901,11.704,2.677c3.906,1.77,7.263,4.307,9.977,7.538l0.911,1.083l14.194-18.562l-0.671-0.702
				c-4.992-5.212-10.871-9.205-17.47-11.869c-6.587-2.656-13.189-4.003-19.625-4.003c-12.871,0-24.151,4.36-33.525,12.959
				c-9.405,8.627-14.175,19.958-14.175,33.679c0,13.722,4.714,24.999,14.012,33.516c9.267,8.492,20.766,12.798,34.181,12.798
				c13.437,0,26.08-6.055,37.58-17.996l0.728-0.757l-16.136-18.126L594.871,166.425z"/>
			<path fill="#3A3A3A" d="M726.471,109.302c-5.929,0-11.904,1.526-17.756,4.536c-5.29,2.72-9.661,6.488-13.011,11.216
				c-2.327-4.105-5.569-7.677-9.663-10.637c-4.695-3.395-10.006-5.116-15.776-5.116c-8.169,0-15.58,3.266-22.068,9.715v-8.245
				h-26.78v90.173h26.78v-48.518c0-6.515,1.726-11.489,5.131-14.79c3.459-3.358,7.315-4.991,11.788-4.991
				c4.369,0,7.426,1.435,9.345,4.386c1.992,3.068,3.003,8.027,3.003,14.741v49.171h26.938v-48.518
				c0-6.513,1.702-11.492,5.057-14.795c3.405-3.354,7.315-4.985,11.946-4.985c9.243,0,13.736,6.256,13.736,19.127v49.171h26.938
				v-54.563c0-11.917-3.304-21.177-9.818-27.528C745.751,112.516,737.074,109.302,726.471,109.302z"/>
			<path fill="#3A3A3A" d="M850.488,120.524c-8.615-7.446-19.227-11.223-31.54-11.223c-12.33,0-23.17,4.224-32.223,12.553
				c-9.076,8.354-13.681,19.741-13.681,33.84c0,14.099,4.516,25.511,13.428,33.913c8.89,8.389,20.282,12.646,33.865,12.646
				c13.581,0,25.579-4.833,35.661-14.364l0.814-0.77l-15.298-16.577l-0.835,0.868c-5.309,5.515-12.181,8.311-20.427,8.311
				c-5.072,0-9.684-1.467-13.716-4.36c-3.636-2.61-5.868-5.795-6.798-9.708h63.804v-14.206
				C863.544,138.419,859.151,128.015,850.488,120.524z M800.348,145.901c0.82-4.117,2.909-7.356,6.36-9.878
				c3.813-2.782,8.067-4.192,12.648-4.192c4.549,0,8.454,1.34,11.607,3.982c2.854,2.398,4.641,5.789,5.319,10.088H800.348z"/>
			<polygon fill="#3A3A3A" points="961.271,110.607 927.275,110.607 901.615,137.958 901.615,77.44 874.838,77.44 874.838,200.945 
				901.615,200.945 901.615,174.942 908.326,167.958 930.263,200.945 962.07,200.945 926.596,147.485 			"/>
			<path fill="#3A3A3A" d="M992.045,175.726c-2.987-2.985-6.693-4.499-11.014-4.499c-4.326,0-8.031,1.514-11.016,4.499
				c-2.984,2.982-4.498,6.689-4.498,11.015c0,4.324,1.514,8.03,4.498,11.015c2.984,2.985,6.689,4.499,11.016,4.499
				c4.32,0,8.026-1.514,11.014-4.499c2.985-2.989,4.499-6.693,4.499-11.015C996.544,182.42,995.03,178.713,992.045,175.726z"/>
		</g>
	</g>
	<g>
		<path fill="#424242" d="M423.504,216.956c-1.785,0-3.247,0.365-4.39,1.091c-1.142,0.727-1.712,1.826-1.712,3.297
			c0,1.473,0.57,2.597,1.712,3.376c1.144,0.78,3.575,1.619,7.298,2.518c3.722,0.902,6.527,2.166,8.414,3.792
			c1.887,1.628,2.831,4.026,2.831,7.193c0,3.169-1.194,5.74-3.583,7.715c-2.39,1.971-5.523,2.957-9.4,2.957
			c-5.679,0-10.717-1.953-15.114-5.867l3.843-4.623c3.67,3.188,7.479,4.778,11.426,4.778c1.974,0,3.541-0.422,4.701-1.271
			c1.16-0.85,1.739-1.974,1.739-3.377c0-1.404-0.545-2.493-1.635-3.272c-1.091-0.779-2.97-1.489-5.636-2.131
			c-2.666-0.639-4.691-1.229-6.076-1.763c-1.385-0.537-2.615-1.239-3.688-2.106c-2.146-1.626-3.22-4.118-3.22-7.478
			s1.221-5.947,3.663-7.766c2.44-1.818,5.461-2.725,9.063-2.725c2.319,0,4.624,0.379,6.908,1.142
			c2.285,0.762,4.259,1.835,5.92,3.219l-3.272,4.624c-1.072-0.969-2.527-1.766-4.362-2.39
			C427.096,217.268,425.287,216.956,423.504,216.956z"/>
		<path fill="#424242" d="M447.368,233.525v14.956h-5.816v-38.484h5.816v15.893c0.831-1.696,2.087-3.03,3.767-4.001
			c1.679-0.966,3.487-1.454,5.427-1.454c3.116,0,5.634,0.955,7.557,2.858c1.921,1.905,2.882,4.658,2.882,8.258v16.931h-5.817
			v-15.166c0-5.09-2.113-7.636-6.336-7.636c-2.009,0-3.758,0.669-5.246,2.001C448.113,229.014,447.368,230.962,447.368,233.525z"/>
		<path fill="#424242" d="M472.61,215.347c-0.727-0.729-1.092-1.594-1.092-2.598c0-1.004,0.365-1.871,1.092-2.598
			c0.728-0.727,1.593-1.091,2.596-1.091c1.004,0,1.87,0.364,2.597,1.091c0.728,0.727,1.091,1.594,1.091,2.598
			c0,1.004-0.364,1.868-1.091,2.598c-0.727,0.727-1.593,1.088-2.597,1.088C474.203,216.436,473.337,216.074,472.61,215.347z
			 M478.063,248.481h-5.816v-27.629h5.816V248.481z"/>
		<path fill="#424242" d="M498.425,220.434c3.704,0,6.872,1.282,9.502,3.845c2.633,2.563,3.949,5.972,3.949,10.23
			c0,4.262-1.309,7.723-3.923,10.391c-2.615,2.665-5.66,3.996-9.14,3.996c-3.481,0-6.606-1.521-9.376-4.568v14.231h-5.816v-37.707
			h5.816v4.828C491.724,222.183,494.718,220.434,498.425,220.434z M489.334,234.719c0,2.63,0.796,4.786,2.39,6.464
			c1.592,1.68,3.531,2.52,5.816,2.52c2.284,0,4.274-0.829,5.972-2.493c1.697-1.661,2.545-3.816,2.545-6.467
			c0-2.647-0.829-4.848-2.49-6.596c-1.663-1.748-3.656-2.623-5.975-2.623c-2.318,0-4.275,0.875-5.868,2.623
			C490.13,229.896,489.334,232.088,489.334,234.719z"/>
		<path fill="#424242" d="M530.47,220.434c3.705,0,6.872,1.282,9.501,3.845c2.634,2.563,3.952,5.972,3.952,10.23
			c0,4.262-1.309,7.723-3.923,10.391c-2.616,2.665-5.662,3.996-9.142,3.996c-3.48,0-6.605-1.521-9.376-4.568v14.231h-5.817v-37.707
			h5.817v4.828C523.768,222.183,526.765,220.434,530.47,220.434z M521.38,234.719c0,2.63,0.797,4.786,2.388,6.464
			c1.594,1.68,3.532,2.52,5.817,2.52c2.284,0,4.275-0.829,5.972-2.493c1.699-1.661,2.546-3.816,2.546-6.467
			c0-2.647-0.829-4.848-2.491-6.596c-1.663-1.748-3.654-2.623-5.976-2.623c-2.317,0-4.274,0.875-5.868,2.623
			C522.177,229.896,521.38,232.088,521.38,234.719z"/>
		<path fill="#424242" d="M548.073,215.347c-0.726-0.729-1.089-1.594-1.089-2.598c0-1.004,0.363-1.871,1.089-2.598
			c0.729-0.727,1.595-1.091,2.599-1.091s1.871,0.364,2.598,1.091c0.727,0.727,1.091,1.594,1.091,2.598
			c0,1.004-0.364,1.868-1.091,2.598c-0.727,0.727-1.594,1.088-2.598,1.088S548.802,216.074,548.073,215.347z M553.527,248.481
			h-5.816v-27.629h5.816V248.481z"/>
		<path fill="#424242" d="M564.901,233.525v14.956h-5.817v-27.629h5.817v5.038c0.936-1.696,2.226-3.03,3.87-4.001
			c1.644-0.966,3.419-1.454,5.325-1.454c3.115,0,5.634,0.955,7.557,2.858c1.919,1.905,2.881,4.658,2.881,8.258v16.931h-5.818
			v-15.166c0-5.09-2.11-7.636-6.334-7.636c-2.008,0-3.759,0.669-5.247,2.001C565.647,229.014,564.901,230.962,564.901,233.525z"/>
		<path fill="#424242" d="M615.335,220.852v24.097c0,4.883-1.326,8.545-3.976,10.985c-2.646,2.442-6.051,3.661-10.203,3.661
			c-4.158,0-7.914-1.298-11.272-3.894l2.752-4.414c2.701,2.041,5.429,3.063,8.181,3.063s4.935-0.709,6.544-2.13
			c1.609-1.419,2.416-3.687,2.416-6.801v-3.534c-0.866,1.628-2.104,2.927-3.714,3.899c-1.609,0.966-3.421,1.453-5.427,1.453
			c-3.673,0-6.683-1.281-9.038-3.843c-2.354-2.565-3.531-5.75-3.531-9.559c0-3.809,1.177-6.994,3.531-9.556
			c2.355-2.563,5.356-3.845,9.011-3.845c3.655,0,6.624,1.507,8.906,4.519v-4.101H615.335z M593.781,233.603
			c0,2.268,0.7,4.224,2.101,5.87c1.404,1.644,3.289,2.465,5.661,2.465s4.293-0.794,5.765-2.387c1.472-1.594,2.207-3.577,2.207-5.947
			c0-2.373-0.744-4.381-2.231-6.024c-1.488-1.646-3.411-2.468-5.764-2.468c-2.357,0-4.233,0.849-5.638,2.545
			C594.481,229.352,593.781,231.334,593.781,233.603z"/>
		<path fill="#424242" d="M642.859,248.896c-3.392,0-6.285-0.942-8.674-2.83c-2.389-1.886-3.582-4.473-3.582-7.763
			c0-3.914,2.837-7.394,8.518-10.441c-1.421-1.628-2.416-2.959-2.985-3.999c-0.572-1.039-0.859-2.355-0.859-3.948
			c0-2.768,1.023-4.898,3.067-6.387c2.04-1.488,4.446-2.233,7.218-2.233c2.77,0,5.123,0.709,7.063,2.128
			c1.939,1.421,2.907,3.409,2.907,5.975c0,3.427-2.771,6.664-8.308,9.711c2.768,3.392,5.019,5.989,6.753,7.79
			c1.072-1.591,1.9-3.444,2.489-5.557l4.261,3.012c-0.9,2.391-1.922,4.486-3.063,6.285c1.383,1.421,3.149,3.135,5.297,5.145
			l-3.896,3.634l-4.777-4.728C651.238,247.495,647.43,248.896,642.859,248.896z M638.344,242.379
			c1.313,0.987,3.062,1.479,5.241,1.479c2.182,0,4.504-1.004,6.962-3.009c-3.5-3.672-6.27-6.754-8.31-9.247
			c-3.912,2.113-5.869,4.434-5.869,6.958C636.368,240.122,637.025,241.393,638.344,242.379z M645.534,215.917
			c-1.159,0-2.198,0.364-3.116,1.091c-0.917,0.727-1.377,1.577-1.377,2.545s0.236,1.843,0.701,2.623
			c0.471,0.779,1.272,1.86,2.416,3.247c3.914-1.941,5.867-3.741,5.867-5.402c0-1.384-0.457-2.415-1.373-3.089
			C647.733,216.254,646.692,215.917,645.534,215.917z"/>
		<path fill="#424242" d="M683.787,217.89v9.973h16.099v5.663h-16.099v14.956h-6.13v-36.303h24.203l-0.052,5.712H683.787z"/>
		<path fill="#424242" d="M727.671,244.77c-2.769,2.75-6.231,4.125-10.386,4.125c-4.157,0-7.617-1.376-10.389-4.125
			c-2.769-2.755-4.154-6.123-4.154-10.104c0-3.981,1.386-7.348,4.154-10.103c2.771-2.752,6.231-4.129,10.389-4.129
			c4.154,0,7.617,1.376,10.386,4.129c2.771,2.755,4.158,6.122,4.158,10.103C731.829,238.647,730.441,242.015,727.671,244.77z
			 M711.025,241.183c1.645,1.68,3.73,2.52,6.26,2.52s4.612-0.84,6.258-2.52c1.645-1.679,2.467-3.849,2.467-6.517
			c0-2.665-0.822-4.837-2.467-6.519c-1.646-1.678-3.729-2.517-6.258-2.517s-4.615,0.839-6.26,2.517
			c-1.644,1.681-2.467,3.854-2.467,6.519C708.559,237.334,709.382,239.504,711.025,241.183z"/>
		<path fill="#424242" d="M750.056,226.304c-2.872,0-5.036,0.934-6.49,2.805c-1.454,1.868-2.183,4.381-2.183,7.531v11.841h-5.817
			v-27.629h5.817v5.555c0.936-1.731,2.207-3.15,3.817-4.256c1.609-1.109,3.317-1.681,5.116-1.716l0.052,5.87
			C750.264,226.304,750.161,226.304,750.056,226.304z"/>
		<path fill="#424242" d="M766.262,248.481h-6.648l-9.558-27.629h6.026l6.855,20.878l6.854-20.878h6.025l6.854,20.878l6.857-20.878
			h6.024l-9.559,27.629h-6.646l-6.544-18.905L766.262,248.481z"/>
		<path fill="#424242" d="M819.966,248.481h-5.297v-3.687c-2.288,2.735-5.351,4.101-9.195,4.101c-2.874,0-5.255-0.812-7.143-2.44
			c-1.886-1.626-2.828-3.799-2.828-6.517c0-2.717,1.001-4.753,3.009-6.104c2.01-1.352,4.731-2.026,8.156-2.026h7.53v-1.036
			c0-3.672-2.042-5.508-6.128-5.508c-2.563,0-5.227,0.937-7.998,2.805l-2.596-3.637c3.356-2.666,7.167-4,11.426-4
			c3.254,0,5.913,0.825,7.974,2.468c2.058,1.646,3.09,4.233,3.09,7.765V248.481z M814.148,238.198v-2.338h-6.545
			c-4.188,0-6.284,1.316-6.284,3.946c0,1.351,0.519,2.383,1.559,3.092c1.038,0.709,2.482,1.064,4.336,1.064s3.471-0.519,4.857-1.559
			C813.454,241.368,814.148,239.964,814.148,238.198z"/>
		<path fill="#424242" d="M839.702,226.304c-2.876,0-5.038,0.934-6.492,2.805c-1.454,1.868-2.182,4.381-2.182,7.531v11.841h-5.818
			v-27.629h5.818v5.555c0.935-1.731,2.208-3.15,3.816-4.256c1.609-1.109,3.315-1.681,5.114-1.716l0.055,5.87
			C839.908,226.304,839.805,226.304,839.702,226.304z"/>
		<path fill="#424242" d="M845.101,244.949c-2.597-2.63-3.896-6.094-3.896-10.388c0-4.291,1.335-7.72,4.001-10.283
			c2.665-2.563,5.844-3.845,9.532-3.845c3.688,0,6.655,1.559,8.907,4.676v-15.166h5.815v38.537h-5.815v-4.153
			c-2.149,3.047-5.282,4.568-9.402,4.568C850.743,248.896,847.698,247.583,845.101,244.949z M847.024,234.796
			c0,2.65,0.846,4.803,2.545,6.467c1.694,1.661,3.687,2.492,5.973,2.492c2.285,0,4.223-0.839,5.815-2.521
			c1.592-1.678,2.39-3.833,2.39-6.463c0-2.633-0.798-4.831-2.39-6.597c-1.593-1.768-3.55-2.65-5.867-2.65
			c-2.323,0-4.313,0.882-5.975,2.65C847.854,229.941,847.024,232.148,847.024,234.796z"/>
		<path fill="#424242" d="M875.383,215.347c-0.727-0.729-1.093-1.594-1.093-2.598c0-1.004,0.366-1.871,1.093-2.598
			c0.727-0.727,1.591-1.091,2.596-1.091c1.003,0,1.871,0.364,2.597,1.091c0.728,0.727,1.091,1.594,1.091,2.598
			c0,1.004-0.363,1.868-1.091,2.598c-0.726,0.727-1.594,1.088-2.597,1.088C876.974,216.436,876.109,216.074,875.383,215.347z
			 M880.834,248.481h-5.814v-27.629h5.814V248.481z"/>
		<path fill="#424242" d="M892.208,233.525v14.956h-5.815v-27.629h5.815v5.038c0.936-1.696,2.225-3.03,3.869-4.001
			c1.644-0.966,3.422-1.454,5.325-1.454c3.115,0,5.636,0.955,7.557,2.858c1.922,1.905,2.884,4.658,2.884,8.258v16.931h-5.82v-15.166
			c0-5.09-2.108-7.636-6.333-7.636c-2.009,0-3.758,0.669-5.248,2.001C892.952,229.014,892.208,230.962,892.208,233.525z"/>
		<path fill="#424242" d="M942.64,220.852v24.097c0,4.883-1.321,8.545-3.973,10.985c-2.648,2.442-6.051,3.661-10.205,3.661
			c-4.156,0-7.915-1.298-11.272-3.894l2.756-4.414c2.698,2.041,5.426,3.063,8.178,3.063s4.935-0.709,6.546-2.13
			c1.609-1.419,2.414-3.687,2.414-6.801v-3.534c-0.866,1.628-2.104,2.927-3.713,3.899c-1.61,0.966-3.422,1.453-5.43,1.453
			c-3.669,0-6.682-1.281-9.036-3.843c-2.355-2.565-3.531-5.75-3.531-9.559c0-3.809,1.176-6.994,3.531-9.556
			c2.354-2.563,5.358-3.845,9.01-3.845c3.654,0,6.623,1.507,8.909,4.519v-4.101H942.64z M921.086,233.603
			c0,2.268,0.703,4.224,2.104,5.87c1.403,1.644,3.289,2.465,5.66,2.465s4.295-0.794,5.766-2.387
			c1.473-1.594,2.208-3.577,2.208-5.947c0-2.373-0.744-4.381-2.233-6.024c-1.49-1.646-3.412-2.468-5.766-2.468
			c-2.355,0-4.231,0.849-5.635,2.545C921.789,229.352,921.086,231.334,921.086,233.603z"/>
	</g>
</g>
</svg>
