<svg xmlns="http://www.w3.org/2000/svg" enable-background="new 0 0 60 60" viewBox="0 0 60 60"><path d="M59,0H1C0.447,0,0,0.448,0,1v58c0,0.553,0.447,1,1,1h58c0.553,0,1-0.447,1-1V1C60,0.448,59.553,0,59,0z M58,58H2V2h56V58z"/><path d="M27.202,38.798c-4.129-4.131-10.957-3.804-11.248-3.787c-0.51,0.027-0.916,0.434-0.943,0.943  c-0.017,0.288-0.343,7.119,3.787,11.248c3.222,3.224,8.083,3.731,10.202,3.791V54c0,0.553,0.447,1,1,1s1-0.447,1-1v-3.006  c2.12-0.061,6.98-0.569,10.202-3.791c4.13-4.129,3.804-10.96,3.787-11.248c-0.027-0.51-0.434-0.916-0.943-0.943  c-0.288-0.019-7.119-0.342-11.248,3.787C32.065,39.53,31.479,40.35,31,41.2v-7.207c2.12-0.061,6.98-0.569,10.202-3.791  c4.13-4.13,3.804-10.959,3.787-11.249c-0.027-0.509-0.434-0.915-0.943-0.943c-0.288-0.018-7.12-0.343-11.248,3.787  C32.065,22.53,31.479,23.349,31,24.2v-6.253c5.418-0.521,9.561-5.075,9.745-5.28c0.34-0.379,0.34-0.955,0-1.334  C40.55,11.115,35.901,6,30,6s-10.55,5.115-10.745,5.333c-0.34,0.379-0.34,0.955,0,1.334c0.184,0.205,4.327,4.759,9.745,5.28V24.2  c-0.479-0.851-1.065-1.67-1.798-2.403c-4.129-4.13-10.961-3.803-11.248-3.787c-0.51,0.028-0.916,0.435-0.943,0.943  c-0.017,0.289-0.343,7.119,3.787,11.249c3.222,3.222,8.082,3.73,10.202,3.791V41.2C28.521,40.35,27.935,39.53,27.202,38.798z   M20.212,45.788c-2.668-2.668-3.132-6.902-3.2-8.778c1.873,0.065,6.1,0.524,8.776,3.202c2.668,2.668,3.132,6.902,3.2,8.778  C27.115,48.925,22.889,48.466,20.212,45.788z M34.212,40.212c2.668-2.668,6.902-3.132,8.778-3.2c-0.065,1.873-0.524,6.1-3.202,8.776  c-2.668,2.668-6.902,3.132-8.778,3.2C31.075,47.115,31.534,42.889,34.212,40.212z M34.212,23.211c2.668-2.667,6.902-3.131,8.778-3.2  c-0.065,1.874-0.524,6.099-3.202,8.777c-2.668,2.667-6.902,3.131-8.778,3.2C31.075,30.115,31.534,25.889,34.212,23.211z M30,8  c3.827,0,7.195,2.709,8.582,4c-1.387,1.291-4.755,4-8.582,4s-7.195-2.709-8.582-4C22.805,10.709,26.173,8,30,8z M20.212,28.789  c-2.668-2.668-3.132-6.903-3.2-8.778c1.873,0.065,6.1,0.524,8.776,3.201c2.668,2.668,3.132,6.903,3.2,8.779  C27.115,31.925,22.889,31.466,20.212,28.789z"/><circle cx="30" cy="12" r="2"/></svg>