<svg xmlns="http://www.w3.org/2000/svg" enable-background="new 0 0 50 50" viewBox="0 0 50 50"><path fill="#1D1D1B" d="M37.2 35.2c-1.5.3-2.4.7-3.6 1.7-2.7 2.4-4.6 5.3-7.7 7.6-2.5 1.8-3.7 2.9-6.9 3.8-3.9 1.1-6.8-1.7-9.5-3.6-4-2.8-5.5-6.9-6.7-11.5-.8-3.1-.9-6.6-.3-9.7.8-4.4 7.9-7.3 11.3-9.6 4.2-2.9 8.1-3.6 13-4.4C29.7 9 33.6 7 36.1 9.4c.4.4 1.6-.5 1.1-1-2-1.9-5-1.2-7.4-.7-4 .8-8.8.8-12.4 2.8C10.5 14.5 1 18.9.8 27.7c-.1 4.3 1.2 8.5 3 12.4 1.6 3.6 6.3 7.9 10.2 8.9 4.3 1.1 7.7-.4 11.2-2.8 1.8-1.3 3.6-2.6 5.3-4 2.2-1.8 3.5-5.4 6.6-6C37.6 36.1 38.1 35 37.2 35.2L37.2 35.2zM42.9 15.1c3.6 2.8 5.1 6.4 4.6 10.9-.4 3.7-3.3 5.1-5.8 7.3-.6.5.4 1.7 1 1.1 3.6-3.2 6.3-4.8 6.2-10.1-.1-4.4-2.1-7.8-5.5-10.4C42.6 13.3 42.2 14.6 42.9 15.1L42.9 15.1z"/><path fill="#1D1D1B" d="M26.5,31.9c0.2,2.8,2.7,2.6,4.5,1.3c2.1-1.4,5.4-4,5.3-6.8c-0.1-1.9-2.2-3-3.9-2.9
				c-2.4,0.1-4.6,1.7-4.9,4.2c-0.1,0.5,1.1,1.5,1.1,0.8c0.2-1.6,1.2-2.8,2.7-3.4c1-0.4,3.1-0.7,3.7,0.5c1,1.8-2.3,4.2-3.3,5.1
				c-0.4,0.3-4.1,3.4-4.2,1.7C27.6,31.9,26.5,31.1,26.5,31.9L26.5,31.9z"/><path fill="#1D1D1B" d="M32.6,23.8c0.9-3,3-7,4.6-9.6c1.6-2.6,2.6-4.8,3.7-7.7c0.5-1.3,1.7-2.4,2.7-3.4c1.9-1.8,5.3-1.1,3.3,1.8
				c-1.1,1.6-2.8,2.8-3.6,4.5c-0.2,0.4,0.9,1.4,1.1,0.9c1.2-2.6,4.6-4.2,4.6-7.2c0-1.4-2-2.8-3.2-2.6C42.2,1,40,4.6,39,7.9
				c-1.6,5.3-5.9,9.6-7.5,15C31.4,23.4,32.5,24.3,32.6,23.8L32.6,23.8z"/><path fill="#1D1D1B" d="M41.9 12.7c-2.2 3.4-3.6 7.4-6.6 10.2-.5.5.4 1.7.9 1.2 3.1-3 4.5-6.9 6.7-10.4C43.3 13.1 42.3 12 41.9 12.7L41.9 12.7zM25.8 19.8c1.3-2.2 0-4.5-2.3-5.3-1.8-.6-4.2.1-5.4 1.5-1.4 1.7-.3 4.1 1.4 5.1 1.6.9 3.8.6 5.2-.5-.1.1-1.1 0-1.4.3-1.2.9-2.8-.3-3.6-1.3-.9-1.2-1-2.7-.2-3.9 1.2-1.7 3.3-.8 4.5.4 1.1 1.1 1.1 2.7.4 4.1C24.4 20 25.6 20.2 25.8 19.8L25.8 19.8zM35.5 13.4c-.5-1.2-1.4-2.1-2.8-1.9-1.2.2-2.2 1.2-2.9 2.2-.6.9-1.1 2.1-.8 3.2.4 1.4 2.1 1.4 3.2 1.2.9-.2.7-1.3-.2-1.1-.7.1-1.4.2-1.6-.6-.2-.7.3-1.6.6-2.2.4-.7 1-1.3 1.7-1.6.2-.1.3-.1.6.1.4.2.6.8.8 1.2C34.4 14.7 35.8 14.2 35.5 13.4L35.5 13.4zM17.6 33.8c-2.3 0-4.7.3-6.1 2.3-2.1 3 .7 6.7 4 6.7 2.2 0 5.4-1.8 6.3-3.9 1.3-3.3-2.6-5.2-5.2-5.9-.4-.1-1.4.7-1.2.8 1.6.4 3.1 1 4.3 2.1 2.3 2.1.3 5-2.1 5.9-2.2.8-4.5-.7-5.2-2.8-.4-1-.1-2.3.4-3.3.7-1.3 2.6-1 3.8-1.1C17 34.6 18.1 33.8 17.6 33.8L17.6 33.8zM16 28.6c1.6-3.4-.6-8-4.8-6.3C9.4 23.1 9 24.8 10 26.4c1 1.6 3.1 2.5 5 2.4.8-.1 0-1.3-.5-1.3-1.3.1-2.5-.3-3.4-1.2-1-1.1-.1-2.2 1-2.7 1.1-.5 2.6-.7 3.1.5.5 1.1.2 2.5-.3 3.6C14.6 28.2 15.7 29.2 16 28.6L16 28.6z"/></svg>