<svg xmlns="http://www.w3.org/2000/svg" enable-background="new 0 0 131 131" viewBox="0 0 131 131"><path fill="#FBE000" d="M9.3392572,81.7808456c4.9987926-1.1321487,6.9901876,0.2763138,7.9798613,1.934761
					c0.1477985,0.2476807,0.2348881,0.5164719,0.2577076,0.7841873c0.1496964,1.7562027-1.6873102,2.8930664-4.5258017,3.2836456
					C7.6218753,88.5304871,1.8719119,85.3197861,7.85425,82.3312912
					C8.3066292,82.1053009,8.7798758,81.9075394,9.3392572,81.7808456z"/><path fill="#FFEFE1" d="M98.5743179,82.9700699l-62.2280922,2.7133942
				C18.9972248,86.439949,3.0746148,74.6186447,2.1434832,58.996582l-0.0746627-1.2526512
				C1.1214428,41.8493004,16.083971,30.1497383,34.0371132,31.7182407l64.0491791,5.595747
				c11.8625565,1.0363884,20.9043732,11.3935661,20.9064026,23.0692825l0.0001602,0.9222717
				C118.9948654,72.8333206,110.1572571,82.4650116,98.5743179,82.9700699z"/><path fill="#FDE4CB" d="M118.9954987,60.3833084v0.9268799c0,11.526825-8.8400879,21.1506042-20.4199219,21.6633606
				l-62.2301064,2.7116165c-10.0699463,0.4437332-19.6600342-3.3624344-26.1199951-9.6829376l85.7199707-1.0254593
				c11.5900879-0.177536,20.7099609-9.5646133,21.0400391-21.0815697l0.0200195-0.9268799
				c0.0200195-0.6606941,0.0100098-1.3213234-0.0400391-1.9819527
				C118.275528,53.8951988,118.9954987,57.0800934,118.9954987,60.3833084z"/><path fill="#EE3C37" d="M105.1495514,89.2903137c-28.9457397-1.1615219-57.2294197-0.2771988-85.9620514-0.2771988
					c-3.1426315,0-7.6321049-0.8843231-7.6321049-4.8638077c0.4489479-2.2108154,2.2447367-3.5373154,4.4894733-3.9794769
					c29.697731-2.5807953,58.5457726-0.9773026,87.6841888-0.8234253c2.2329407,0.011795,4.4662933,0.1914825,6.6556091,0.6242065
					c0.0139389,0.0027618,0.0278854,0.0055237,0.0418243,0.0082932c1.3925018,0.2770462,2.7765656,0.6288681,4.1499176,1.0704269
					c1.30793,0.663414,2.2319107,1.6029358,2.3005447,2.7577362c0.1465302,2.4654999,0.0488739,4.9713058-7.8262253,5.422081
					C107.9211807,89.2935486,106.6334,89.3160019,105.1495514,89.2903137z"/><path fill="#FBE000" d="M27.9063988 43.8105431c.5699596 4.999157.9377327 9.5520287 1.3385506 14.6024971.0269432.3395042-.2121334.606163-.5415287.6033859-5.2629013-.0443764-8.9109306-.075882-13.2839775-.1340675-.1154127-.000721-.222393-.0014153-.3201981-.0020638-.3753405-.0025024-.7283125-.3348961-.7580462-.7162094-.017725-.2273102-.0382233-.512146-.060214-.8586693-.42276-6.6616745 3.3534946-14.9369545 11.0825844-14.3498726.5836849.0070343 1.1985493.0462875 1.8456898.1178436C27.5576553 43.111908 27.8634262 43.4336243 27.9063988 43.8105431zM47.0354691 44.7217255c.1948166 4.8954506.2257195 9.3568726.2530937 14.3091393.0018387.3330231-.2490234.5947266-.5681763.5921555-5.0988808-.041069-8.6327362-.0702591-12.8669815-.1252785-.1118011-.0006523-.2154312-.0012817-.310173-.0018768-.3635788-.0022774-.6815681-.3281136-.6827507-.7020645-.0007019-.2229156.0000725-.5022316.0038757-.8420296.0730438-6.5292358 4.3279305-14.6347237 11.7696648-14.0653305.5647392.0064926 1.1573792.0445061 1.7789764.1141129C46.7476501 44.0380287 47.0207863 44.3527603 47.0354691 44.7217255zM65.5601578 44.7217255c.1948166 4.8954506.2257233 9.3568726.2530899 14.3091393.0018463.3330231-.2490158.5947266-.5681686.5921555-5.0988846-.041069-8.63274-.0702591-12.8669853-.1252785-.1118011-.0006523-.2154312-.0012817-.310173-.0018768-.3635788-.0022774-.6815681-.3281136-.6827507-.7020645-.0007019-.2229156.0000763-.5022316.0038757-.8420296.0730438-6.5292358 4.3279305-14.6347237 11.7696648-14.0653305.5647392.0064926 1.1573753.0445061 1.7789726.1141129C65.2723389 44.0380287 65.5454788 44.3527603 65.5601578 44.7217255zM93.5948181 46.2550278c.0687256 5.6591454-.1322784 12.1150589-.0238571 17.8343735.0090866.4791107.4231186.8516006.909111.8287125 5.0059357-.235733 9.6072617-.2358627 13.770752-.217308.5586929.0024872.971405-.5076904.844101-1.0434685-1.3675995-5.7556915-2.6557236-13.5257607-10.5635223-17.0388641-1.3645172-.5180168-2.8853607-.7936592-4.5776978-.7356949C93.7518005 45.8896942 93.5924072 46.0560684 93.5948181 46.2550278zM112.2141876 71.9978256c.080513-2.6289902 1.9536362-3.1505051 4.4212189-2.8012238.4379425.0619965.8717499.1977768 1.2588348.3939285 2.7756119 1.406517 2.1681137 3.4685287.1557617 4.6539612-2.0957947 1.2345886-5.1097031.4549179-5.7356873-1.6261215C112.2528915 72.4141617 112.207756 72.2077103 112.2141876 71.9978256z"/><path fill="#666" d="M93.7149506,67.0548553l2.594574,0.1587677c0.1663895,0.0101852,0.3027267,0.187912,0.3096542,0.3922806
					l0,0c0.0067444,0.1990356-0.1119766,0.3590851-0.2698059,0.3622208l-2.4263077,0.0482483
					c-0.2612534,0.0051956-0.5348969-0.2037811-0.6025925-0.4755783v-0.0000076
					C93.2502899,67.2589874,93.4314194,67.0374985,93.7149506,67.0548553z"/><path fill="#FFF" d="M36.454155,90.8440552c0.4158592,4.1950226-1.8010712,7.9197159-5.2397861,8.5127411
					c-3.825161,0.659668-7.899826-2.705864-8.7270718-7.7954254c-0.8671112-5.3348312,2.2721996-9.5601501,6.5534439-9.2375641
					C32.8568459,82.6113434,36.0219688,86.4843521,36.454155,90.8440552z"/><path fill="#664C46" d="M32.1567917,90.873848c0.1699982,1.7978592-0.6840591,3.3891144-2.0191784,3.6364594
				c-1.4851608,0.2751465-3.0753326-1.1744919-3.4069862-3.3563461c-0.3476391-2.2869949,0.863863-4.0909119,2.5282249-3.944397
				C30.7423878,87.3401566,31.9801216,89.0054169,32.1567917,90.873848z"/><path fill="#FFF" d="M101.7970352,91.9872131c-0.2512512,3.8634033-3.0864258,6.8740311-6.6545181,6.8526688
					c-3.9690704-0.0237579-7.5460434-3.7302628-7.5671616-8.4698563c-0.0221405-4.9679947,3.8247757-8.2819519,8.0973282-7.2953796
					C99.481041,83.9540253,102.0581436,87.9721527,101.7970352,91.9872131z"/><path fill="#664C46" d="M97.5012283,91.312973c-0.0993118,1.527092-1.2199707,2.7171021-2.6303329,2.7086563
				c-1.5688629-0.0093918-2.9827347-1.4744644-2.9910812-3.3478851c-0.0087509-1.963707,1.5118256-3.2736206,3.2006378-2.8836594
				C96.5857849,88.1376801,97.6044388,89.7259293,97.5012283,91.312973z"/><path fill="#FBE000" d="M88.0551529 78.7134476H74.8028412V51.2782478c0-3.659523 2.966629-6.626152 6.626152-6.626152h.0000076c3.659523 0 6.626152 2.966629 6.626152 6.626152V78.7134476zM9.3392572 82.0112c4.9987926-1.1481781 6.9901876.2802277 7.9798613 1.9621582.1477985.2511826.2348881.5237808.2577076.7952805.1496964 1.7810669-1.6873102 2.9340286-4.5258017 3.3301315C7.6218753 88.8563995 1.8719119 85.6002426 7.85425 82.5694427 8.3066292 82.3402557 8.7798758 82.1396866 9.3392572 82.0112z"/><path fill="#FFEFE1" d="M98.5743179,83.2172623l-62.2280922,2.7518082
				C18.9972248,86.7362671,3.0746148,74.747612,2.1434832,58.9044037l-0.0746627-1.2703857
				C1.1214428,41.5143814,16.083971,29.6491985,34.0371132,31.2399044l64.0491791,5.674963
				c11.8625565,1.0510597,20.9043732,11.5548553,20.9064026,23.3958549l0.0001602,0.9353256
				C118.9948654,72.9370193,110.1572571,82.7050552,98.5743179,83.2172623z"/><path fill="#FDE4CB" d="M118.9954987,60.3107605v0.9400024c0,11.6900024-8.8400879,21.4500122-20.4199219,21.9700317
				l-62.2301064,2.75c-10.0699463,0.4500122-19.6600342-3.4100342-26.1199951-9.8200073l85.7199707-1.039978
				c11.5900879-0.1800537,20.7099609-9.7000122,21.0400391-21.3800049l0.0200195-0.9400024
				c0.0200195-0.6700439,0.0100098-1.3400269-0.0400391-2.0100098
				C118.275528,53.7308044,118.9954987,56.9607849,118.9954987,60.3107605z"/><path fill="#EE3C37" d="M105.1495514,89.626976c-28.9457397-1.1779709-57.2294197-0.2811203-85.9620514-0.2811203
					c-3.1426315,0-7.6321049-0.8968506-7.6321049-4.932663c0.4489479-2.2421112,2.2447367-3.5873871,4.4894733-4.0358124
					c29.697731-2.6173248,58.5457726-0.9911346,87.6841888-0.8350754c2.2329407,0.0119553,4.4662933,0.194191,6.6556091,0.6330414
					c0.0139389,0.0027924,0.0278854,0.0056,0.0418243,0.0084076c1.3925018,0.2809677,2.7765656,0.6377716,4.1499176,1.0855789
					c1.30793,0.6728058,2.2319107,1.6256332,2.3005447,2.7967758c0.1465302,2.5004044,0.0488739,5.041687-7.8262253,5.4988403
					C107.9211807,89.6302567,106.6334,89.6530304,105.1495514,89.626976z"/><path fill="#FBE000" d="M27.9063988 43.5033875c.5699596 5.0699272.9377327 9.6872482 1.3385506 14.8092117.0269432.3443108-.2121334.6147461-.5415287.611927-5.2629013-.0450058-8.9109306-.0769539-13.2839775-.1359673-.1154127-.0007286-.222393-.0014305-.3201981-.0020905-.3753405-.0025406-.7283125-.3396339-.7580462-.7263451-.017725-.2305336-.0382233-.5194016-.060214-.8708267-.42276-6.7559776 3.3534946-15.148407 11.0825844-14.5530128.5836849.0071335 1.1985493.0469437 1.8456898.1195107C27.5576553 42.7948608 27.8634262 43.1211319 27.9063988 43.5033875zM47.0354691 44.4274673c.1948166 4.9647522.2257195 9.4893341.2530937 14.5116997.0018387.3377419-.2490234.6031494-.5681763.6005402-5.0988808-.0416489-8.6327362-.0712509-12.8669815-.1270523-.1118011-.0006599-.2154312-.0013008-.310173-.0018997-.3635788-.0023117-.6815681-.3327599-.6827507-.7120056-.0007019-.2260704.0000725-.5093422.0038757-.8539467.0730438-6.6216698 4.3279305-14.8418961 11.7696648-14.2644424.5647392.0065804 1.1573792.0451317 1.7789764.1157265C46.7476501 43.7340927 47.0207863 44.0532799 47.0354691 44.4274673zM65.5601578 44.4274673c.1948166 4.9647522.2257233 9.4893341.2530899 14.5116997.0018463.3377419-.2490158.6031494-.5681686.6005402-5.0988846-.0416489-8.63274-.0712509-12.8669853-.1270523-.1118011-.0006599-.2154312-.0013008-.310173-.0018997-.3635788-.0023117-.6815681-.3327599-.6827507-.7120056-.0007019-.2260704.0000763-.5093422.0038757-.8539467.0730438-6.6216698 4.3279305-14.8418961 11.7696648-14.2644424.5647392.0065804 1.1573753.0451317 1.7789726.1157265C65.2723389 43.7340927 65.5454788 44.0532799 65.5601578 44.4274673zM93.5948181 45.9824753c.0687256 5.7392578-.1322784 12.2865639-.0238571 18.0868378.0090866.4858932.4231186.8636551.909111.8404465 5.0059357-.2390671 9.6072617-.2391968 13.770752-.2203827.5586929.0025253.971405-.5148773.844101-1.0582428-1.3675995-5.8371696-2.6557236-13.7172318-10.5635223-17.2800636-1.3645172-.5253525-2.8853607-.8048973-4.5776978-.7461128C93.7518005 45.611969 93.5924072 45.7807007 93.5948181 45.9824753zM112.2141876 72.0896988c.080513-2.6662064 1.9536362-3.1951065 4.4212189-2.8408813.4379425.0628662.8717499.2005768 1.2588348.399498 2.7756119 1.4264297 2.1681137 3.5176315.1557617 4.7198486-2.0957947 1.2520599-5.1097031.4613647-5.7356873-1.6491394C112.2528915 72.5119247 112.207756 72.3025513 112.2141876 72.0896988z"/><path fill="#666" d="M93.7149506,67.0767441l2.594574,0.1610184
					c0.1663895,0.0103302,0.3027267,0.1905746,0.3096542,0.3978348l0,0
					c0.0067444,0.2018585-0.1119766,0.3641663-0.2698059,0.3673477l-2.4263077,0.0489349
					c-0.2612534,0.0052719-0.5348969-0.206665-0.6025925-0.4823151l0,0
					C93.2502899,67.2837753,93.4314194,67.0591507,93.7149506,67.0767441z"/><path fill="#FFF" d="M36.454155,91.202713c0.4158592,4.2544098-1.8010712,8.0318298-5.2397861,8.6332474
					c-3.825161,0.669014-7.899826-2.7441635-8.7270718-7.9057693c-0.8671112-5.4103622,2.2721996-9.6954956,6.5534439-9.3683472
					C32.8568459,82.8534546,36.0219688,86.7812958,36.454155,91.202713z"/><path fill="#664C46" d="M32.1567917,91.232933c0.1699982,1.8233032-0.6840591,3.4370804-2.0191784,3.6879349
				c-1.4851608,0.2790375-3.0753326-1.191124-3.4069862-3.403862c-0.3476391-2.3193741,0.863863-4.1488266,2.5282249-4.0002365
				C30.7423878,87.6492157,31.9801216,89.3380508,32.1567917,91.232933z"/><path fill="#FFF" d="M101.7970352,92.3620529c-0.2512512,3.9180984-3.0864258,6.971344-6.6545181,6.9496765
					c-3.9690704-0.0240936-7.5460434-3.7830734-7.5671616-8.5897522c-0.0221405-5.0383301,3.8247757-8.3992004,8.0973282-7.3986588
					C99.481041,84.2151489,102.0581436,88.2901535,101.7970352,92.3620529z"/><path fill="#664C46" d="M97.5012283,91.6782684c-0.0993118,1.5487061-1.2199707,2.7555695-2.6303329,2.7470016
				c-1.5688629-0.0095215-2.9827347-1.4953384-2.9910812-3.3952789c-0.0087509-1.9915085,1.5118256-3.3199615,3.2006378-2.9244766
				C96.5857849,88.4580307,97.6044388,90.0687637,97.5012283,91.6782684z"/><path fill="#FBE000" d="M88.0551529 78.900383H74.8028412V50.9830055c0-3.659523 2.966629-6.6261559 6.626152-6.6261559h.0000076c3.659523 0 6.626152 2.9666328 6.626152 6.6261559V78.900383zM9.3392572 81.7808456c4.9987926-1.1321487 6.9901876.2763138 7.9798613 1.934761.1477985.2476807.2348881.5164719.2577076.7841873.1496964 1.7562027-1.6873102 2.8930664-4.5258017 3.2836456C7.6218753 88.5304871 1.8719119 85.3197861 7.85425 82.3312912 8.3066292 82.1053009 8.7798758 81.9075394 9.3392572 81.7808456z"/><path fill="#FFEFE1" d="M98.5743179,82.9700699l-62.2280922,2.7133942
				C18.9972248,86.439949,3.0746148,74.6186447,2.1434832,58.996582l-0.0746627-1.2526512
				C1.1214428,41.8493004,16.083971,30.1497383,34.0371132,31.7182407l64.0491791,5.595747
				c11.8625565,1.0363884,20.9043732,11.3935661,20.9064026,23.0692825l0.0001602,0.9222717
				C118.9948654,72.8333206,110.1572571,82.4650116,98.5743179,82.9700699z"/><path fill="#FDE4CB" d="M118.9954987,60.3833084v0.9268799c0,11.526825-8.8400879,21.1506042-20.4199219,21.6633606
				l-62.2301064,2.7116165c-10.0699463,0.4437332-19.6600342-3.3624344-26.1199951-9.6829376l85.7199707-1.0254593
				c11.5900879-0.177536,20.7099609-9.5646133,21.0400391-21.0815697l0.0200195-0.9268799
				c0.0200195-0.6606941,0.0100098-1.3213234-0.0400391-1.9819527
				C118.275528,53.8951988,118.9954987,57.0800934,118.9954987,60.3833084z"/><path fill="#EE3C37" d="M105.1495514,89.2903137c-28.9457397-1.1615219-57.2294197-0.2771988-85.9620514-0.2771988
					c-3.1426315,0-7.6321049-0.8843231-7.6321049-4.8638077c0.4489479-2.2108154,2.2447367-3.5373154,4.4894733-3.9794769
					c29.697731-2.5807953,58.5457726-0.9773026,87.6841888-0.8234253c2.2329407,0.011795,4.4662933,0.1914825,6.6556091,0.6242065
					c0.0139389,0.0027618,0.0278854,0.0055237,0.0418243,0.0082932c1.3925018,0.2770462,2.7765656,0.6288681,4.1499176,1.0704269
					c1.30793,0.663414,2.2319107,1.6029358,2.3005447,2.7577362c0.1465302,2.4654999,0.0488739,4.9713058-7.8262253,5.422081
					C107.9211807,89.2935486,106.6334,89.3160019,105.1495514,89.2903137z"/><path fill="#FBE000" d="M27.9063988 43.8105431c.5699596 4.999157.9377327 9.5520287 1.3385506 14.6024971.0269432.3395042-.2121334.606163-.5415287.6033859-5.2629013-.0443764-8.9109306-.075882-13.2839775-.1340675-.1154127-.000721-.222393-.0014153-.3201981-.0020638-.3753405-.0025024-.7283125-.3348961-.7580462-.7162094-.017725-.2273102-.0382233-.512146-.060214-.8586693-.42276-6.6616745 3.3534946-14.9369545 11.0825844-14.3498726.5836849.0070343 1.1985493.0462875 1.8456898.1178436C27.5576553 43.111908 27.8634262 43.4336243 27.9063988 43.8105431zM47.0354691 44.7217255c.1948166 4.8954506.2257195 9.3568726.2530937 14.3091393.0018387.3330231-.2490234.5947266-.5681763.5921555-5.0988808-.041069-8.6327362-.0702591-12.8669815-.1252785-.1118011-.0006523-.2154312-.0012817-.310173-.0018768-.3635788-.0022774-.6815681-.3281136-.6827507-.7020645-.0007019-.2229156.0000725-.5022316.0038757-.8420296.0730438-6.5292358 4.3279305-14.6347237 11.7696648-14.0653305.5647392.0064926 1.1573792.0445061 1.7789764.1141129C46.7476501 44.0380287 47.0207863 44.3527603 47.0354691 44.7217255zM65.5601578 44.7217255c.1948166 4.8954506.2257233 9.3568726.2530899 14.3091393.0018463.3330231-.2490158.5947266-.5681686.5921555-5.0988846-.041069-8.63274-.0702591-12.8669853-.1252785-.1118011-.0006523-.2154312-.0012817-.310173-.0018768-.3635788-.0022774-.6815681-.3281136-.6827507-.7020645-.0007019-.2229156.0000763-.5022316.0038757-.8420296.0730438-6.5292358 4.3279305-14.6347237 11.7696648-14.0653305.5647392.0064926 1.1573753.0445061 1.7789726.1141129C65.2723389 44.0380287 65.5454788 44.3527603 65.5601578 44.7217255zM93.5948181 46.2550278c.0687256 5.6591454-.1322784 12.1150589-.0238571 17.8343735.0090866.4791107.4231186.8516006.909111.8287125 5.0059357-.235733 9.6072617-.2358627 13.770752-.217308.5586929.0024872.971405-.5076904.844101-1.0434685-1.3675995-5.7556915-2.6557236-13.5257607-10.5635223-17.0388641-1.3645172-.5180168-2.8853607-.7936592-4.5776978-.7356949C93.7518005 45.8896942 93.5924072 46.0560684 93.5948181 46.2550278zM112.2141876 71.9978256c.080513-2.6289902 1.9536362-3.1505051 4.4212189-2.8012238.4379425.0619965.8717499.1977768 1.2588348.3939285 2.7756119 1.406517 2.1681137 3.4685287.1557617 4.6539612-2.0957947 1.2345886-5.1097031.4549179-5.7356873-1.6261215C112.2528915 72.4141617 112.207756 72.2077103 112.2141876 71.9978256z"/><path fill="#666" d="M93.7149506,67.0548553l2.594574,0.1587677c0.1663895,0.0101852,0.3027267,0.187912,0.3096542,0.3922806
					l0,0c0.0067444,0.1990356-0.1119766,0.3590851-0.2698059,0.3622208l-2.4263077,0.0482483
					c-0.2612534,0.0051956-0.5348969-0.2037811-0.6025925-0.4755783v-0.0000076
					C93.2502899,67.2589874,93.4314194,67.0374985,93.7149506,67.0548553z"/><path fill="#FFF" d="M36.454155,90.8440552c0.4158592,4.1950226-1.8010712,7.9197159-5.2397861,8.5127411
					c-3.825161,0.659668-7.899826-2.705864-8.7270718-7.7954254c-0.8671112-5.3348312,2.2721996-9.5601501,6.5534439-9.2375641
					C32.8568459,82.6113434,36.0219688,86.4843521,36.454155,90.8440552z"/><path fill="#664C46" d="M32.1567917,90.873848c0.1699982,1.7978592-0.6840591,3.3891144-2.0191784,3.6364594
				c-1.4851608,0.2751465-3.0753326-1.1744919-3.4069862-3.3563461c-0.3476391-2.2869949,0.863863-4.0909119,2.5282249-3.944397
				C30.7423878,87.3401566,31.9801216,89.0054169,32.1567917,90.873848z"/><path fill="#FFF" d="M101.7970352,91.9872131c-0.2512512,3.8634033-3.0864258,6.8740311-6.6545181,6.8526688
					c-3.9690704-0.0237579-7.5460434-3.7302628-7.5671616-8.4698563c-0.0221405-4.9679947,3.8247757-8.2819519,8.0973282-7.2953796
					C99.481041,83.9540253,102.0581436,87.9721527,101.7970352,91.9872131z"/><path fill="#664C46" d="M97.5012283,91.312973c-0.0993118,1.527092-1.2199707,2.7171021-2.6303329,2.7086563
				c-1.5688629-0.0093918-2.9827347-1.4744644-2.9910812-3.3478851c-0.0087509-1.963707,1.5118256-3.2736206,3.2006378-2.8836594
				C96.5857849,88.1376801,97.6044388,89.7259293,97.5012283,91.312973z"/><path fill="#FBE000" d="M88.0551529,78.7134476H74.8028412V51.2782478c0-3.659523,2.966629-6.626152,6.626152-6.626152
					h0.0000076c3.659523,0,6.626152,2.966629,6.626152,6.626152V78.7134476z"/><g><path fill="#FBE000" d="M9.3392572,81.7808456c4.9987926-1.1321487,6.9901876,0.2763138,7.9798613,1.934761
					c0.1477985,0.2476807,0.2348881,0.5164719,0.2577076,0.7841873c0.1496964,1.7562027-1.6873102,2.8930664-4.5258017,3.2836456
					C7.6218753,88.5304871,1.8719119,85.3197861,7.85425,82.3312912
					C8.3066292,82.1053009,8.7798758,81.9075394,9.3392572,81.7808456z"/><path fill="#FFEFE1" d="M98.5743179,82.9700699l-62.2280922,2.7133942
				C18.9972248,86.439949,3.0746148,74.6186447,2.1434832,58.996582l-0.0746627-1.2526512
				C1.1214428,41.8493004,16.083971,30.1497383,34.0371132,31.7182407l64.0491791,5.595747
				c11.8625565,1.0363884,20.9043732,11.3935661,20.9064026,23.0692825l0.0001602,0.9222717
				C118.9948654,72.8333206,110.1572571,82.4650116,98.5743179,82.9700699z"/><path fill="#FDE4CB" d="M118.9954987,60.3833084v0.9268799c0,11.526825-8.8400879,21.1506042-20.4199219,21.6633606
				l-62.2301064,2.7116165c-10.0699463,0.4437332-19.6600342-3.3624344-26.1199951-9.6829376l85.7199707-1.0254593
				c11.5900879-0.177536,20.7099609-9.5646133,21.0400391-21.0815697l0.0200195-0.9268799
				c0.0200195-0.6606941,0.0100098-1.3213234-0.0400391-1.9819527
				C118.275528,53.8951988,118.9954987,57.0800934,118.9954987,60.3833084z"/><path fill="#EE3C37" d="M105.1495514,89.2903137c-28.9457397-1.1615219-57.2294197-0.2771988-85.9620514-0.2771988
					c-3.1426315,0-7.6321049-0.8843231-7.6321049-4.8638077c0.4489479-2.2108154,2.2447367-3.5373154,4.4894733-3.9794769
					c29.697731-2.5807953,58.5457726-0.9773026,87.6841888-0.8234253c2.2329407,0.011795,4.4662933,0.1914825,6.6556091,0.6242065
					c0.0139389,0.0027618,0.0278854,0.0055237,0.0418243,0.0082932c1.3925018,0.2770462,2.7765656,0.6288681,4.1499176,1.0704269
					c1.30793,0.663414,2.2319107,1.6029358,2.3005447,2.7577362c0.1465302,2.4654999,0.0488739,4.9713058-7.8262253,5.422081
					C107.9211807,89.2935486,106.6334,89.3160019,105.1495514,89.2903137z"/><path fill="#FBE000" d="M27.9063988 43.8105431c.5699596 4.999157.9377327 9.5520287 1.3385506 14.6024971.0269432.3395042-.2121334.606163-.5415287.6033859-5.2629013-.0443764-8.9109306-.075882-13.2839775-.1340675-.1154127-.000721-.222393-.0014153-.3201981-.0020638-.3753405-.0025024-.7283125-.3348961-.7580462-.7162094-.017725-.2273102-.0382233-.512146-.060214-.8586693-.42276-6.6616745 3.3534946-14.9369545 11.0825844-14.3498726.5836849.0070343 1.1985493.0462875 1.8456898.1178436C27.5576553 43.111908 27.8634262 43.4336243 27.9063988 43.8105431zM47.0354691 44.7217255c.1948166 4.8954506.2257195 9.3568726.2530937 14.3091393.0018387.3330231-.2490234.5947266-.5681763.5921555-5.0988808-.041069-8.6327362-.0702591-12.8669815-.1252785-.1118011-.0006523-.2154312-.0012817-.310173-.0018768-.3635788-.0022774-.6815681-.3281136-.6827507-.7020645-.0007019-.2229156.0000725-.5022316.0038757-.8420296.0730438-6.5292358 4.3279305-14.6347237 11.7696648-14.0653305.5647392.0064926 1.1573792.0445061 1.7789764.1141129C46.7476501 44.0380287 47.0207863 44.3527603 47.0354691 44.7217255zM65.5601578 44.7217255c.1948166 4.8954506.2257233 9.3568726.2530899 14.3091393.0018463.3330231-.2490158.5947266-.5681686.5921555-5.0988846-.041069-8.63274-.0702591-12.8669853-.1252785-.1118011-.0006523-.2154312-.0012817-.310173-.0018768-.3635788-.0022774-.6815681-.3281136-.6827507-.7020645-.0007019-.2229156.0000763-.5022316.0038757-.8420296.0730438-6.5292358 4.3279305-14.6347237 11.7696648-14.0653305.5647392.0064926 1.1573753.0445061 1.7789726.1141129C65.2723389 44.0380287 65.5454788 44.3527603 65.5601578 44.7217255zM93.5948181 46.2550278c.0687256 5.6591454-.1322784 12.1150589-.0238571 17.8343735.0090866.4791107.4231186.8516006.909111.8287125 5.0059357-.235733 9.6072617-.2358627 13.770752-.217308.5586929.0024872.971405-.5076904.844101-1.0434685-1.3675995-5.7556915-2.6557236-13.5257607-10.5635223-17.0388641-1.3645172-.5180168-2.8853607-.7936592-4.5776978-.7356949C93.7518005 45.8896942 93.5924072 46.0560684 93.5948181 46.2550278zM112.2141876 71.9978256c.080513-2.6289902 1.9536362-3.1505051 4.4212189-2.8012238.4379425.0619965.8717499.1977768 1.2588348.3939285 2.7756119 1.406517 2.1681137 3.4685287.1557617 4.6539612-2.0957947 1.2345886-5.1097031.4549179-5.7356873-1.6261215C112.2528915 72.4141617 112.207756 72.2077103 112.2141876 71.9978256z"/><path fill="#666" d="M93.7149506,67.0548553l2.594574,0.1587677c0.1663895,0.0101852,0.3027267,0.187912,0.3096542,0.3922806
					l0,0c0.0067444,0.1990356-0.1119766,0.3590851-0.2698059,0.3622208l-2.4263077,0.0482483
					c-0.2612534,0.0051956-0.5348969-0.2037811-0.6025925-0.4755783v-0.0000076
					C93.2502899,67.2589874,93.4314194,67.0374985,93.7149506,67.0548553z"/><path fill="#FFF" d="M36.454155,90.8440552c0.4158592,4.1950226-1.8010712,7.9197159-5.2397861,8.5127411
					c-3.825161,0.659668-7.899826-2.705864-8.7270718-7.7954254c-0.8671112-5.3348312,2.2721996-9.5601501,6.5534439-9.2375641
					C32.8568459,82.6113434,36.0219688,86.4843521,36.454155,90.8440552z"/><path fill="#664C46" d="M32.1567917,90.873848c0.1699982,1.7978592-0.6840591,3.3891144-2.0191784,3.6364594
				c-1.4851608,0.2751465-3.0753326-1.1744919-3.4069862-3.3563461c-0.3476391-2.2869949,0.863863-4.0909119,2.5282249-3.944397
				C30.7423878,87.3401566,31.9801216,89.0054169,32.1567917,90.873848z"/><path fill="#FFF" d="M101.7970352,91.9872131c-0.2512512,3.8634033-3.0864258,6.8740311-6.6545181,6.8526688
					c-3.9690704-0.0237579-7.5460434-3.7302628-7.5671616-8.4698563c-0.0221405-4.9679947,3.8247757-8.2819519,8.0973282-7.2953796
					C99.481041,83.9540253,102.0581436,87.9721527,101.7970352,91.9872131z"/><path fill="#664C46" d="M97.5012283,91.312973c-0.0993118,1.527092-1.2199707,2.7171021-2.6303329,2.7086563
				c-1.5688629-0.0093918-2.9827347-1.4744644-2.9910812-3.3478851c-0.0087509-1.963707,1.5118256-3.2736206,3.2006378-2.8836594
				C96.5857849,88.1376801,97.6044388,89.7259293,97.5012283,91.312973z"/><path fill="#FBE000" d="M88.0551529,78.7134476H74.8028412V51.2782478c0-3.659523,2.966629-6.626152,6.626152-6.626152
					h0.0000076c3.659523,0,6.626152,2.966629,6.626152,6.626152V78.7134476z"/></g><g><path fill="#FBE000" d="M9.3392572,81.7808456c4.9987926-1.1321487,6.9901876,0.2763138,7.9798613,1.934761
					c0.1477985,0.2476807,0.2348881,0.5164719,0.2577076,0.7841873c0.1496964,1.7562027-1.6873102,2.8930664-4.5258017,3.2836456
					C7.6218753,88.5304871,1.8719119,85.3197861,7.85425,82.3312912
					C8.3066292,82.1053009,8.7798758,81.9075394,9.3392572,81.7808456z"/><path fill="#FFEFE1" d="M98.5743179,82.9700699l-62.2280922,2.7133942
				C18.9972248,86.439949,3.0746148,74.6186447,2.1434832,58.996582l-0.0746627-1.2526512
				C1.1214428,41.8493004,16.083971,30.1497383,34.0371132,31.7182407l64.0491791,5.595747
				c11.8625565,1.0363884,20.9043732,11.3935661,20.9064026,23.0692825l0.0001602,0.9222717
				C118.9948654,72.8333206,110.1572571,82.4650116,98.5743179,82.9700699z"/><path fill="#FDE4CB" d="M118.9954987,60.3833084v0.9268799c0,11.526825-8.8400879,21.1506042-20.4199219,21.6633606
				l-62.2301064,2.7116165c-10.0699463,0.4437332-19.6600342-3.3624344-26.1199951-9.6829376l85.7199707-1.0254593
				c11.5900879-0.177536,20.7099609-9.5646133,21.0400391-21.0815697l0.0200195-0.9268799
				c0.0200195-0.6606941,0.0100098-1.3213234-0.0400391-1.9819527
				C118.275528,53.8951988,118.9954987,57.0800934,118.9954987,60.3833084z"/><path fill="#EE3C37" d="M105.1495514,89.2903137c-28.9457397-1.1615219-57.2294197-0.2771988-85.9620514-0.2771988
					c-3.1426315,0-7.6321049-0.8843231-7.6321049-4.8638077c0.4489479-2.2108154,2.2447367-3.5373154,4.4894733-3.9794769
					c29.697731-2.5807953,58.5457726-0.9773026,87.6841888-0.8234253c2.2329407,0.011795,4.4662933,0.1914825,6.6556091,0.6242065
					c0.0139389,0.0027618,0.0278854,0.0055237,0.0418243,0.0082932c1.3925018,0.2770462,2.7765656,0.6288681,4.1499176,1.0704269
					c1.30793,0.663414,2.2319107,1.6029358,2.3005447,2.7577362c0.1465302,2.4654999,0.0488739,4.9713058-7.8262253,5.422081
					C107.9211807,89.2935486,106.6334,89.3160019,105.1495514,89.2903137z"/><path fill="#FBE000" d="M27.9063988 43.8105431c.5699596 4.999157.9377327 9.5520287 1.3385506 14.6024971.0269432.3395042-.2121334.606163-.5415287.6033859-5.2629013-.0443764-8.9109306-.075882-13.2839775-.1340675-.1154127-.000721-.222393-.0014153-.3201981-.0020638-.3753405-.0025024-.7283125-.3348961-.7580462-.7162094-.017725-.2273102-.0382233-.512146-.060214-.8586693-.42276-6.6616745 3.3534946-14.9369545 11.0825844-14.3498726.5836849.0070343 1.1985493.0462875 1.8456898.1178436C27.5576553 43.111908 27.8634262 43.4336243 27.9063988 43.8105431zM47.0354691 44.7217255c.1948166 4.8954506.2257195 9.3568726.2530937 14.3091393.0018387.3330231-.2490234.5947266-.5681763.5921555-5.0988808-.041069-8.6327362-.0702591-12.8669815-.1252785-.1118011-.0006523-.2154312-.0012817-.310173-.0018768-.3635788-.0022774-.6815681-.3281136-.6827507-.7020645-.0007019-.2229156.0000725-.5022316.0038757-.8420296.0730438-6.5292358 4.3279305-14.6347237 11.7696648-14.0653305.5647392.0064926 1.1573792.0445061 1.7789764.1141129C46.7476501 44.0380287 47.0207863 44.3527603 47.0354691 44.7217255zM65.5601578 44.7217255c.1948166 4.8954506.2257233 9.3568726.2530899 14.3091393.0018463.3330231-.2490158.5947266-.5681686.5921555-5.0988846-.041069-8.63274-.0702591-12.8669853-.1252785-.1118011-.0006523-.2154312-.0012817-.310173-.0018768-.3635788-.0022774-.6815681-.3281136-.6827507-.7020645-.0007019-.2229156.0000763-.5022316.0038757-.8420296.0730438-6.5292358 4.3279305-14.6347237 11.7696648-14.0653305.5647392.0064926 1.1573753.0445061 1.7789726.1141129C65.2723389 44.0380287 65.5454788 44.3527603 65.5601578 44.7217255zM93.5948181 46.2550278c.0687256 5.6591454-.1322784 12.1150589-.0238571 17.8343735.0090866.4791107.4231186.8516006.909111.8287125 5.0059357-.235733 9.6072617-.2358627 13.770752-.217308.5586929.0024872.971405-.5076904.844101-1.0434685-1.3675995-5.7556915-2.6557236-13.5257607-10.5635223-17.0388641-1.3645172-.5180168-2.8853607-.7936592-4.5776978-.7356949C93.7518005 45.8896942 93.5924072 46.0560684 93.5948181 46.2550278zM112.2141876 71.9978256c.080513-2.6289902 1.9536362-3.1505051 4.4212189-2.8012238.4379425.0619965.8717499.1977768 1.2588348.3939285 2.7756119 1.406517 2.1681137 3.4685287.1557617 4.6539612-2.0957947 1.2345886-5.1097031.4549179-5.7356873-1.6261215C112.2528915 72.4141617 112.207756 72.2077103 112.2141876 71.9978256z"/><path fill="#666" d="M93.7149506,67.0548553l2.594574,0.1587677c0.1663895,0.0101852,0.3027267,0.187912,0.3096542,0.3922806
					l0,0c0.0067444,0.1990356-0.1119766,0.3590851-0.2698059,0.3622208l-2.4263077,0.0482483
					c-0.2612534,0.0051956-0.5348969-0.2037811-0.6025925-0.4755783v-0.0000076
					C93.2502899,67.2589874,93.4314194,67.0374985,93.7149506,67.0548553z"/><path fill="#FFF" d="M36.454155,90.8440552c0.4158592,4.1950226-1.8010712,7.9197159-5.2397861,8.5127411
					c-3.825161,0.659668-7.899826-2.705864-8.7270718-7.7954254c-0.8671112-5.3348312,2.2721996-9.5601501,6.5534439-9.2375641
					C32.8568459,82.6113434,36.0219688,86.4843521,36.454155,90.8440552z"/><path fill="#664C46" d="M32.1567917,90.873848c0.1699982,1.7978592-0.6840591,3.3891144-2.0191784,3.6364594
				c-1.4851608,0.2751465-3.0753326-1.1744919-3.4069862-3.3563461c-0.3476391-2.2869949,0.863863-4.0909119,2.5282249-3.944397
				C30.7423878,87.3401566,31.9801216,89.0054169,32.1567917,90.873848z"/><path fill="#FFF" d="M101.7970352,91.9872131c-0.2512512,3.8634033-3.0864258,6.8740311-6.6545181,6.8526688
					c-3.9690704-0.0237579-7.5460434-3.7302628-7.5671616-8.4698563c-0.0221405-4.9679947,3.8247757-8.2819519,8.0973282-7.2953796
					C99.481041,83.9540253,102.0581436,87.9721527,101.7970352,91.9872131z"/><path fill="#664C46" d="M97.5012283,91.312973c-0.0993118,1.527092-1.2199707,2.7171021-2.6303329,2.7086563
				c-1.5688629-0.0093918-2.9827347-1.4744644-2.9910812-3.3478851c-0.0087509-1.963707,1.5118256-3.2736206,3.2006378-2.8836594
				C96.5857849,88.1376801,97.6044388,89.7259293,97.5012283,91.312973z"/><path fill="#FBE000" d="M88.0551529,78.7134476H74.8028412V51.2782478c0-3.659523,2.966629-6.626152,6.626152-6.626152
					h0.0000076c3.659523,0,6.626152,2.966629,6.626152,6.626152V78.7134476z"/></g><g><path fill="#FBE000" d="M9.3392572,81.7808456c4.9987926-1.1321487,6.9901876,0.2763138,7.9798613,1.934761
					c0.1477985,0.2476807,0.2348881,0.5164719,0.2577076,0.7841873c0.1496964,1.7562027-1.6873102,2.8930664-4.5258017,3.2836456
					C7.6218753,88.5304871,1.8719119,85.3197861,7.85425,82.3312912
					C8.3066292,82.1053009,8.7798758,81.9075394,9.3392572,81.7808456z"/><path fill="#FFEFE1" d="M98.5743179,82.9700699l-62.2280922,2.7133942
				C18.9972248,86.439949,3.0746148,74.6186447,2.1434832,58.996582l-0.0746627-1.2526512
				C1.1214428,41.8493004,16.083971,30.1497383,34.0371132,31.7182407l64.0491791,5.595747
				c11.8625565,1.0363884,20.9043732,11.3935661,20.9064026,23.0692825l0.0001602,0.9222717
				C118.9948654,72.8333206,110.1572571,82.4650116,98.5743179,82.9700699z"/><path fill="#FDE4CB" d="M118.9954987,60.3833084v0.9268799c0,11.526825-8.8400879,21.1506042-20.4199219,21.6633606
				l-62.2301064,2.7116165c-10.0699463,0.4437332-19.6600342-3.3624344-26.1199951-9.6829376l85.7199707-1.0254593
				c11.5900879-0.177536,20.7099609-9.5646133,21.0400391-21.0815697l0.0200195-0.9268799
				c0.0200195-0.6606941,0.0100098-1.3213234-0.0400391-1.9819527
				C118.275528,53.8951988,118.9954987,57.0800934,118.9954987,60.3833084z"/><path fill="#EE3C37" d="M105.1495514,89.2903137c-28.9457397-1.1615219-57.2294197-0.2771988-85.9620514-0.2771988
					c-3.1426315,0-7.6321049-0.8843231-7.6321049-4.8638077c0.4489479-2.2108154,2.2447367-3.5373154,4.4894733-3.9794769
					c29.697731-2.5807953,58.5457726-0.9773026,87.6841888-0.8234253c2.2329407,0.011795,4.4662933,0.1914825,6.6556091,0.6242065
					c0.0139389,0.0027618,0.0278854,0.0055237,0.0418243,0.0082932c1.3925018,0.2770462,2.7765656,0.6288681,4.1499176,1.0704269
					c1.30793,0.663414,2.2319107,1.6029358,2.3005447,2.7577362c0.1465302,2.4654999,0.0488739,4.9713058-7.8262253,5.422081
					C107.9211807,89.2935486,106.6334,89.3160019,105.1495514,89.2903137z"/><path fill="#FBE000" d="M27.9063988 43.8105431c.5699596 4.999157.9377327 9.5520287 1.3385506 14.6024971.0269432.3395042-.2121334.606163-.5415287.6033859-5.2629013-.0443764-8.9109306-.075882-13.2839775-.1340675-.1154127-.000721-.222393-.0014153-.3201981-.0020638-.3753405-.0025024-.7283125-.3348961-.7580462-.7162094-.017725-.2273102-.0382233-.512146-.060214-.8586693-.42276-6.6616745 3.3534946-14.9369545 11.0825844-14.3498726.5836849.0070343 1.1985493.0462875 1.8456898.1178436C27.5576553 43.111908 27.8634262 43.4336243 27.9063988 43.8105431zM47.0354691 44.7217255c.1948166 4.8954506.2257195 9.3568726.2530937 14.3091393.0018387.3330231-.2490234.5947266-.5681763.5921555-5.0988808-.041069-8.6327362-.0702591-12.8669815-.1252785-.1118011-.0006523-.2154312-.0012817-.310173-.0018768-.3635788-.0022774-.6815681-.3281136-.6827507-.7020645-.0007019-.2229156.0000725-.5022316.0038757-.8420296.0730438-6.5292358 4.3279305-14.6347237 11.7696648-14.0653305.5647392.0064926 1.1573792.0445061 1.7789764.1141129C46.7476501 44.0380287 47.0207863 44.3527603 47.0354691 44.7217255zM65.5601578 44.7217255c.1948166 4.8954506.2257233 9.3568726.2530899 14.3091393.0018463.3330231-.2490158.5947266-.5681686.5921555-5.0988846-.041069-8.63274-.0702591-12.8669853-.1252785-.1118011-.0006523-.2154312-.0012817-.310173-.0018768-.3635788-.0022774-.6815681-.3281136-.6827507-.7020645-.0007019-.2229156.0000763-.5022316.0038757-.8420296.0730438-6.5292358 4.3279305-14.6347237 11.7696648-14.0653305.5647392.0064926 1.1573753.0445061 1.7789726.1141129C65.2723389 44.0380287 65.5454788 44.3527603 65.5601578 44.7217255zM93.5948181 46.2550278c.0687256 5.6591454-.1322784 12.1150589-.0238571 17.8343735.0090866.4791107.4231186.8516006.909111.8287125 5.0059357-.235733 9.6072617-.2358627 13.770752-.217308.5586929.0024872.971405-.5076904.844101-1.0434685-1.3675995-5.7556915-2.6557236-13.5257607-10.5635223-17.0388641-1.3645172-.5180168-2.8853607-.7936592-4.5776978-.7356949C93.7518005 45.8896942 93.5924072 46.0560684 93.5948181 46.2550278zM112.2141876 71.9978256c.080513-2.6289902 1.9536362-3.1505051 4.4212189-2.8012238.4379425.0619965.8717499.1977768 1.2588348.3939285 2.7756119 1.406517 2.1681137 3.4685287.1557617 4.6539612-2.0957947 1.2345886-5.1097031.4549179-5.7356873-1.6261215C112.2528915 72.4141617 112.207756 72.2077103 112.2141876 71.9978256z"/><path fill="#666" d="M93.7149506,67.0548553l2.594574,0.1587677c0.1663895,0.0101852,0.3027267,0.187912,0.3096542,0.3922806
					l0,0c0.0067444,0.1990356-0.1119766,0.3590851-0.2698059,0.3622208l-2.4263077,0.0482483
					c-0.2612534,0.0051956-0.5348969-0.2037811-0.6025925-0.4755783v-0.0000076
					C93.2502899,67.2589874,93.4314194,67.0374985,93.7149506,67.0548553z"/><path fill="#FFF" d="M36.454155,90.8440552c0.4158592,4.1950226-1.8010712,7.9197159-5.2397861,8.5127411
					c-3.825161,0.659668-7.899826-2.705864-8.7270718-7.7954254c-0.8671112-5.3348312,2.2721996-9.5601501,6.5534439-9.2375641
					C32.8568459,82.6113434,36.0219688,86.4843521,36.454155,90.8440552z"/><path fill="#664C46" d="M32.1567917,90.873848c0.1699982,1.7978592-0.6840591,3.3891144-2.0191784,3.6364594
				c-1.4851608,0.2751465-3.0753326-1.1744919-3.4069862-3.3563461c-0.3476391-2.2869949,0.863863-4.0909119,2.5282249-3.944397
				C30.7423878,87.3401566,31.9801216,89.0054169,32.1567917,90.873848z"/><path fill="#FFF" d="M101.7970352,91.9872131c-0.2512512,3.8634033-3.0864258,6.8740311-6.6545181,6.8526688
					c-3.9690704-0.0237579-7.5460434-3.7302628-7.5671616-8.4698563c-0.0221405-4.9679947,3.8247757-8.2819519,8.0973282-7.2953796
					C99.481041,83.9540253,102.0581436,87.9721527,101.7970352,91.9872131z"/><path fill="#664C46" d="M97.5012283,91.312973c-0.0993118,1.527092-1.2199707,2.7171021-2.6303329,2.7086563
				c-1.5688629-0.0093918-2.9827347-1.4744644-2.9910812-3.3478851c-0.0087509-1.963707,1.5118256-3.2736206,3.2006378-2.8836594
				C96.5857849,88.1376801,97.6044388,89.7259293,97.5012283,91.312973z"/><path fill="#FBE000" d="M88.0551529,78.7134476H74.8028412V51.2782478c0-3.659523,2.966629-6.626152,6.626152-6.626152
					h0.0000076c3.659523,0,6.626152,2.966629,6.626152,6.626152V78.7134476z"/></g><g><path fill="#FBE000" d="M9.3392572,81.7808456c4.9987926-1.1321487,6.9901876,0.2763138,7.9798613,1.934761
				c0.1477985,0.2476807,0.2348881,0.5164719,0.2577076,0.7841873c0.1496964,1.7562027-1.6873102,2.8930664-4.5258017,3.2836456
				C7.6218753,88.5304871,1.8719119,85.3197861,7.85425,82.3312912C8.3066292,82.1053009,8.7798758,81.9075394,9.3392572,81.7808456
				z"/><path fill="#FFEFE1" d="M98.5743179,82.9700699l-62.2280922,2.7133942
				C18.9972248,86.439949,3.0746148,74.6186447,2.1434832,58.996582l-0.0746627-1.2526512
				C1.1214428,41.8493004,16.083971,30.1497383,34.0371132,31.7182407l64.0491791,5.595747
				c11.8625565,1.0363884,20.9043732,11.3935661,20.9064026,23.0692825l0.0001602,0.9222717
				C118.9948654,72.8333206,110.1572571,82.4650116,98.5743179,82.9700699z"/><path fill="#FDE4CB" d="M118.9954987,60.3833084v0.9268799c0,11.526825-8.8400879,21.1506042-20.4199219,21.6633606
				l-62.2301064,2.7116165c-10.0699463,0.4437332-19.6600342-3.3624344-26.1199951-9.6829376l85.7199707-1.0254593
				c11.5900879-0.177536,20.7099609-9.5646133,21.0400391-21.0815697l0.0200195-0.9268799
				c0.0200195-0.6606941,0.0100098-1.3213234-0.0400391-1.9819527
				C118.275528,53.8951988,118.9954987,57.0800934,118.9954987,60.3833084z"/><path fill="#EE3C37" d="M105.1495514,89.2903137c-28.9457397-1.1615219-57.2294197-0.2771988-85.9620514-0.2771988
				c-3.1426315,0-7.6321049-0.8843231-7.6321049-4.8638077c0.4489479-2.2108154,2.2447367-3.5373154,4.4894733-3.9794769
				c29.697731-2.5807953,58.5457726-0.9773026,87.6841888-0.8234253c2.2329407,0.011795,4.4662933,0.1914825,6.6556091,0.6242065
				c0.0139389,0.0027618,0.0278854,0.0055237,0.0418243,0.0082932c1.3925018,0.2770462,2.7765656,0.6288681,4.1499176,1.0704269
				c1.30793,0.663414,2.2319107,1.6029358,2.3005447,2.7577362c0.1465302,2.4654999,0.0488739,4.9713058-7.8262253,5.422081
				C107.9211807,89.2935486,106.6334,89.3160019,105.1495514,89.2903137z"/><path fill="#FBE000" d="M27.9063988 43.8105431c.5699596 4.999157.9377327 9.5520287 1.3385506 14.6024971.0269432.3395042-.2121334.606163-.5415287.6033859-5.2629013-.0443764-8.9109306-.075882-13.2839775-.1340675-.1154127-.000721-.222393-.0014153-.3201981-.0020638-.3753405-.0025024-.7283125-.3348961-.7580462-.7162094-.017725-.2273102-.0382233-.512146-.060214-.8586693-.42276-6.6616745 3.3534946-14.9369545 11.0825844-14.3498726.5836849.0070343 1.1985493.0462875 1.8456898.1178436C27.5576553 43.111908 27.8634262 43.4336243 27.9063988 43.8105431zM47.0354691 44.7217255c.1948166 4.8954506.2257195 9.3568726.2530937 14.3091393.0018387.3330231-.2490234.5947266-.5681763.5921555-5.0988808-.041069-8.6327362-.0702591-12.8669815-.1252785-.1118011-.0006523-.2154312-.0012817-.310173-.0018768-.3635788-.0022774-.6815681-.3281136-.6827507-.7020645-.0007019-.2229156.0000725-.5022316.0038757-.8420296.0730438-6.5292358 4.3279305-14.6347237 11.7696648-14.0653305.5647392.0064926 1.1573792.0445061 1.7789764.1141129C46.7476501 44.0380287 47.0207863 44.3527603 47.0354691 44.7217255zM65.5601578 44.7217255c.1948166 4.8954506.2257233 9.3568726.2530899 14.3091393.0018463.3330231-.2490158.5947266-.5681686.5921555-5.0988846-.041069-8.63274-.0702591-12.8669853-.1252785-.1118011-.0006523-.2154312-.0012817-.310173-.0018768-.3635788-.0022774-.6815681-.3281136-.6827507-.7020645-.0007019-.2229156.0000763-.5022316.0038757-.8420296.0730438-6.5292358 4.3279305-14.6347237 11.7696648-14.0653305.5647392.0064926 1.1573753.0445061 1.7789726.1141129C65.2723389 44.0380287 65.5454788 44.3527603 65.5601578 44.7217255zM93.5948181 46.2550278c.0687256 5.6591454-.1322784 12.1150589-.0238571 17.8343735.0090866.4791107.4231186.8516006.909111.8287125 5.0059357-.235733 9.6072617-.2358627 13.770752-.217308.5586929.0024872.971405-.5076904.844101-1.0434685-1.3675995-5.7556915-2.6557236-13.5257607-10.5635223-17.0388641-1.3645172-.5180168-2.8853607-.7936592-4.5776978-.7356949C93.7518005 45.8896942 93.5924072 46.0560684 93.5948181 46.2550278zM112.2141876 71.9978256c.080513-2.6289902 1.9536362-3.1505051 4.4212189-2.8012238.4379425.0619965.8717499.1977768 1.2588348.3939285 2.7756119 1.406517 2.1681137 3.4685287.1557617 4.6539612-2.0957947 1.2345886-5.1097031.4549179-5.7356873-1.6261215C112.2528915 72.4141617 112.207756 72.2077103 112.2141876 71.9978256z"/><path fill="#666" d="M93.7149506,67.0548553l2.594574,0.1587677c0.1663895,0.0101852,0.3027267,0.187912,0.3096542,0.3922806
				l0,0c0.0067444,0.1990356-0.1119766,0.3590851-0.2698059,0.3622208l-2.4263077,0.0482483
				c-0.2612534,0.0051956-0.5348969-0.2037811-0.6025925-0.4755783v-0.0000076
				C93.2502899,67.2589874,93.4314194,67.0374985,93.7149506,67.0548553z"/><path fill="#FFF" d="M36.454155,90.8440552c0.4158592,4.1950226-1.8010712,7.9197159-5.2397861,8.5127411
				c-3.825161,0.659668-7.899826-2.705864-8.7270718-7.7954254c-0.8671112-5.3348312,2.2721996-9.5601501,6.5534439-9.2375641
				C32.8568459,82.6113434,36.0219688,86.4843521,36.454155,90.8440552z"/><path fill="#664C46" d="M32.1567917,90.873848c0.1699982,1.7978592-0.6840591,3.3891144-2.0191784,3.6364594
			c-1.4851608,0.2751465-3.0753326-1.1744919-3.4069862-3.3563461c-0.3476391-2.2869949,0.863863-4.0909119,2.5282249-3.944397
			C30.7423878,87.3401566,31.9801216,89.0054169,32.1567917,90.873848z"/><path fill="#FFF" d="M101.7970352,91.9872131c-0.2512512,3.8634033-3.0864258,6.8740311-6.6545181,6.8526688
				c-3.9690704-0.0237579-7.5460434-3.7302628-7.5671616-8.4698563c-0.0221405-4.9679947,3.8247757-8.2819519,8.0973282-7.2953796
				C99.481041,83.9540253,102.0581436,87.9721527,101.7970352,91.9872131z"/><path fill="#664C46" d="M97.5012283,91.312973c-0.0993118,1.527092-1.2199707,2.7171021-2.6303329,2.7086563
			c-1.5688629-0.0093918-2.9827347-1.4744644-2.9910812-3.3478851c-0.0087509-1.963707,1.5118256-3.2736206,3.2006378-2.8836594
			C96.5857849,88.1376801,97.6044388,89.7259293,97.5012283,91.312973z"/><path fill="#FBE000" d="M88.0551529,78.7134476H74.8028412V51.2782478c0-3.659523,2.966629-6.626152,6.626152-6.626152h0.0000076
				c3.659523,0,6.626152,2.966629,6.626152,6.626152V78.7134476z"/></g><g><path fill="#553045" d="M129.2713165 72.4633026l-6.1672363.2575684c-.1243896.0056152-.2270508.1055908-.2322998.2322998-.0056152.1337891.0983887.2469482.2322998.2524414l6.1672363.2576904c.0134277.0004883.0280762.0004883.041748 0 .276123-.0115967.4907227-.244751.479126-.520874C129.7807159 72.6661835 129.5474396 72.4517059 129.2713165 72.4633026zM122.3924103 75.8900604c-.0810547-.0891113-.2176514-.1062012-.3189697-.0352783-.1098633.0770264-.1364746.2285156-.0594482.3383789l2.3145752 3.3028564c.0117188.0163574.026123.034668.0400391.0499268.1864014.2044678.5032959.2191162.7077637.0328369.2044678-.1864014.2192383-.5032959.0328369-.7078857L122.3924103 75.8900604zM27.2862072 42.3296356c-.6699219-.0799561-1.3099365-.1199951-1.869873-.1199951-7.851181-.58741-12.371706 7.4860306-11.8801279 15.1400146.0200195.3499756.0400391.6400146.0600586.8699951.0600586.7700195.7299805 1.4100342 1.5300293 1.4100342h.2800293c4.3798838.0600586 8.0300303.0899658 13.29004.1398926h.0100098c.369873 0 .6999512-.1499023.9399414-.4099121.25-.2600098.3798828-.6300049.3499756-1.0100098-.3699951-4.6500244-.7600098-9.4599609-1.3399658-14.6199951C28.5662365 43.0095673 27.9862804 42.399704 27.2862072 42.3296356zM15.426343 58.1296844l-.3400879-.0200195c-.0100098-.2299805-.0400391-.5100098-.0600586-.8500977-.3969316-6.2649155 2.9943724-13.579834 9.5900888-13.579834.2399902 0 .4899902.0100098.7399902.0299072.5500488 0 1.1500244.0400391 1.75.0999756.0200195.0100098.0500488.0500488.0500488.0900879.5799561 5.0599365.9599609 9.7900391 1.3299561 14.369873C23.3462658 58.2196503 19.7362804 58.189743 15.426343 58.1296844zM46.4962883 43.2595673c-.6400146-.079834-1.2600098-.119873-1.7999268-.119873-7.6042099-.5722427-12.4994431 7.3727455-12.5800781 14.8000488-.0100098.3498535-.0100098.6298828-.0100098.8598633.0100098.7800293.6600342 1.4400635 1.4299316 1.4500732h.3100586c4.2299805.0499268 7.7700195.0799561 12.8699951.1199951h.0100098c.3499756 0 .6700439-.1300049.9200439-.3800049s.3898926-.5999756.3898926-.960083c-.0198975-4.5599365-.0499268-9.2700195-.25-14.3398438C47.7562981 43.9496307 47.1963615 43.3296356 46.4962883 43.2595673zM33.8562737 58.7496796l-.25.039917c0-.2199707 0-.4899902.0100098-.8299561.0614624-6.4778824 4.2321358-13.8479195 11.0100098-13.3199463.5400391 0 1.1099854.0400391 1.6499023.0899658 0 0 .0100098.0100098.0100098.0200195.2000732 4.9899902.2301025 9.6300049.25 14.1199951C41.5362053 58.8296356 38.0462151 58.7996063 33.8562737 58.7496796zM66.3062286 44.689743c-.0300293-.7401123-.5799561-1.3601074-1.2800293-1.4301758-3.6638985-.4571114-6.6111412.0388145-9.3498573 2.5600586-3.0100098 2.75-4.9899902 7.5100098-5.0400391 12.1201172v.8598633c0 .7800293.6599121 1.4400635 1.4199219 1.4500732h.3100586c4.2399902.0499268 7.7700195.0799561 12.8699989.1199951.0100098 0 .0100098 0 .0100098 0 .3499756 0 .6800537-.1300049.9200439-.3800049.2600098-.25.3999023-.5999756.3999023-.960083C66.5475922 54.0003128 66.4955292 49.6695595 66.3062286 44.689743zM52.3762932 58.7496796l-.2399902.039917v-.8299561c.0776787-6.549469 4.2706108-13.8449211 11.0100098-13.3199463.106678 0 1.5955772.0356407 1.6699257.1099854.1800537 4.6700439.2199707 8.8099365.25 14.1199951C60.0662346 58.8296356 56.5662346 58.7996063 52.3762932 58.7496796zM109.5462189 62.3096161c-1.3299561-5.7700195-2.9899902-12.9499512-10.75-16.3898926-1.5200195-.5800781-3.1599121-.8400879-4.869873-.7900391-.5900879.0200195-1.0800781.5200195-1.0800781 1.1099854 0 .0100098 0 .0100098 0 .0198975.0300293 2.6201172 0 5.4700928-.0200195 8.2301025-.0300293 3.2099609-.0599365 6.539917 0 9.6099854 0 .4299316.1800537.8300781.5 1.1300049.3000488.2799072.6999512.4400635 1.1101074.4400635h.0799561c4.9699707-.2399902 9.5098877-.2399902 13.7299805-.2200928h.0100098c.5 0 .9599609-.2199707 1.2698975-.6099854.3000488-.3800049.4101563-.8800049.3000488-1.3599854L109.5462189 62.3096161zM108.2563019 63.9496307c-4.25-.0198975-8.8099365-.0198975-13.8099365.2200928-.0800781 0-.0800781-.0200195-.1201172-.0900879-.0599365-3.0600586-.0300293-6.3699951 0-9.5799561.0200195-2.6300049.0500488-5.3499756.0200195-7.8699951 1.3900146-.0100098 2.6899414.2199707 3.8800049.6699219 7.0400391 3.130127 8.5999756 9.9000244 9.8599854 15.3500977l.2600098 1.2600098C108.3362579 63.9297333 108.3062286 63.9496307 108.2563019 63.9496307z"/><path fill="#553045" d="M118.4163361,69.019577c0.8598633-2.4099121,1.3299561-5,1.3299561-7.7099609v-0.9299316
			c-0.0100098-12.2900391-9.4899902-22.7600098-21.5899658-23.8100586l-64.0500488-5.5999737
			C2.1493478,28.1641407-10.3941879,63.1002045,14.0362062,80.0395966c-0.3598633,0.1600342-0.6899414,0.3601074-1,0.5900879
			c-1.8992767,0.0945206-3.6419792,0.0908813-5.519897,1.0300293c-2.9200439,1.4599609-3.1700439,2.9599609-2.8599854,3.9599609
			c0.8217182,2.6268005,6.2962289,3.477211,8.7399902,2.8699951c2.9268656,1.6901474,6.8313684,1.1796036,8.1899424,1.2698975
			c0,3.3983383,1.510294,6.9452362,4.3400879,8.9700928c1.3498535,0.960083,2.8498535,1.460083,4.3199463,1.460083
			c0.3699951,0,0.7399902-0.0300293,1.0999756-0.0900879c4.4751415-0.7821732,6.6796741-5.9271698,5.6799297-10.4199219
			c2.7301025-0.0300293,5.4400635-0.0500488,8.1201172-0.0800781c13.6599121-0.1300049,27.6499062-0.2600098,41.7099648-0.0500488
			c-0.4090118,5.5166168,3.7040253,10.0093689,8.2800293,10.0400391h0.0400391c1.9599609,0,3.7399902-0.8100586,5.0499268-2.1599121
			c1.9163361-1.9601135,2.6521072-4.8162918,2.2200928-7.4899902c3.8607635,0.1297531,11.6448593,0.5802307,14.2099609-2.3000488
			c1.1298828-1.2600098,1.0300293-2.8400879,0.9699707-3.880127c-0.10215-1.6963501-1.9323654-3.197998-2.8200684-3.4199219
			c-1.2600098-0.4099121-2.5699463-0.75-3.9499512-1.0300293c1.4699707-1.0999756,2.7900391-2.3898926,3.9399414-3.8299561
			c2.8952332,0.6135254,5.7944489-1.5190353,5.7200928-3.6800537
			C120.4962921,71.0395966,120.1062775,69.939743,118.4163361,69.019577z M6.0962653,85.1797333
			c-0.3141026-1.0089188,1.9973569-2.6706924,5.4499507-3.0100098c-1.1781845,1.8519669-0.8496456,3.5723953,0.25,4.9599609
			C8.8162355,87.2396698,6.3863044,86.1396942,6.0962653,85.1797333z M31.086256,98.6196747
			c-1.4199219,0.2399902-2.9399414-0.1500244-4.2900391-1.1101074c-5.6172886-4.0164566-4.6631374-14.4499512,1.7900391-14.4499512
			C36.4313622,83.0596161,38.5579071,97.3331299,31.086256,98.6196747z M95.1763458,98.0896454h-0.0300293
			c-6.3824463-0.0347214-9.2020416-9.4058304-4.4100342-13.2299805c1.0288696-0.8097916,2.2109451-1.2099609,3.4300537-1.2099609
			C102.7205811,83.649704,103.4753036,98.0896454,95.1763458,98.0896454z M114.2862091,81.7496796
			c0.6900635,0.3499756,1.7800293,1.0799561,1.8400879,2.0999756c0.0700684,1.1300049,0.0700684,2.0500488-0.5900879,2.7900391
			c-2.1184464,2.3981018-10.4089661,1.8792038-13.4499512,1.7900391
			c-2.6228027-8.2132416-13.0617294-8.3961639-14.9899902-0.3701172
			c-14.1499023-0.2199707-28.2199745-0.0899658-41.9599648,0.0400391c-2.8100586,0.0300293-5.6500244,0.0500488-8.5100098,0.0800781
			c-3.0411224-8.836937-13.6903687-8.7878036-14.91992,0.079834c-2.0201015-0.0302048-3.8764114,0.1397781-5.920167-0.3999023
			c-4.696434-1.2355881-4.3560524-5.4564667-0.4099121-6.75c0,0,0,0,0.0100098,0
			c6.7910433-2.2636795,58.6949196-1.4526291,65.8800049-1.3200684
			C106.1619568,80.2303619,107.686882,79.6355057,114.2862091,81.7496796z M87.3062286,77.9596405h-11.75V51.2795868
			c0-3.2399902,2.630127-5.8798828,5.8701172-5.8798828s5.8798828,2.6398926,5.8798828,5.8798828V77.9596405z
			 M108.7862091,78.939743c-3.409111-0.4719467-3.8897095-0.2601166-19.9799805-0.5200195V51.2795868
			c0-4.0699463-3.3099365-7.3798828-7.3798828-7.3798828c-4.0600586,0-7.3701172,3.3099365-7.3701172,7.3798828v26.880127
			c-18.9799843-0.3200684-38.489994-0.4400635-58.1599159,1.2700195c-0.0200195,0-0.0500488,0.0100098-0.0700684,0.0198975
			C-7.2093472,64.6430511,1.5165257,32.3296356,30.796217,32.3296356c1.0500488,0,2.1101055,0.0400391,3.1800518,0.1400146
			l64.0400391,5.5899658c11.3399658,0.9899902,20.2199707,10.8000488,20.2299805,22.3200684v0.9299316
			c0,2.5300293-0.4400635,4.9499512-1.25,7.1900635c-5.5601959-1.2372742-7.2943497,4.3519745-3.6900635,6.4300537
			C112.0063019,76.47966,110.4862823,77.8296356,108.7862091,78.939743z M114.2462921,73.72966
			c-1.6111069-0.7533722-1.5638428-2.6228867-0.6500244-3.4000244c1.302536-1.0852509,5.3577957-0.2563248,5.4299316,1.5200195
			C119.0413284,72.7417831,116.4079056,74.8088226,114.2462921,73.72966z"/><path fill="#553045" d="M96.3562775 66.4696503l-2.5999756-.1600342c-.3599854-.0300293-.7200928.1201172-.9500732.3900146-.2299805.2800293-.3099365.6500244-.2099609 1.0200195.1400146.5999756.7099609 1.0499268 1.3200684 1.0499268 0 0 .0100098 0 .0200195 0l2.4299316-.0499268c.2700195-.0100098.5100098-.1199951.6999512-.3199463.2000732-.2099609.3100586-.5100098.3000488-.8200684C97.3462677 66.9896698 96.9063263 66.4996796 96.3562775 66.4696503zM42.3235588 97.580246l-6.1672363.2575684c-.1243896.0054932-.2269287.1055908-.2322998.2322998-.0056152.1337891.0983887.2468262.2322998.2524414l6.1672363.2576904c.0135498.0004883.0280762.0004883.0418701 0 .276123-.0115967.4906006-.244751.479126-.520874C42.8329582 97.7831268 42.5998039 97.5686493 42.3235588 97.580246zM100.8323517 97.8378143c-.1274414.0037842-.2320557.1065674-.2357178.2355957-.0036621.1339111.1018066.2454834.2357178.2491455l9.2388916.2576904c.008667.0001221.019043.0002441.027832 0 .276123-.0076904.4937744-.237793.486084-.5140381C110.5586624 97.1149063 109.4116821 97.7957993 100.8323517 97.8378143zM125.5323029 67.8263397c.2337646-.1480713.3032227-.4575195.1551514-.6912842s-.4576416-.3032227-.6914063-.1551514l-3.4267578 2.1706543c-.1019287.0644531-.1424561.1960449-.0899658.3081055.0567627.12146.201416.1739502.322876.1170654l3.6743164-1.71875C125.4945831 67.8483124 125.5149689 67.837326 125.5323029 67.8263397zM26.2362804 91.22966c.210083 1.3699951.8800049 2.5499268 1.8499756 3.2399902.5300293.3800049 1.1101074.5699463 1.6899414.5699463.1501465 0 .3000488-.0100098.4500732-.039917 1.5799561-.2900391 2.630003-2.0899658 2.4300518-4.1700439C32.0740929 85.1599808 25.3298111 85.4476395 26.2362804 91.22966zM30.046217 94.019577c-.4499512.0800781-.9299316-.039917-1.3798828-.3598633-.7399902-.5300293-1.2800293-1.4899902-1.4400635-2.5800781-.6594524-4.4308777 4.0278149-4.3797379 4.4300537-.1599121C31.8062267 92.4596405 31.0962658 93.8196259 30.046217 94.019577zM95.1963654 87.2996063c-2.0364914-.4697876-3.8200684 1.1297913-3.8200684 3.380127.0100098 2.0699463 1.6099854 3.829834 3.4899902 3.8398438.0100098 0 .0100098 0 .0200195 0C98.8407135 94.519577 99.0780716 88.224144 95.1963654 87.2996063zM94.8863068 93.519577H94.876297c-3.0650406-.0227203-3.3882294-5.2999268-.3900146-5.2999268C97.614006 88.2196503 97.8852158 93.519577 94.8863068 93.519577zM78.9662628 68.0996552c-.5699463.1199951-1.0299072.6599121-1.039917 1.2199707l-.0200195 3.0700684c-.0100098.2199707.0799561.4199219.2299805.5799561.1899414.1800537.4499512.2800293.7299805.2800293.5300293 0 .9799805-.3699951 1.0200195-.8299561l.3000488-3.2700195c.0299072-.3300781-.0800781-.630127-.3100586-.8400879C79.6363068 68.0996552 79.3062286 68.019577 78.9662628 68.0996552z"/></g></svg>