<svg xmlns="http://www.w3.org/2000/svg" viewBox="0 0 64 64"><g data-name="husky dog"><path d="M32,62a.85.85,0,0,1-.23,0l-21-5A1,1,0,0,1,10,55.9l2.27-22.09a19.43,19.43,0,0,1,1.89-6.67,19.84,19.84,0,0,1,31.12-6,19.8,19.8,0,0,1,6.44,12.7L54,55.9A1,1,0,0,1,53.23,57l-21,5A.85.85,0,0,1,32,62ZM12.08,55.23,32,60l19.92-4.74L49.74,34a17.83,17.83,0,0,0-35.48,0Z"/><circle cx="24.5" cy="33.5" r="1.5"/><circle cx="39.5" cy="33.5" r="1.5"/><path d="M32 51.67c-1.7 0-5-1.18-5-3.34a3.17 3.17 0 0 1 1.14-2.4A3.79 3.79 0 0 1 30.67 45h2.66A3.52 3.52 0 0 1 37 48.33a3.09 3.09 0 0 1-2 2.54A7 7 0 0 1 32 51.67zM30.67 47a1.79 1.79 0 0 0-1.21.43 1.16 1.16 0 0 0-.46.9c0 .39 1.67 1.34 3 1.34a5 5 0 0 0 2.08-.57c.72-.38.91-.7.92-.77A1.55 1.55 0 0 0 33.33 47zM15.07 28.58l-.2 0a1 1 0 0 1-.8-.93c-.05-1-.07-2-.07-3.13C14 13.59 16.8 2 22 2c4.31 0 6.75 7.85 7.59 15.2a1 1 0 0 1-.81 1.09A17.86 17.86 0 0 0 16 28 1 1 0 0 1 15.07 28.58zM22 4c-2.8 0-5.93 8.57-6 20.11a19.9 19.9 0 0 1 11.49-7.59C26.42 8.38 23.9 4 22 4zM48.93 28.58A1 1 0 0 1 48 28a17.8 17.8 0 0 0-12.81-9.73 1 1 0 0 1-.81-1.09C35.25 9.85 37.69 2 42 2c5.2 0 8 11.59 8 22.5 0 1.15 0 2.17-.07 3.13a1 1 0 0 1-.8.93zM36.51 16.52A19.92 19.92 0 0 1 48 24.1C47.93 12.57 44.8 4 42 4 40.1 4 37.58 8.38 36.51 16.52zM28 56h0A4.81 4.81 0 0 1 24 53.72l-2.81-4.49A2.62 2.62 0 0 0 19 48a1 1 0 0 1 0-2 4.58 4.58 0 0 1 3.91 2.17l2.81 4.49A2.82 2.82 0 0 0 28 54a1 1 0 0 1 0 2z"/><path d="M32 56a1 1 0 0 1-1-1V51a1 1 0 0 1 2 0v4A1 1 0 0 1 32 56zM36 56a1 1 0 0 1 0-2 2.82 2.82 0 0 0 2.31-1.33l2.81-4.49A4.58 4.58 0 0 1 45 46a1 1 0 0 1 0 2 2.62 2.62 0 0 0-2.21 1.23L40 53.72A4.81 4.81 0 0 1 36 56zM28.14 56H28a1 1 0 1 1 .14-2h0l.2 0a1 1 0 0 1 .83 1A1 1 0 0 1 28.14 56z"/><path d="M36,56h-.14a1,1,0,0,1,0-2,.93.93,0,0,1,.8.21A1,1,0,0,1,37,55h0A1,1,0,0,1,36,56Z"/><path d="M36,56H28a1,1,0,0,1,0-2h8a1,1,0,0,1,0,2Z"/></g></svg>