<svg xmlns="http://www.w3.org/2000/svg" viewBox="0 0 25 25"><g data-name="Layer 2"><g data-name="Layer 1 copy"><g data-name="Invision icon"><g data-name="ads manager"><rect width="13.72" height="13.72" x="5.64" y="5.64" fill="#f6547a" rx="2" ry="2"/><path fill="#e9466c" d="M17.36 6.24a1.4 1.4 0 0 1 1.4 1.4v9.72a1.4 1.4 0 0 1-1.4 1.4H7.64a1.4 1.4 0 0 1-1.4-1.4V7.64a1.4 1.4 0 0 1 1.4-1.4h9.72m0-.6H7.64a2 2 0 0 0-2 2v9.72a2 2 0 0 0 2 2h9.72a2 2 0 0 0 2-2V7.64a2 2 0 0 0-2-2z"/></g><path fill="none" d="M0 0h25v25H0z"/><path fill="#fff" d="M10.24 10a.82.82 0 1 0-.84-.83.83.83 0 0 0 .84.83M8.5 14.43a2.83 2.83 0 0 0-.07.62 1.1 1.1 0 0 0 1.23 1.21 2 2 0 0 0 1.66-1.08l-.25 1h1.38l.79-3.18c.2-.8.58-1.22 1.16-1.22a.69.69 0 0 1 .74.75 1.47 1.47 0 0 1-.06.44l-.41 1.45a2.18 2.18 0 0 0-.09.62 1.12 1.12 0 0 0 1.26 1.19c.73 0 1.31-.47 1.63-1.59l-.54-.21c-.27.75-.5.89-.69.89s-.28-.12-.28-.37a1.63 1.63 0 0 1 .06-.38l.39-1.42a3.12 3.12 0 0 0 .14-.9 1.43 1.43 0 0 0-1.42-1.61A2.39 2.39 0 0 0 13.29 12l.27-1.24h-2.1l-.3 1.09h1l-.61 2.43a1.54 1.54 0 0 1-1.46 1.05c-.18 0-.3-.11-.3-.34a2.32 2.32 0 0 1 .09-.56l.92-3.66H8.45l-.3 1.09h1l-.65 2.57"/></g></g></g></svg>