<svg xmlns="http://www.w3.org/2000/svg" height="1200" width="1600" version="1.1" xmlns:xlink="http://www.w3.org/1999/xlink" xmlns:svgjs="http://svgjs.com/svgjs"><rect fill="#f3ebe9" width="1600" height="1200"></rect><g><path d="M1215.95 593.33L1250.55 601.63 1221.15 621.63 1231.45 655.73 1199.25 640.13 1174.85 666.03 1172.25 630.53 1137.65 622.33 1167.15 602.33 1156.95 568.33 1188.95 583.73 1213.45 557.83 1215.95 593.33Z" fill="#ff9edd" opacity="1" stroke-width="4" stroke="none"></path></g><g><path d="M498.84 854.82L510.14 789.82 445.14 801.12 460.14 816.22 432.84 843.52 456.44 867.12 483.74 839.82 498.84 854.82Z" fill="#61ccff" opacity="1" stroke-width="4" stroke="none"></path></g><g><path d="M1034.9 216.35L1100 227.65 1088.7 162.65 1073.6 177.75 1046.3 150.45 1022.7 174.05 1050 201.35 1034.9 216.35Z" fill="#61ccff" opacity="1" stroke-width="4" stroke="none"></path></g><g><path d="M444.9 212.6H792.3C819.1 212.6 840.8 234.3 840.8 261.2V667.1C840.8 693.9 819.1 715.6 792.3 715.6H444.9C418.1 715.6 396.4 693.9 396.4 667.1V261.2C396.4 234.4 418.1 212.6 444.9 212.6Z" fill="#ff9edd" opacity="1" stroke-width="4" stroke="none"></path></g><g><path d="M1076.05 335.52H1291.55C1304 335.52 1314.16 345.68 1314.16 358.13V484.73C1314.16 497.19 1304 507.34 1291.55 507.34H1076.05C1063.6 507.34 1053.45 497.19 1053.45 484.73V358.13C1053.45 345.68 1063.6 335.52 1076.05 335.52Z" fill="#020202" opacity="0.2" stroke-width="4" stroke="none"></path><path d="M1056.52 315.99H1272.01C1284.47 315.99 1294.62 326.14 1294.62 338.6V465.2C1294.62 477.65 1284.47 487.8 1272.01 487.8H1056.52C1044.06 487.8 1033.91 477.65 1033.91 465.2V338.6C1033.91 326.14 1044.06 315.99 1056.52 315.99Z" fill="#ffc930" opacity="1" stroke-width="4" stroke="none"></path><path d="M1294.71 348.83H1033.91V385.09H1294.71V348.83Z" fill="#020202" opacity="1" stroke-width="4" stroke="none"></path><path d="M1080.23 433.29H1113.85C1121.35 433.29 1127.41 439.35 1127.41 446.94 1127.41 454.45 1121.35 460.59 1113.85 460.59H1080.23C1072.73 460.59 1066.67 454.53 1066.67 446.94 1066.59 439.35 1072.73 433.29 1080.23 433.29Z" fill="#ffffff" opacity="1" stroke-width="4" stroke="none"></path><path d="M1241.39 460.42C1252.79 460.42 1262.03 451.18 1262.03 439.77 1262.03 428.38 1252.79 419.13 1241.39 419.13 1229.98 419.13 1220.74 428.38 1220.74 439.77 1220.74 451.18 1229.98 460.42 1241.39 460.42Z" fill="#ff9edd" opacity="1" stroke-width="4" stroke="none"></path><path d="M1214.68 460.42C1226.08 460.42 1235.33 451.18 1235.33 439.77 1235.33 428.38 1226.08 419.13 1214.68 419.13 1203.28 419.13 1194.04 428.38 1194.04 439.77 1194.04 451.18 1203.28 460.42 1214.68 460.42Z" fill="#ff9edd" opacity="1" stroke-width="4" stroke="none"></path></g><g><path d="M592.17 1038.59V1030.81C592.17 1024.63 597.14 1019.66 603.33 1019.66 609.51 1019.66 614.48 1024.63 614.48 1030.81V1038.59C614.48 1044.77 609.51 1049.74 603.33 1049.74 597.14 1049.83 592.17 1044.77 592.17 1038.59Z" fill="#000000" opacity="1" stroke-width="4" stroke="none"></path><path d="M722.89 1038.59V1030.81C722.89 1024.63 727.85 1019.66 734.04 1019.66 740.22 1019.66 745.19 1024.63 745.19 1030.81V1038.59C745.19 1044.77 740.22 1049.74 734.04 1049.74 727.95 1049.83 722.89 1044.77 722.89 1038.59Z" fill="#000000" opacity="1" stroke-width="4" stroke="none"></path><path d="M591.14 802.47H745.47C766.55 802.47 783.6 819.52 783.6 840.6V994.93C783.6 1016.01 766.55 1033.06 745.47 1033.06H591.14C570.06 1033.06 553.01 1016.01 553.01 994.93V840.6C553.01 819.52 570.06 802.47 591.14 802.47Z" fill="#cecdce" opacity="1" stroke-width="4" stroke="none"></path><path d="M668.26 973.84C693 973.84 713.05 953.79 713.05 929.06 713.05 904.32 693 884.27 668.26 884.27 643.52 884.27 623.47 904.32 623.47 929.06 623.47 953.79 643.52 973.84 668.26 973.84Z" fill="#000000" opacity="0.2" stroke-width="4" stroke="none"></path><path d="M597.8 841.16H738.63C742 841.16 744.72 843.88 744.72 847.26V988.09C744.72 991.46 742 994.18 738.63 994.18H597.8C594.42 994.18 591.71 991.46 591.71 988.09V847.26C591.71 843.88 594.42 841.16 597.8 841.16Z" stroke="#000000" stroke-width="4" opacity="1" fill="none"></path><path d="M668.26 962.51C693 962.51 713.05 942.45 713.05 917.72 713.05 892.98 693 872.93 668.26 872.93 643.52 872.93 623.47 892.98 623.47 917.72 623.47 942.45 643.52 962.51 668.26 962.51Z" fill="#fcfbfc" opacity="1" stroke-width="4" stroke="none"></path><path d="M668.26 932.99C676.69 932.99 683.53 926.15 683.53 917.72 683.53 909.28 676.69 902.44 668.26 902.44 659.83 902.44 652.99 909.28 652.99 917.72 652.99 926.15 659.83 932.99 668.26 932.99Z" fill="#000000" opacity="1" stroke-width="4" stroke="none"></path><path d="M587.86 869.93H595.64C601.83 869.93 606.79 874.9 606.79 881.08 606.79 887.27 601.83 892.23 595.64 892.23H587.86C581.68 892.23 576.71 887.27 576.71 881.08 576.62 874.99 581.68 869.93 587.86 869.93Z" fill="#000000" opacity="1" stroke-width="4" stroke="none"></path><path d="M587.86 943.11H595.64C601.83 943.11 606.79 948.08 606.79 954.26 606.79 960.44 601.83 965.41 595.64 965.41H587.86C581.68 965.41 576.71 960.44 576.71 954.26 576.62 948.08 581.68 943.11 587.86 943.11Z" fill="#000000" opacity="1" stroke-width="4" stroke="none"></path></g><g><path d="M462.71 323.36H777.71C781.01 323.36 783.71 326.06 783.71 329.36 783.71 332.66 781.01 335.36 777.71 335.36H462.71C459.41 335.36 456.71 332.66 456.71 329.36 456.71 326.06 459.41 323.36 462.71 323.36Z" fill="#ffffff" opacity="1" stroke-width="4" stroke="none"></path><path d="M702.01 356.66C717.2 356.66 729.51 344.35 729.51 329.16 729.51 313.97 717.2 301.66 702.01 301.66 686.82 301.66 674.51 313.97 674.51 329.16 674.51 344.35 686.82 356.66 702.01 356.66Z" fill="#231f20" opacity="1" stroke-width="4" stroke="none"></path><path d="M462.31 447.86H777.31C780.61 447.86 783.31 450.56 783.31 453.86 783.31 457.16 780.61 459.86 777.31 459.86H462.31C459.01 459.86 456.31 457.16 456.31 453.86 456.31 450.56 459.01 447.86 462.31 447.86Z" fill="#ffffff" opacity="1" stroke-width="4" stroke="none"></path><path d="M612.91 491.46C628.1 491.46 640.41 479.15 640.41 463.96 640.41 448.77 628.1 436.46 612.91 436.46 597.72 436.46 585.41 448.77 585.41 463.96 585.41 479.15 597.72 491.46 612.91 491.46Z" fill="#423615" opacity="0.2" stroke-width="4" stroke="none"></path><path d="M612.91 481.66C628.1 481.66 640.41 469.35 640.41 454.16 640.41 438.97 628.1 426.66 612.91 426.66 597.72 426.66 585.41 438.97 585.41 454.16 585.41 469.35 597.72 481.66 612.91 481.66Z" fill="#ffc930" opacity="1" stroke-width="4" stroke="none"></path></g><g><path d="M519.34 638.74C534.89 623.18 534.89 597.97 519.34 582.42 503.79 566.87 478.58 566.87 463.02 582.42 447.47 597.97 447.47 623.18 463.02 638.74 478.58 654.29 503.79 654.29 519.34 638.74Z" fill="#ffffff" opacity="1" stroke-width="4" stroke="none"></path><path d="M491.34 586.55V593.88" stroke="#231f20" stroke-width="4" stroke-linecap="round" stroke-linejoin="round" opacity="1" fill="none"></path><path d="M491.34 627.3V634.62" stroke="#231f20" stroke-width="4" stroke-linecap="round" stroke-linejoin="round" opacity="1" fill="none"></path><path d="M498.92 594.03H488.19C484.01 594.03 480.61 597.43 480.61 601.61 480.61 604.97 482.83 607.91 486.02 608.89L496.13 611.88C499.49 612.86 501.76 615.95 501.76 619.41 501.76 623.74 498.25 627.25 493.92 627.25H482.41" stroke="#231f20" stroke-width="4" stroke-linecap="round" stroke-linejoin="round" opacity="1" fill="none"></path></g><g><path d="M620.81 653.15C643.56 653.15 662.01 634.71 662.01 611.95 662.01 589.2 643.56 570.75 620.81 570.75 598.06 570.75 579.61 589.2 579.61 611.95 579.61 634.71 598.06 653.15 620.81 653.15Z" fill="#ffffff" opacity="1" stroke-width="4" stroke="none"></path><path d="M606.51 596.35L620.51 610.35 634.51 596.35" stroke="#000000" stroke-width="4" stroke-linecap="round" stroke-linejoin="round" opacity="1" fill="none"></path><path d="M620.51 610.35V629.45" stroke="#000000" stroke-width="4" stroke-linecap="round" stroke-linejoin="round" opacity="1" fill="none"></path><path d="M612.51 613.45H628.51" stroke="#000000" stroke-width="4" stroke-linecap="round" stroke-linejoin="round" opacity="1" fill="none"></path></g><g><path d="M745.01 653.15C767.76 653.15 786.21 634.71 786.21 611.95 786.21 589.2 767.76 570.75 745.01 570.75 722.26 570.75 703.81 589.2 703.81 611.95 703.81 634.71 722.26 653.15 745.01 653.15Z" fill="#ffc930" opacity="1" stroke-width="4" stroke="none"></path><path d="M741.41 629.45V596.45H751.91C756.61 596.45 760.41 600.25 760.41 604.95 760.41 609.65 756.61 613.45 751.91 613.45H735.41" stroke="#1d1a11" stroke-width="4" stroke-linecap="round" stroke-linejoin="round" opacity="1" fill="none"></path><path d="M735.41 621.85H748.41" stroke="#1d1a11" stroke-width="4" stroke-linecap="round" stroke-linejoin="round" opacity="1" fill="none"></path></g><g><path d="M352.86 388.5C318.86 421.5 273.86 417.5 273.86 417.5V502.5C273.86 564.5 339.86 589.5 352.86 589.5 365.86 589.5 431.86 564.5 431.86 502.5V417.5C431.86 417.5 386.86 421.5 352.86 388.5Z" fill="#215067" opacity="0.2" stroke-width="4" stroke="none"></path><path d="M339.36 376.2C305.36 409.2 260.36 405.2 260.36 405.2V490.2C260.36 552.2 326.36 577.2 339.36 577.2 352.36 577.2 418.36 552.2 418.36 490.2V405.2C418.36 405.2 373.36 409.2 339.36 376.2Z" fill="#61ccff" opacity="1" stroke-width="4" stroke="none"></path><path d="M339.36 517.9C362.12 517.9 380.56 499.46 380.56 476.7 380.56 453.95 362.12 435.5 339.36 435.5 316.61 435.5 298.16 453.95 298.16 476.7 298.16 499.46 316.61 517.9 339.36 517.9Z" fill="#ffc930" opacity="1" stroke-width="4" stroke="none"></path><path d="M325.86 475.2L336.86 486.2 352.86 467.2" stroke="#020202" stroke-width="4" stroke-linecap="round" stroke-linejoin="round" opacity="1" fill="none"></path></g><g><path d="M1224.67 998.41L1104.18 1049.22C1104.08 1049.22 1104.08 1049.22 1104.08 1049.12 1102.38 1044.53 1101.58 1039.64 1101.68 1034.85L1102.08 1033.55 1222.27 983.04C1222.37 983.04 1222.57 983.94 1222.57 983.94 1224.37 992.92 1224.77 997.71 1224.67 998.41 1224.77 998.41 1224.77 998.41 1224.67 998.41Z" fill="#cecdce" opacity="1" stroke-width="4" stroke="none"></path><path d="M1222.57 983.84C1219.68 968.16 1215.68 952.49 1211.29 937.12 1210.49 934.52 1209.6 931.53 1208.7 928.73L1208.6 928.63 1160.58 929.33 1121.55 944.2C1121.45 944.2 1121.45 944.3 1121.45 944.3 1124.74 950.79 1127.54 957.98 1129.33 964.97 1130.83 971.16 1131.03 976.35 1129.53 980.64 1121.75 1002.5 1102.58 1014.58 1101.68 1034.75 1101.68 1034.85 1101.68 1034.75 1101.68 1034.75L1222.57 983.84Z" fill="#231f20" opacity="1" stroke-width="4" stroke="none"></path><path d="M989.58 1049.32H858.7C858.6 1049.32 858.6 1049.32 858.6 1049.22 858.8 1044.43 860.1 1039.54 862.2 1035.15 862.2 1035.15 862.2 1035.05 862.3 1035.05L930.78 1029.36 993.27 1035.05C993.37 1035.05 993.37 1035.15 993.37 1035.15 991.37 1044.03 989.88 1048.72 989.58 1049.32 989.68 1049.32 989.68 1049.32 989.58 1049.32Z" fill="#cecdce" opacity="1" stroke-width="4" stroke="none"></path><path d="M916.01 965.47C915.91 965.47 915.91 965.47 916.01 965.47 916.01 975.05 915.11 983.04 912.92 989.03 912.02 991.62 910.62 994.02 908.83 996.11 893.25 1013.29 870.79 1016.78 862.21 1035.05H993.38C996.67 1019.77 999.47 1004.7 1001.17 989.33 1001.37 987.43 1001.67 985.13 1001.86 982.94 1001.86 982.94 1001.86 982.84 1001.77 982.84L960.94 966.67 916.01 965.47Z" fill="#231f20" opacity="1" stroke-width="4" stroke="none"></path><path d="M885.76 297.82C883.96 301.82 890.25 307.11 890.85 307.61V307.71C887.25 319.09 885.26 332.86 890.25 340.75 896.24 350.63 908.72 353.43 923.19 351.53 923.29 351.53 923.29 351.53 923.29 351.63L922.19 358.12 976.9 367.9C977 367.9 977 367.9 977 367.8 977.7 364.91 986.38 359.92 986.88 356.72 987.38 354.13 987.68 351.33 988.18 348.54 990.97 332.86 990.67 315.19 992.67 303.41 996.36 281.15 999.86 264.68 974.1 248.01 958.83 238.13 940.26 236.63 923.29 241.02 923.29 241.02 900.33 245.51 899.33 273.07 899.33 273.17 894.64 292.33 894.24 293.53 894.24 293.53 894.24 293.63 894.14 293.63 893.64 293.83 887.05 294.63 885.76 297.82Z" fill="#d08058" opacity="1" stroke-width="4" stroke="none"></path><path d="M922.39 358.12C923.79 357.82 935.17 355.12 943.56 345.04 943.66 344.94 943.56 344.84 943.46 344.84 934.87 349.33 924.29 351.33 923.49 351.53 923.49 351.53 923.39 351.53 923.39 351.63L922.29 358.02C922.19 358.02 922.29 358.12 922.39 358.12Z" fill="#000000" opacity="0.15" stroke-width="4" stroke="none"></path><path d="M1038.89 412.32C1027.91 385.47 1008.54 368.8 985.98 364.21 985.88 364.21 985.88 364.11 985.88 364.11L986.98 356.82C986.98 356.72 986.98 356.72 986.88 356.72L922.59 356.92C922.49 356.92 922.39 357.02 922.39 357.12L921.19 363.41C921.19 363.51 921.19 363.51 921.09 363.51 919.9 363.61 906.42 364.41 888.75 368.4 861.9 374.39 825.16 423.11 796.21 457.85H796.11L752.19 437.98H752.09L730.13 465.93 721.34 506.16V506.26C743.8 521.54 772.55 537.11 797.11 536.61 838.44 535.61 875.17 494.58 877.67 491.79 877.77 491.69 877.87 491.79 877.87 491.89L887.25 542.6C887.25 542.6 887.25 542.9 887.35 542.9L1001.26 544.5 1026.51 566.26C1026.51 566.26 1026.51 566.26 1026.61 566.26 1027.51 566.26 1043.28 565.76 1051.97 544.5 1057.66 529.12 1050.17 440.18 1038.89 412.32Z" fill="#cecdce" opacity="1" stroke-width="4" stroke="none"></path><path d="M907.62 459.64L904.22 542.6C904.22 542.7 904.22 542.7 904.12 542.7H887.25C887.25 542.7 887.15 542.7 887.15 542.6L877.77 491.69V491.59L907.42 459.44C907.52 459.44 907.62 459.54 907.62 459.64Z" fill="#000000" opacity="0.2" stroke-width="4" stroke="none"></path><path d="M899.43 273.17C911.61 288.04 932.08 302.61 933.27 303.51H933.37C934.57 302.51 956.73 284.75 968.31 295.63 983.69 309.4 962.02 329.97 955.34 333.46 955.24 333.46 955.24 333.56 955.34 333.66 969.11 347.94 986.88 348.54 988.18 348.54 988.18 348.54 988.28 348.54 988.28 348.44 991.07 333.66 994.67 314.49 996.36 304.41 1000.06 282.15 1001.36 258.29 975.7 241.62 960.43 231.74 939.06 231.34 922.19 235.73H922.09C921.39 234.83 910.51 221.46 895.14 229.74 881.76 238.53 886.85 257.79 899.43 273.17Z" fill="#231f20" opacity="1" stroke-width="4" stroke="none"></path><path d="M905.63 300.42C907.28 300.42 908.63 299.08 908.63 297.42 908.63 295.77 907.28 294.43 905.63 294.43 903.97 294.43 902.64 295.77 902.64 297.42 902.64 299.08 903.97 300.42 905.63 300.42Z" fill="#231f20" opacity="1" stroke-width="4" stroke="none"></path><path d="M642.18 401.64C642.28 401.64 642.38 401.54 642.28 401.44 636.79 398.25 635.29 386.67 642.18 388.77 665.74 395.85 692.99 410.13 713.85 420.51L713.95 420.61 705.67 454.55 687.5 478.41C687.5 478.41 687.5 478.41 687.4 478.41 675.52 478.81 656.95 474.12 643.57 463.84 643.57 463.84 643.57 463.84 643.48 463.84 623.61 462.24 603.34 459.54 602.45 454.65 601.35 448.76 625.11 448.16 632.29 448.06 632.39 448.06 632.39 447.86 632.29 447.86 624.81 445.17 582.98 441.37 595.46 424.7V424.6C589.97 416.22 597.65 411.93 600.15 411.73 600.25 411.73 600.25 411.63 600.25 411.63 599.75 410.63 596.56 404.44 600.95 400.45 603.94 397.85 635.49 400.65 642.18 401.64Z" fill="#d08058" opacity="1" stroke-width="4" stroke="none"></path><path d="M713.85 420.61L687.5 478.41V478.51C698.78 488.59 708.66 497.68 721.24 506.06 721.34 506.06 721.34 506.06 721.34 506.06L752.09 437.98C752.09 437.88 752.09 437.88 752.09 437.88L714.05 420.51C713.85 420.51 713.85 420.51 713.85 420.61Z" fill="#fcfbfc" opacity="1" stroke-width="4" stroke="none"></path><path d="M1001.16 542.6L1014.03 484.6C1014.03 484.5 1014.23 484.5 1014.23 484.6L1016.33 558.87C1016.33 558.97 1016.23 558.97 1016.13 558.97L1001.16 542.6Z" fill="#000000" opacity="0.2" stroke-width="4" stroke="none"></path><path d="M1196.92 893.39C1192.13 879.92 1187.13 867.74 1181.94 856.56 1160.58 810.14 1138.02 782.58 1124.24 763.02 1096.89 724.48 1085.21 665.09 1061.65 617.27 1038.59 570.05 1002.25 543.4 1001.16 542.6 1001.16 542.6 1001.16 542.6 1001.06 542.6H968.21L887.35 542.7C887.25 542.7 887.25 542.7 887.25 542.8 886.95 546.29 876.47 662.49 891.55 804.55 894.84 835.59 902.63 871.93 908.52 904.97 912.61 927.73 915.6 948.7 915.9 965.37 915.9 965.37 915.9 965.47 916 965.47L968.31 976.15 1001.76 982.74C1001.85 982.74 1001.85 982.74 1001.85 982.64 1003.15 970.56 1004.35 957.18 1005.25 941.61 1005.75 928.63 1005.85 916.45 1005.65 904.97 1004.35 852.36 993.97 817.22 988.58 793.27 983.49 770.41 986.48 744.15 990.37 717 990.57 717 990.37 717 990.57 717 1005.35 747.64 1021.72 779.69 1038.99 810.94 1052.87 836.19 1072.03 864.14 1089.5 890.4 1102.38 909.96 1113.86 928.23 1121.45 944.1L1121.55 944.2 1208.6 928.63C1208.7 928.63 1208.7 928.53 1208.7 928.53 1205.4 918.05 1201.61 906.57 1196.92 893.39Z" fill="#61ccff" opacity="1" stroke-width="4" stroke="none"></path><path d="M1016.63 769.11C1016.73 769.21 1016.83 769.21 1016.83 769.01L1010.24 698.43C1008.94 684.35 1006.15 670.28 1001.85 656.8L998.26 645.42C998.26 645.32 998.06 645.32 998.06 645.42 997.96 668.78 993.87 693.04 990.37 716.7 990.37 716.7 990.37 716.7 990.37 716.8 998.76 733.97 1007.55 751.54 1016.63 769.11Z" fill="#24343b" opacity="0.2" stroke-width="4" stroke="none"></path><path d="M905.92 315.19C904.92 317.99 900.33 320.18 897.54 319.19" stroke="#000000" stroke-width="4" stroke-linecap="round" stroke-linejoin="round" opacity="1" fill="none"></path><path d="M943.46 344.84C937.37 347.94 926.39 351.03 923.29 351.63" stroke="#000000" stroke-width="4" stroke-linecap="round" stroke-linejoin="round" opacity="1" fill="none"></path><path d="M955.44 310.6L946.35 317.89" stroke="#000000" stroke-width="4" stroke-linecap="round" stroke-linejoin="round" opacity="1" fill="none"></path><path d="M877.68 491.79L907.43 459.54" stroke="#000000" stroke-width="4" stroke-linecap="round" stroke-linejoin="round" opacity="1" fill="none"></path><path d="M600.25 411.83C600.25 411.83 632.59 414.52 653.56 419.11" stroke="#000000" stroke-width="4" stroke-linecap="round" stroke-linejoin="round" opacity="1" fill="none"></path><path d="M642.18 401.44L658.15 404.14" stroke="#000000" stroke-width="4" stroke-linecap="round" stroke-linejoin="round" opacity="1" fill="none"></path><path d="M595.56 424.9C595.56 424.9 630 431.79 647.87 435.19" stroke="#000000" stroke-width="4" stroke-linecap="round" stroke-linejoin="round" opacity="1" fill="none"></path><path d="M990.57 717.1C994.57 690.04 997.66 672.28 998.26 645.52" stroke="#354d58" stroke-width="4" stroke-linecap="round" stroke-linejoin="round" opacity="1" fill="none"></path><path d="M1151.6 969.06L1130.23 968.96" stroke="#cecdce" stroke-width="4" stroke-linecap="round" stroke-linejoin="round" opacity="1" fill="none"></path><path d="M1149.6 985.73L1128.93 982.04" stroke="#cecdce" stroke-width="4" stroke-linecap="round" stroke-linejoin="round" opacity="1" fill="none"></path><path d="M931.78 997.21L912.91 989.03" stroke="#cecdce" stroke-width="4" stroke-linecap="round" stroke-linejoin="round" opacity="1" fill="none"></path><path d="M923.29 1011.79L905.32 999.71" stroke="#cecdce" stroke-width="4" stroke-linecap="round" stroke-linejoin="round" opacity="1" fill="none"></path><path d="M914.12 542.8C914.12 542.8 914.62 691.74 927.59 785.28 940.57 878.82 954.05 948 951.45 972.36" stroke="#24343b" stroke-width="4" stroke-linecap="round" stroke-linejoin="round" opacity="1" fill="none"></path><path d="M1001.16 542.6L1014.03 484.6" stroke="#000000" stroke-width="4" stroke-linecap="round" stroke-linejoin="round" opacity="1" fill="none"></path></g></svg>